STARTFONT 2.1
FONT -FontForge-Pacifico-Book-R-Normal--14-140-72-72-P-82-ISO10646-1
SIZE 14 72 72
FONTBOUNDINGBOX 31 29 -8 -7
COMMENT "Generated by fontforge, http://fontforge.sourceforge.net"
COMMENT "Copyright 2018 The Pacifico Project Authors (https://github.com/googlefonts/Pacifico)"
STARTPROPERTIES 40
FOUNDRY "FontForge"
FAMILY_NAME "Pacifico"
WEIGHT_NAME "Book"
SLANT "R"
SETWIDTH_NAME "Normal"
ADD_STYLE_NAME ""
PIXEL_SIZE 14
POINT_SIZE 140
RESOLUTION_X 72
RESOLUTION_Y 72
SPACING "P"
AVERAGE_WIDTH 82
CHARSET_REGISTRY "ISO10646"
CHARSET_ENCODING "1"
FONTNAME_REGISTRY ""
CHARSET_COLLECTIONS "ISO8859-2 ISO8859-5 ISO8859-9 ISO8859-4 ISO10646-1"
FONT_NAME "Pacifico-Regular"
FACE_NAME "Pacifico Regular"
COPYRIGHT "Copyright 2018 The Pacifico Project Authors (https://github.com/googlefonts/Pacifico)"
FONT_VERSION "3.001"
FONT_ASCENT 11
FONT_DESCENT 3
UNDERLINE_POSITION -1
UNDERLINE_THICKNESS 1
X_HEIGHT 6
CAP_HEIGHT 12
DEFAULT_CHAR 1
RAW_ASCENT 800
RAW_DESCENT 200
NORM_SPACE 4
RELATIVE_WEIGHT 40
RELATIVE_SETWIDTH 50
SUPERSCRIPT_X 0
SUPERSCRIPT_Y 4
SUPERSCRIPT_SIZE 8
SUBSCRIPT_X 0
SUBSCRIPT_Y 1
SUBSCRIPT_SIZE 8
AVG_LOWERCASE_WIDTH 66
AVG_UPPERCASE_WIDTH 113
ENDPROPERTIES
CHARS 1514
STARTCHAR NULL.dup1
ENCODING 0
SWIDTH 0 0
DWIDTH 0 0
BBX 1 1 0 0
BITMAP
00
ENDCHAR
STARTCHAR nonmarkingreturn
ENCODING 13
SWIDTH 265 0
DWIDTH 4 0
BBX 1 1 0 0
BITMAP
00
ENDCHAR
STARTCHAR space
ENCODING 32
SWIDTH 265 0
DWIDTH 4 0
BBX 1 1 0 0
BITMAP
00
ENDCHAR
STARTCHAR exclam
ENCODING 33
SWIDTH 340 0
DWIDTH 5 0
BBX 5 13 0 0
BITMAP
18
18
18
30
30
30
30
20
20
00
60
E0
60
ENDCHAR
STARTCHAR quotedbl
ENCODING 34
SWIDTH 510 0
DWIDTH 7 0
BBX 5 5 2 8
BITMAP
D8
D8
D8
D8
90
ENDCHAR
STARTCHAR numbersign
ENCODING 35
SWIDTH 700 0
DWIDTH 10 0
BBX 10 9 0 0
BITMAP
1900
1900
7FC0
7F80
3200
7F80
FF80
6600
6400
ENDCHAR
STARTCHAR dollar
ENCODING 36
SWIDTH 524 0
DWIDTH 7 0
BBX 6 13 1 -2
BITMAP
10
10
78
DC
DC
E0
70
38
AC
F8
F0
20
20
ENDCHAR
STARTCHAR percent
ENCODING 37
SWIDTH 896 0
DWIDTH 13 0
BBX 11 11 1 0
BITMAP
7180
F380
BF00
9A00
F600
0CE0
0DE0
1920
1920
3160
31C0
ENDCHAR
STARTCHAR ampersand
ENCODING 38
SWIDTH 851 0
DWIDTH 12 0
BBX 11 14 1 -1
BITMAP
1C00
3E00
2200
2200
3600
3C00
3800
7860
CCC0
CFC0
C780
FF80
7D80
00C0
ENDCHAR
STARTCHAR quotesingle
ENCODING 39
SWIDTH 290 0
DWIDTH 4 0
BBX 2 5 2 8
BITMAP
C0
C0
C0
C0
80
ENDCHAR
STARTCHAR parenleft
ENCODING 40
SWIDTH 613 0
DWIDTH 9 0
BBX 9 16 1 -2
BITMAP
0780
1F80
1800
3000
3000
6000
6000
6000
4000
C000
C000
C000
C000
4600
7E00
3800
ENDCHAR
STARTCHAR parenright
ENCODING 41
SWIDTH 613 0
DWIDTH 9 0
BBX 9 16 -1 -2
BITMAP
0E00
1F00
3180
0180
0180
0180
0180
0180
0100
0300
0300
0300
0600
0E00
FC00
7000
ENDCHAR
STARTCHAR asterisk
ENCODING 42
SWIDTH 520 0
DWIDTH 7 0
BBX 5 6 2 8
BITMAP
B0
E8
78
B8
68
60
ENDCHAR
STARTCHAR plus
ENCODING 43
SWIDTH 700 0
DWIDTH 10 0
BBX 8 9 1 0
BITMAP
08
08
18
18
FF
FF
18
10
10
ENDCHAR
STARTCHAR comma
ENCODING 44
SWIDTH 257 0
DWIDTH 4 0
BBX 3 5 0 -2
BITMAP
60
60
40
C0
C0
ENDCHAR
STARTCHAR hyphen
ENCODING 45
SWIDTH 403 0
DWIDTH 6 0
BBX 4 2 1 3
BITMAP
F0
80
ENDCHAR
STARTCHAR period
ENCODING 46
SWIDTH 257 0
DWIDTH 4 0
BBX 3 3 0 0
BITMAP
60
E0
60
ENDCHAR
STARTCHAR slash
ENCODING 47
SWIDTH 509 0
DWIDTH 7 0
BBX 8 14 0 0
BITMAP
03
03
06
06
0C
0C
18
18
30
30
60
60
C0
C0
ENDCHAR
STARTCHAR zero
ENCODING 48
SWIDTH 543 0
DWIDTH 8 0
BBX 6 9 1 0
BITMAP
30
78
CC
CC
CC
8C
CC
F8
70
ENDCHAR
STARTCHAR one
ENCODING 49
SWIDTH 376 0
DWIDTH 5 0
BBX 4 9 1 0
BITMAP
70
F0
A0
60
60
60
60
60
60
ENDCHAR
STARTCHAR two
ENCODING 50
SWIDTH 560 0
DWIDTH 8 0
BBX 6 9 1 0
BITMAP
78
FC
CC
CC
0C
18
70
FC
FC
ENDCHAR
STARTCHAR three
ENCODING 51
SWIDTH 520 0
DWIDTH 7 0
BBX 7 9 0 0
BITMAP
3C
7E
46
0C
18
0C
C6
FC
7C
ENDCHAR
STARTCHAR four
ENCODING 52
SWIDTH 577 0
DWIDTH 8 0
BBX 7 9 1 0
BITMAP
30
60
6C
CC
CC
FE
FE
18
08
ENDCHAR
STARTCHAR five
ENCODING 53
SWIDTH 518 0
DWIDTH 7 0
BBX 6 9 1 0
BITMAP
7C
FC
40
E0
F8
1C
8C
F8
70
ENDCHAR
STARTCHAR six
ENCODING 54
SWIDTH 541 0
DWIDTH 8 0
BBX 6 9 1 0
BITMAP
38
7C
C4
D0
F8
CC
CC
F8
70
ENDCHAR
STARTCHAR seven
ENCODING 55
SWIDTH 497 0
DWIDTH 7 0
BBX 6 9 1 0
BITMAP
FC
FC
18
30
20
60
60
60
40
ENDCHAR
STARTCHAR eight
ENCODING 56
SWIDTH 512 0
DWIDTH 7 0
BBX 6 9 1 0
BITMAP
78
FC
CC
D8
70
D8
8C
F8
F0
ENDCHAR
STARTCHAR nine
ENCODING 57
SWIDTH 541 0
DWIDTH 8 0
BBX 6 9 1 0
BITMAP
78
FC
CC
CC
FC
2C
8C
F8
F0
ENDCHAR
STARTCHAR colon
ENCODING 58
SWIDTH 257 0
DWIDTH 4 0
BBX 3 7 0 0
BITMAP
60
60
60
00
60
E0
60
ENDCHAR
STARTCHAR semicolon
ENCODING 59
SWIDTH 257 0
DWIDTH 4 0
BBX 3 9 0 -2
BITMAP
60
60
60
00
60
60
40
C0
C0
ENDCHAR
STARTCHAR less
ENCODING 60
SWIDTH 700 0
DWIDTH 10 0
BBX 8 7 1 1
BITMAP
03
1F
78
E0
78
1E
07
ENDCHAR
STARTCHAR equal
ENCODING 61
SWIDTH 700 0
DWIDTH 10 0
BBX 8 5 1 2
BITMAP
FF
7F
00
FE
FF
ENDCHAR
STARTCHAR greater
ENCODING 62
SWIDTH 700 0
DWIDTH 10 0
BBX 8 7 1 1
BITMAP
60
78
1E
07
1E
F8
C0
ENDCHAR
STARTCHAR question
ENCODING 63
SWIDTH 476 0
DWIDTH 7 0
BBX 6 13 1 0
BITMAP
78
7C
CC
CC
1C
18
30
60
60
00
C0
E0
C0
ENDCHAR
STARTCHAR at
ENCODING 64
SWIDTH 1015 0
DWIDTH 14 0
BBX 13 15 1 -4
BITMAP
07C0
1FE0
3030
6018
C718
CF98
CD98
9990
9930
9FF0
CEC0
C000
6020
3FE0
1F80
ENDCHAR
STARTCHAR A
ENCODING 65
SWIDTH 786 0
DWIDTH 11 0
BBX 12 13 1 0
BITMAP
07E0
1FE0
3800
6180
6180
C180
C180
C300
C300
C300
C730
7FE0
79C0
ENDCHAR
STARTCHAR B
ENCODING 66
SWIDTH 827 0
DWIDTH 12 0
BBX 12 14 0 -1
BITMAP
0FC0
7FF0
E030
1830
1830
1860
33C0
33C0
30E0
3060
30C0
3FC0
3F00
2000
ENDCHAR
STARTCHAR C
ENCODING 67
SWIDTH 686 0
DWIDTH 10 0
BBX 10 13 1 0
BITMAP
0F00
3F00
7180
6180
C180
C000
C000
C000
C000
C000
6040
7FC0
1F80
ENDCHAR
STARTCHAR D
ENCODING 68
SWIDTH 836 0
DWIDTH 12 0
BBX 10 13 1 0
BITMAP
3F00
FF80
81C0
30C0
30C0
60C0
60C0
60C0
60C0
61C0
6380
7F00
7C00
ENDCHAR
STARTCHAR E
ENCODING 69
SWIDTH 686 0
DWIDTH 10 0
BBX 11 13 0 0
BITMAP
0F80
1FC0
30C0
30C0
30C0
1E00
3E00
7000
6000
E000
6020
7FE0
1F80
ENDCHAR
STARTCHAR F
ENCODING 70
SWIDTH 712 0
DWIDTH 10 0
BBX 13 13 0 0
BITMAP
0FF8
3BF8
6300
6600
6600
2600
0FE0
0FC0
0600
0600
8C00
FC00
7800
ENDCHAR
STARTCHAR G
ENCODING 71
SWIDTH 811 0
DWIDTH 11 0
BBX 12 20 1 -7
BITMAP
0F00
3F80
7180
6180
C180
C000
C000
C380
C7C0
C080
60B0
7FE0
1FC0
0180
0380
0500
0900
0B00
0E00
0E00
ENDCHAR
STARTCHAR H
ENCODING 72
SWIDTH 873 0
DWIDTH 12 0
BBX 14 14 0 0
BITMAP
0010
3838
7868
8868
8848
18D8
18F0
3FE0
7FC0
18C0
18C0
30C4
30FC
3070
ENDCHAR
STARTCHAR I
ENCODING 73
SWIDTH 495 0
DWIDTH 7 0
BBX 8 13 0 0
BITMAP
7F
3E
18
18
18
18
18
18
10
30
30
7C
FC
ENDCHAR
STARTCHAR J
ENCODING 74
SWIDTH 743 0
DWIDTH 10 0
BBX 10 14 1 -1
BITMAP
3F80
7FC0
C180
C180
C180
0180
0700
1F00
3B00
2300
6600
6600
7C00
3800
ENDCHAR
STARTCHAR K
ENCODING 75
SWIDTH 937 0
DWIDTH 13 0
BBX 15 13 0 0
BITMAP
1F08
3F18
6318
6618
6630
6660
0FC0
0F80
06C0
06E0
CC62
7C7C
7838
ENDCHAR
STARTCHAR L
ENCODING 76
SWIDTH 673 0
DWIDTH 9 0
BBX 12 13 -1 0
BITMAP
03C0
07E0
0C60
0C60
1860
1800
1800
1800
1800
1800
7C10
FFF0
73E0
ENDCHAR
STARTCHAR M
ENCODING 77
SWIDTH 1232 0
DWIDTH 17 0
BBX 19 13 0 0
BITMAP
39C700
7BEF00
DA7300
9C7300
1C6300
186300
186300
18E300
18C600
18C600
30C620
30C3E0
30C380
ENDCHAR
STARTCHAR N
ENCODING 78
SWIDTH 884 0
DWIDTH 12 0
BBX 14 13 0 0
BITMAP
38E0
7BE0
DA30
9C30
1C60
1C60
1860
1860
1860
18C0
30C4
307C
3078
ENDCHAR
STARTCHAR O
ENCODING 79
SWIDTH 816 0
DWIDTH 11 0
BBX 10 13 1 0
BITMAP
0F00
3F80
71C0
60C0
C0C0
C0C0
C0C0
C0C0
C0C0
C180
E180
7F00
3E00
ENDCHAR
STARTCHAR P
ENCODING 80
SWIDTH 805 0
DWIDTH 11 0
BBX 11 14 1 -1
BITMAP
0F80
3FC0
30C0
6CE0
CCC0
CCC0
8CC0
BF80
BF00
9800
9800
D800
F800
7000
ENDCHAR
STARTCHAR Q
ENCODING 81
SWIDTH 816 0
DWIDTH 11 0
BBX 11 18 1 -5
BITMAP
0F00
3F80
71C0
60C0
C0C0
C0C0
C0C0
C0C0
C0C0
C180
E380
7F00
1C00
0E00
0620
0720
03E0
0180
ENDCHAR
STARTCHAR R
ENCODING 82
SWIDTH 880 0
DWIDTH 12 0
BBX 13 13 1 0
BITMAP
0F80
3FC0
60C0
4CC0
CCC0
CCC0
9F80
BE00
9B00
9980
D988
78F8
70F0
ENDCHAR
STARTCHAR S
ENCODING 83
SWIDTH 693 0
DWIDTH 10 0
BBX 10 13 0 0
BITMAP
1F00
3F80
30C0
60C0
3080
3800
1E00
0780
4180
C180
4180
7F00
3E00
ENDCHAR
STARTCHAR T
ENCODING 84
SWIDTH 697 0
DWIDTH 10 0
BBX 13 13 0 0
BITMAP
1FF8
7FF0
4300
C600
4600
0600
0600
0600
0600
0E00
0C00
0C00
0C00
ENDCHAR
STARTCHAR U
ENCODING 85
SWIDTH 890 0
DWIDTH 12 0
BBX 14 13 0 0
BITMAP
3830
7830
CC30
9860
1860
1860
1860
18E0
30E0
31E0
3164
3E7C
1C78
ENDCHAR
STARTCHAR V
ENCODING 86
SWIDTH 763 0
DWIDTH 11 0
BBX 11 13 2 0
BITMAP
C300
C780
C580
C580
C580
C780
C3E0
C3E0
C200
C600
CC00
7800
7000
ENDCHAR
STARTCHAR W
ENCODING 87
SWIDTH 1217 0
DWIDTH 17 0
BBX 17 13 2 0
BITMAP
C18E00
C19E00
C31200
C31200
C31200
C31E00
C70F80
C70F80
C50C00
CD1800
C99800
79F000
70E000
ENDCHAR
STARTCHAR X
ENCODING 88
SWIDTH 712 0
DWIDTH 10 0
BBX 12 13 0 0
BITMAP
3860
FCC0
8DC0
0F80
0F00
0600
0E00
1E00
1E00
3300
6330
E3E0
C1C0
ENDCHAR
STARTCHAR Y
ENCODING 89
SWIDTH 851 0
DWIDTH 12 0
BBX 13 18 0 -5
BITMAP
3830
7830
CC30
9860
1860
1860
18E0
18E0
19E0
1F68
0E78
03C0
07C0
0CC0
08C0
1980
0F00
0600
ENDCHAR
STARTCHAR Z
ENCODING 90
SWIDTH 721 0
DWIDTH 10 0
BBX 12 13 0 0
BITMAP
1FC0
7FE0
60C0
4180
6180
0300
0700
0600
0C00
1C00
7810
FFE0
63C0
ENDCHAR
STARTCHAR bracketleft
ENCODING 91
SWIDTH 405 0
DWIDTH 6 0
BBX 6 15 1 -1
BITMAP
3C
3C
60
60
60
60
60
60
60
C0
C0
C0
C0
F0
F0
ENDCHAR
STARTCHAR backslash
ENCODING 92
SWIDTH 509 0
DWIDTH 7 0
BBX 4 14 2 0
BITMAP
80
80
C0
C0
C0
40
60
60
60
30
30
30
30
10
ENDCHAR
STARTCHAR bracketright
ENCODING 93
SWIDTH 405 0
DWIDTH 6 0
BBX 6 15 -1 -1
BITMAP
3C
3C
0C
0C
0C
0C
0C
0C
08
18
18
18
18
78
F0
ENDCHAR
STARTCHAR asciicircum
ENCODING 94
SWIDTH 700 0
DWIDTH 10 0
BBX 7 8 1 1
BITMAP
08
18
1C
34
24
66
46
C2
ENDCHAR
STARTCHAR underscore
ENCODING 95
SWIDTH 354 0
DWIDTH 5 0
BBX 5 2 0 -2
BITMAP
F0
F8
ENDCHAR
STARTCHAR grave
ENCODING 96
SWIDTH 600 0
DWIDTH 8 0
BBX 3 5 2 8
BITMAP
80
C0
C0
40
20
ENDCHAR
STARTCHAR a
ENCODING 97
SWIDTH 470 0
DWIDTH 7 0
BBX 8 7 0 0
BITMAP
18
3C
6C
4C
CD
7F
76
ENDCHAR
STARTCHAR b
ENCODING 98
SWIDTH 473 0
DWIDTH 7 0
BBX 8 14 1 0
BITMAP
38
38
68
48
D8
D0
E0
F8
D8
DF
CE
C8
F8
70
ENDCHAR
STARTCHAR c
ENCODING 99
SWIDTH 368 0
DWIDTH 5 0
BBX 7 7 0 0
BITMAP
38
78
48
C0
C2
7C
38
ENDCHAR
STARTCHAR d
ENCODING 100
SWIDTH 515 0
DWIDTH 7 0
BBX 9 14 0 0
BITMAP
0300
0700
0580
0500
0D00
0D00
0D00
1E00
7E00
6C00
4C00
CC80
7F80
7600
ENDCHAR
STARTCHAR e
ENCODING 101
SWIDTH 393 0
DWIDTH 6 0
BBX 7 7 0 0
BITMAP
38
78
48
D8
62
7E
38
ENDCHAR
STARTCHAR f
ENCODING 102
SWIDTH 371 0
DWIDTH 5 0
BBX 6 19 1 -5
BITMAP
18
38
2C
68
68
58
D0
F0
E0
C0
FC
B8
A0
A0
E0
E0
E0
E0
60
ENDCHAR
STARTCHAR g
ENCODING 103
SWIDTH 479 0
DWIDTH 7 0
BBX 8 14 0 -7
BITMAP
18
3C
6C
4C
CF
7F
7C
18
38
58
D0
90
F0
E0
ENDCHAR
STARTCHAR h
ENCODING 104
SWIDTH 502 0
DWIDTH 7 0
BBX 8 14 1 0
BITMAP
38
38
68
48
D8
D0
E0
F8
FC
A8
E8
D9
DE
8C
ENDCHAR
STARTCHAR i
ENCODING 105
SWIDTH 246 0
DWIDTH 3 0
BBX 4 10 1 0
BITMAP
E0
E0
00
C0
C0
C0
80
90
F0
E0
ENDCHAR
STARTCHAR j
ENCODING 106
SWIDTH 254 0
DWIDTH 4 0
BBX 8 17 -3 -7
BITMAP
0E
0C
00
0C
0C
0C
0C
0B
0E
0C
18
38
58
D0
B0
E0
E0
ENDCHAR
STARTCHAR k
ENCODING 107
SWIDTH 525 0
DWIDTH 7 0
BBX 8 14 1 0
BITMAP
38
38
68
48
D0
D0
E0
FC
FC
AC
DD
D1
DF
CE
ENDCHAR
STARTCHAR l
ENCODING 108
SWIDTH 326 0
DWIDTH 5 0
BBX 5 14 1 0
BITMAP
38
38
68
48
D8
D0
D0
F0
E0
E0
C0
C8
F8
70
ENDCHAR
STARTCHAR m
ENCODING 109
SWIDTH 744 0
DWIDTH 10 0
BBX 11 7 1 0
BITMAP
D980
FB80
FF80
DD80
DD20
D9E0
99C0
ENDCHAR
STARTCHAR n
ENCODING 110
SWIDTH 496 0
DWIDTH 7 0
BBX 8 7 1 0
BITMAP
D8
F8
E8
D8
DB
DE
9C
ENDCHAR
STARTCHAR o
ENCODING 111
SWIDTH 451 0
DWIDTH 6 0
BBX 8 7 0 0
BITMAP
38
7C
4F
CF
4C
78
38
ENDCHAR
STARTCHAR p
ENCODING 112
SWIDTH 481 0
DWIDTH 7 0
BBX 11 14 -2 -7
BITMAP
1F00
1F00
1B00
1B00
1B60
3FC0
3F80
5000
5000
5000
D000
F000
F000
6000
ENDCHAR
STARTCHAR q
ENCODING 113
SWIDTH 500 0
DWIDTH 7 0
BBX 9 14 0 -6
BITMAP
0400
1E00
3C00
6C00
4C00
CF80
7B00
7A00
1A00
1A00
1A00
1A00
1C00
0C00
ENDCHAR
STARTCHAR r
ENCODING 114
SWIDTH 455 0
DWIDTH 6 0
BBX 7 7 1 0
BITMAP
D8
F8
EA
EE
CC
C0
80
ENDCHAR
STARTCHAR s
ENCODING 115
SWIDTH 427 0
DWIDTH 6 0
BBX 8 7 0 0
BITMAP
10
30
30
79
CB
BE
3C
ENDCHAR
STARTCHAR t
ENCODING 116
SWIDTH 393 0
DWIDTH 6 0
BBX 7 13 0 0
BITMAP
0C
1C
34
34
28
38
FC
FC
60
60
62
3E
3C
ENDCHAR
STARTCHAR u
ENCODING 117
SWIDTH 462 0
DWIDTH 6 0
BBX 7 7 1 0
BITMAP
C8
D8
D8
98
B2
FE
DC
ENDCHAR
STARTCHAR v
ENCODING 118
SWIDTH 449 0
DWIDTH 6 0
BBX 7 7 1 0
BITMAP
98
98
9E
BE
F0
E0
C0
ENDCHAR
STARTCHAR w
ENCODING 119
SWIDTH 700 0
DWIDTH 10 0
BBX 11 7 1 0
BITMAP
9980
9B80
9BE0
BBC0
FE00
EE00
CC00
ENDCHAR
STARTCHAR x
ENCODING 120
SWIDTH 529 0
DWIDTH 7 0
BBX 9 7 0 0
BITMAP
3600
7F00
5A00
1800
D880
FF80
6F00
ENDCHAR
STARTCHAR y
ENCODING 121
SWIDTH 479 0
DWIDTH 7 0
BBX 8 14 0 -7
BITMAP
64
6C
6C
4C
5D
7E
6C
18
38
58
D0
B0
F0
E0
ENDCHAR
STARTCHAR z
ENCODING 122
SWIDTH 445 0
DWIDTH 6 0
BBX 7 7 1 0
BITMAP
FC
F8
70
C2
C2
FC
78
ENDCHAR
STARTCHAR braceleft
ENCODING 123
SWIDTH 490 0
DWIDTH 7 0
BBX 7 15 1 -1
BITMAP
0E
1E
10
30
30
30
F0
E0
30
30
20
60
60
38
3C
ENDCHAR
STARTCHAR bar
ENCODING 124
SWIDTH 326 0
DWIDTH 5 0
BBX 4 18 0 -4
BITMAP
10
10
30
30
30
30
30
30
20
20
60
60
60
60
60
40
40
C0
ENDCHAR
STARTCHAR braceright
ENCODING 125
SWIDTH 490 0
DWIDTH 7 0
BBX 8 15 -1 -1
BITMAP
38
3C
0C
0C
0C
0C
0E
0F
0C
18
18
18
18
78
F0
ENDCHAR
STARTCHAR asciitilde
ENCODING 126
SWIDTH 700 0
DWIDTH 10 0
BBX 8 4 1 3
BITMAP
21
73
DE
CE
ENDCHAR
STARTCHAR uni00A0
ENCODING 160
SWIDTH 265 0
DWIDTH 4 0
BBX 1 1 0 0
BITMAP
00
ENDCHAR
STARTCHAR exclamdown
ENCODING 161
SWIDTH 340 0
DWIDTH 5 0
BBX 4 13 0 -6
BITMAP
30
30
30
00
20
60
60
60
40
C0
C0
C0
80
ENDCHAR
STARTCHAR cent
ENCODING 162
SWIDTH 466 0
DWIDTH 7 0
BBX 5 11 1 -2
BITMAP
10
20
30
F8
F8
A8
A8
F8
70
20
40
ENDCHAR
STARTCHAR sterling
ENCODING 163
SWIDTH 525 0
DWIDTH 7 0
BBX 7 9 0 0
BITMAP
0C
3E
32
60
78
FC
60
7E
FE
ENDCHAR
STARTCHAR currency
ENCODING 164
SWIDTH 700 0
DWIDTH 10 0
BBX 6 7 2 1
BITMAP
B4
FC
CC
84
CC
FC
B4
ENDCHAR
STARTCHAR yen
ENCODING 165
SWIDTH 497 0
DWIDTH 7 0
BBX 8 9 0 0
BITMAP
C3
66
64
3C
38
7C
7C
30
30
ENDCHAR
STARTCHAR brokenbar
ENCODING 166
SWIDTH 326 0
DWIDTH 5 0
BBX 4 18 0 -4
BITMAP
10
10
30
30
30
30
30
30
00
00
20
60
60
60
60
40
40
C0
ENDCHAR
STARTCHAR section
ENCODING 167
SWIDTH 607 0
DWIDTH 9 0
BBX 7 13 1 0
BITMAP
3C
7E
66
66
38
5C
46
64
3C
CC
CC
FC
78
ENDCHAR
STARTCHAR dieresis
ENCODING 168
SWIDTH 600 0
DWIDTH 8 0
BBX 5 2 2 8
BITMAP
D8
D8
ENDCHAR
STARTCHAR copyright
ENCODING 169
SWIDTH 647 0
DWIDTH 9 0
BBX 8 9 1 5
BITMAP
3C
6E
5D
B5
A1
A5
5F
7E
3C
ENDCHAR
STARTCHAR ordfeminine
ENCODING 170
SWIDTH 393 0
DWIDTH 6 0
BBX 5 5 1 7
BITMAP
38
58
D8
D8
F8
ENDCHAR
STARTCHAR guillemotleft
ENCODING 171
SWIDTH 615 0
DWIDTH 9 0
BBX 8 6 0 1
BITMAP
13
77
EC
6C
77
13
ENDCHAR
STARTCHAR logicalnot
ENCODING 172
SWIDTH 700 0
DWIDTH 10 0
BBX 8 5 1 0
BITMAP
7E
FF
03
03
02
ENDCHAR
STARTCHAR uni00AD
ENCODING 173
SWIDTH 403 0
DWIDTH 6 0
BBX 4 2 1 3
BITMAP
F0
80
ENDCHAR
STARTCHAR registered
ENCODING 174
SWIDTH 647 0
DWIDTH 9 0
BBX 8 9 1 5
BITMAP
3C
7E
5D
95
99
99
67
7E
3C
ENDCHAR
STARTCHAR macron
ENCODING 175
SWIDTH 600 0
DWIDTH 8 0
BBX 5 2 2 8
BITMAP
F0
F8
ENDCHAR
STARTCHAR degree
ENCODING 176
SWIDTH 385 0
DWIDTH 5 0
BBX 5 5 1 8
BITMAP
70
70
D8
F0
70
ENDCHAR
STARTCHAR plusminus
ENCODING 177
SWIDTH 700 0
DWIDTH 10 0
BBX 7 9 1 0
BITMAP
08
08
7E
7E
18
18
10
7E
FE
ENDCHAR
STARTCHAR uni00B2
ENCODING 178
SWIDTH 450 0
DWIDTH 6 0
BBX 5 7 1 5
BITMAP
78
D8
D8
18
30
E0
F8
ENDCHAR
STARTCHAR uni00B3
ENCODING 179
SWIDTH 450 0
DWIDTH 6 0
BBX 5 7 1 5
BITMAP
78
C8
58
30
18
98
70
ENDCHAR
STARTCHAR acute
ENCODING 180
SWIDTH 600 0
DWIDTH 8 0
BBX 3 5 4 8
BITMAP
40
60
40
C0
80
ENDCHAR
STARTCHAR uni00B5
ENCODING 181
SWIDTH 462 0
DWIDTH 6 0
BBX 8 11 0 -4
BITMAP
64
6C
6C
4C
59
7F
EE
C0
C0
C0
C0
ENDCHAR
STARTCHAR paragraph
ENCODING 182
SWIDTH 739 0
DWIDTH 10 0
BBX 9 13 1 0
BITMAP
3F00
7F80
FD80
F980
7B00
3B00
1B00
1B00
1B00
1B00
3300
3600
3200
ENDCHAR
STARTCHAR periodcentered
ENCODING 183
SWIDTH 257 0
DWIDTH 4 0
BBX 2 3 1 2
BITMAP
C0
C0
C0
ENDCHAR
STARTCHAR cedilla
ENCODING 184
SWIDTH 600 0
DWIDTH 8 0
BBX 4 5 1 -4
BITMAP
60
70
30
F0
E0
ENDCHAR
STARTCHAR uni00B9
ENCODING 185
SWIDTH 450 0
DWIDTH 6 0
BBX 4 7 1 5
BITMAP
30
F0
30
30
30
30
30
ENDCHAR
STARTCHAR ordmasculine
ENCODING 186
SWIDTH 408 0
DWIDTH 6 0
BBX 5 5 1 7
BITMAP
70
D8
D8
D8
70
ENDCHAR
STARTCHAR guillemotright
ENCODING 187
SWIDTH 615 0
DWIDTH 9 0
BBX 7 6 1 1
BITMAP
98
CC
66
76
EC
98
ENDCHAR
STARTCHAR onequarter
ENCODING 188
SWIDTH 955 0
DWIDTH 13 0
BBX 12 12 1 0
BITMAP
3080
F180
3100
3300
3600
36C0
3CA0
0DA0
1920
11F0
0060
0060
ENDCHAR
STARTCHAR onehalf
ENCODING 189
SWIDTH 1024 0
DWIDTH 14 0
BBX 13 12 1 0
BITMAP
3080
F180
3100
3300
3600
3670
3C98
0C98
1830
1060
00C0
01F8
ENDCHAR
STARTCHAR threequarters
ENCODING 190
SWIDTH 1035 0
DWIDTH 14 0
BBX 13 12 1 0
BITMAP
7840
C8C0
5880
3180
1900
9B20
7678
06D0
0CD0
0CF8
0030
0030
ENDCHAR
STARTCHAR questiondown
ENCODING 191
SWIDTH 476 0
DWIDTH 7 0
BBX 7 13 -1 -6
BITMAP
0E
0E
0C
00
0C
08
18
30
60
64
C4
7C
78
ENDCHAR
STARTCHAR Agrave
ENCODING 192
SWIDTH 786 0
DWIDTH 11 0
BBX 12 17 1 0
BITMAP
0800
0C00
0E00
0300
07E0
1FE0
3800
6180
6180
C180
C180
C300
C300
C300
C730
7FE0
79C0
ENDCHAR
STARTCHAR Aacute
ENCODING 193
SWIDTH 786 0
DWIDTH 11 0
BBX 12 17 1 0
BITMAP
0020
0060
00C0
0100
07E0
1FE0
3800
6180
6180
C180
C180
C300
C300
C300
C730
7FE0
79C0
ENDCHAR
STARTCHAR Acircumflex
ENCODING 194
SWIDTH 786 0
DWIDTH 11 0
BBX 12 17 1 0
BITMAP
0180
0380
06C0
06C0
07E0
1FE0
3800
6180
6180
C180
C180
C300
C300
C300
C730
7FE0
79C0
ENDCHAR
STARTCHAR Atilde
ENCODING 195
SWIDTH 786 0
DWIDTH 11 0
BBX 12 16 1 0
BITMAP
0660
07C0
0CC0
07E0
1FE0
3800
6180
6180
C180
C180
C300
C300
C300
C730
7FE0
79C0
ENDCHAR
STARTCHAR Adieresis
ENCODING 196
SWIDTH 786 0
DWIDTH 11 0
BBX 12 15 1 0
BITMAP
06C0
06C0
07E0
1FE0
3800
6180
6180
C180
C180
C300
C300
C300
C730
7FE0
79C0
ENDCHAR
STARTCHAR Aring
ENCODING 197
SWIDTH 786 0
DWIDTH 11 0
BBX 12 18 1 0
BITMAP
0100
0380
02C0
0380
0380
07E0
1FE0
3800
6180
6180
C180
C180
C300
C300
C300
C730
7FE0
79C0
ENDCHAR
STARTCHAR AE
ENCODING 198
SWIDTH 1015 0
DWIDTH 14 0
BBX 15 13 1 0
BITMAP
0EFC
1EFC
38C0
6180
6180
C180
C1F8
C3F8
C300
C300
C782
7DFE
38F8
ENDCHAR
STARTCHAR Ccedilla
ENCODING 199
SWIDTH 686 0
DWIDTH 10 0
BBX 10 17 1 -4
BITMAP
0F00
3F00
7180
6180
C180
C000
C000
C000
C000
C000
6040
7FC0
1F80
1C00
0400
3C00
3800
ENDCHAR
STARTCHAR Egrave
ENCODING 200
SWIDTH 686 0
DWIDTH 10 0
BBX 11 17 0 0
BITMAP
1000
1800
0C00
0600
0F80
1FC0
30C0
30C0
30C0
1E00
3E00
7000
6000
E000
6020
7FE0
1F80
ENDCHAR
STARTCHAR Eacute
ENCODING 201
SWIDTH 686 0
DWIDTH 10 0
BBX 11 17 0 0
BITMAP
0040
00C0
01C0
0300
0F80
1FC0
30C0
30C0
30C0
1E00
3E00
7000
6000
E000
6020
7FE0
1F80
ENDCHAR
STARTCHAR Ecircumflex
ENCODING 202
SWIDTH 686 0
DWIDTH 10 0
BBX 11 17 0 0
BITMAP
0300
0780
0580
0C80
0F80
1FC0
30C0
30C0
30C0
1E00
3E00
7000
6000
E000
6020
7FE0
1F80
ENDCHAR
STARTCHAR Edieresis
ENCODING 203
SWIDTH 686 0
DWIDTH 10 0
BBX 11 15 0 0
BITMAP
0D80
0D80
0F80
1FC0
30C0
30C0
30C0
1E00
3E00
7000
6000
E000
6020
7FE0
1F80
ENDCHAR
STARTCHAR Igrave
ENCODING 204
SWIDTH 495 0
DWIDTH 7 0
BBX 8 17 0 0
BITMAP
40
60
30
08
7F
3E
18
18
18
18
18
18
10
30
30
7C
FC
ENDCHAR
STARTCHAR Iacute
ENCODING 205
SWIDTH 495 0
DWIDTH 7 0
BBX 9 17 0 0
BITMAP
0100
0380
0700
0C00
7F00
3E00
1800
1800
1800
1800
1800
1800
1000
3000
3000
7C00
FC00
ENDCHAR
STARTCHAR Icircumflex
ENCODING 206
SWIDTH 495 0
DWIDTH 7 0
BBX 8 17 0 0
BITMAP
0C
1E
1E
32
7F
3E
18
18
18
18
18
18
10
30
30
7C
FC
ENDCHAR
STARTCHAR Idieresis
ENCODING 207
SWIDTH 495 0
DWIDTH 7 0
BBX 8 15 0 0
BITMAP
1F
36
7F
3E
18
18
18
18
18
18
10
30
30
7C
FC
ENDCHAR
STARTCHAR Eth
ENCODING 208
SWIDTH 821 0
DWIDTH 12 0
BBX 11 13 0 0
BITMAP
0F00
1FC0
18E0
1860
3060
7E60
FE60
3060
3060
60C0
61C0
7F80
7E00
ENDCHAR
STARTCHAR Ntilde
ENCODING 209
SWIDTH 884 0
DWIDTH 12 0
BBX 14 16 0 0
BITMAP
0320
07E0
04C0
38E0
7BE0
DA30
9C30
1C60
1C60
1860
1860
1860
18C0
30C4
307C
3078
ENDCHAR
STARTCHAR Ograve
ENCODING 210
SWIDTH 816 0
DWIDTH 11 0
BBX 10 17 1 0
BITMAP
2000
3000
1800
0400
0F00
3F80
71C0
60C0
C0C0
C0C0
C0C0
C0C0
C0C0
C180
E180
7F00
3E00
ENDCHAR
STARTCHAR Oacute
ENCODING 211
SWIDTH 816 0
DWIDTH 11 0
BBX 10 17 1 0
BITMAP
0080
01C0
0380
0600
0F00
3F80
71C0
60C0
C0C0
C0C0
C0C0
C0C0
C0C0
C180
E180
7F00
3E00
ENDCHAR
STARTCHAR Ocircumflex
ENCODING 212
SWIDTH 816 0
DWIDTH 11 0
BBX 10 17 1 0
BITMAP
0600
0F00
0F00
1900
0F00
3F80
71C0
60C0
C0C0
C0C0
C0C0
C0C0
C0C0
C180
E180
7F00
3E00
ENDCHAR
STARTCHAR Otilde
ENCODING 213
SWIDTH 816 0
DWIDTH 11 0
BBX 10 16 1 0
BITMAP
0C80
1F80
1300
0F00
3F80
71C0
60C0
C0C0
C0C0
C0C0
C0C0
C0C0
C180
E180
7F00
3E00
ENDCHAR
STARTCHAR Odieresis
ENCODING 214
SWIDTH 816 0
DWIDTH 11 0
BBX 10 15 1 0
BITMAP
0F80
1B00
0F00
3F80
71C0
60C0
C0C0
C0C0
C0C0
C0C0
C0C0
C180
E180
7F00
3E00
ENDCHAR
STARTCHAR multiply
ENCODING 215
SWIDTH 700 0
DWIDTH 10 0
BBX 6 7 2 1
BITMAP
C4
EC
78
30
78
DC
8C
ENDCHAR
STARTCHAR Oslash
ENCODING 216
SWIDTH 816 0
DWIDTH 11 0
BBX 10 15 1 -1
BITMAP
0300
0F00
3F80
77C0
64C0
C4C0
C4C0
CCC0
CCC0
C8C0
C980
F980
7F00
3E00
3000
ENDCHAR
STARTCHAR Ugrave
ENCODING 217
SWIDTH 890 0
DWIDTH 12 0
BBX 14 17 0 0
BITMAP
0800
0C00
0600
0300
3830
7830
CC30
9860
1860
1860
1860
18E0
30E0
31E0
3164
3E7C
1C78
ENDCHAR
STARTCHAR Uacute
ENCODING 218
SWIDTH 890 0
DWIDTH 12 0
BBX 14 17 0 0
BITMAP
0020
0060
00C0
0180
3830
7830
CC30
9860
1860
1860
1860
18E0
30E0
31E0
3164
3E7C
1C78
ENDCHAR
STARTCHAR Ucircumflex
ENCODING 219
SWIDTH 890 0
DWIDTH 12 0
BBX 14 17 0 0
BITMAP
0180
0380
02C0
06C0
3830
7830
CC30
9860
1860
1860
1860
18E0
30E0
31E0
3164
3E7C
1C78
ENDCHAR
STARTCHAR Udieresis
ENCODING 220
SWIDTH 890 0
DWIDTH 12 0
BBX 14 15 0 0
BITMAP
06C0
06C0
3830
7830
CC30
9860
1860
1860
1860
18E0
30E0
31E0
3164
3E7C
1C78
ENDCHAR
STARTCHAR Yacute
ENCODING 221
SWIDTH 851 0
DWIDTH 12 0
BBX 13 22 0 -5
BITMAP
0020
0060
00E0
0180
3830
7830
CC30
9860
1860
1860
18E0
18E0
19E0
1F68
0E78
03C0
07C0
0CC0
08C0
1980
0F00
0600
ENDCHAR
STARTCHAR Thorn
ENCODING 222
SWIDTH 776 0
DWIDTH 11 0
BBX 10 16 1 -2
BITMAP
0C00
0C00
0C00
0F00
3F80
6CC0
D8C0
D8C0
9980
BF80
BE00
9800
9000
B000
F000
6000
ENDCHAR
STARTCHAR germandbls
ENCODING 223
SWIDTH 596 0
DWIDTH 8 0
BBX 9 15 1 -3
BITMAP
1C00
7E00
6600
C600
CC00
D800
D800
9E00
BF80
A600
BE00
9C00
8000
8000
8000
ENDCHAR
STARTCHAR agrave
ENCODING 224
SWIDTH 470 0
DWIDTH 7 0
BBX 8 13 0 0
BITMAP
20
30
30
10
08
00
18
3C
6C
4C
CD
7F
76
ENDCHAR
STARTCHAR aacute
ENCODING 225
SWIDTH 470 0
DWIDTH 7 0
BBX 8 13 0 0
BITMAP
02
06
04
0C
08
00
18
3C
6C
4C
CD
7F
76
ENDCHAR
STARTCHAR acircumflex
ENCODING 226
SWIDTH 470 0
DWIDTH 7 0
BBX 8 13 0 0
BITMAP
0C
1C
14
36
26
00
18
3C
6C
4C
CD
7F
76
ENDCHAR
STARTCHAR atilde
ENCODING 227
SWIDTH 470 0
DWIDTH 7 0
BBX 8 11 0 0
BITMAP
12
3B
6E
00
18
3C
6C
4C
CD
7F
76
ENDCHAR
STARTCHAR adieresis
ENCODING 228
SWIDTH 470 0
DWIDTH 7 0
BBX 8 10 0 0
BITMAP
36
36
00
18
3C
6C
4C
CD
7F
76
ENDCHAR
STARTCHAR aring
ENCODING 229
SWIDTH 470 0
DWIDTH 7 0
BBX 8 13 0 0
BITMAP
08
1C
14
1C
1C
00
18
3C
6C
4C
CD
7F
76
ENDCHAR
STARTCHAR ae
ENCODING 230
SWIDTH 653 0
DWIDTH 9 0
BBX 11 7 0 0
BITMAP
1B80
7F80
6C80
4F00
CE60
7FC0
7780
ENDCHAR
STARTCHAR ccedilla
ENCODING 231
SWIDTH 368 0
DWIDTH 5 0
BBX 7 11 0 -4
BITMAP
38
78
68
C8
C2
66
7C
38
18
78
70
ENDCHAR
STARTCHAR egrave
ENCODING 232
SWIDTH 393 0
DWIDTH 6 0
BBX 7 13 0 0
BITMAP
20
60
20
30
10
00
38
78
48
D8
62
7E
38
ENDCHAR
STARTCHAR eacute
ENCODING 233
SWIDTH 393 0
DWIDTH 6 0
BBX 7 13 0 0
BITMAP
04
0C
0C
08
10
00
38
78
48
D8
62
7E
38
ENDCHAR
STARTCHAR ecircumflex
ENCODING 234
SWIDTH 393 0
DWIDTH 6 0
BBX 7 13 0 0
BITMAP
18
18
3C
2C
64
00
38
78
48
D8
62
7E
38
ENDCHAR
STARTCHAR edieresis
ENCODING 235
SWIDTH 393 0
DWIDTH 6 0
BBX 7 10 0 0
BITMAP
6C
6C
00
38
78
48
D8
62
7E
38
ENDCHAR
STARTCHAR igrave
ENCODING 236
SWIDTH 246 0
DWIDTH 3 0
BBX 5 13 0 0
BITMAP
80
C0
C0
60
20
00
60
60
60
40
48
78
70
ENDCHAR
STARTCHAR iacute
ENCODING 237
SWIDTH 246 0
DWIDTH 3 0
BBX 4 13 1 0
BITMAP
10
30
20
60
40
00
C0
C0
C0
80
90
F0
E0
ENDCHAR
STARTCHAR icircumflex
ENCODING 238
SWIDTH 246 0
DWIDTH 3 0
BBX 5 13 0 0
BITMAP
30
70
50
D8
98
00
60
60
60
40
48
78
70
ENDCHAR
STARTCHAR idieresis
ENCODING 239
SWIDTH 246 0
DWIDTH 3 0
BBX 5 10 0 0
BITMAP
D8
D8
00
60
60
60
40
48
78
70
ENDCHAR
STARTCHAR eth
ENCODING 240
SWIDTH 451 0
DWIDTH 6 0
BBX 7 14 0 0
BITMAP
30
12
1E
3C
3C
0C
04
3C
7C
44
CC
4C
78
38
ENDCHAR
STARTCHAR ntilde
ENCODING 241
SWIDTH 496 0
DWIDTH 7 0
BBX 8 11 1 0
BITMAP
22
74
4C
00
D8
F8
E8
D8
DB
DE
9C
ENDCHAR
STARTCHAR ograve
ENCODING 242
SWIDTH 451 0
DWIDTH 6 0
BBX 8 13 0 0
BITMAP
20
60
20
30
10
00
38
7C
4F
CF
4C
78
38
ENDCHAR
STARTCHAR oacute
ENCODING 243
SWIDTH 451 0
DWIDTH 6 0
BBX 8 13 0 0
BITMAP
04
0C
0C
08
10
00
38
7C
4F
CF
4C
78
38
ENDCHAR
STARTCHAR ocircumflex
ENCODING 244
SWIDTH 451 0
DWIDTH 6 0
BBX 8 13 0 0
BITMAP
18
18
3C
2C
64
00
38
7C
4F
CF
4C
78
38
ENDCHAR
STARTCHAR otilde
ENCODING 245
SWIDTH 451 0
DWIDTH 6 0
BBX 8 11 0 0
BITMAP
22
7E
4C
00
38
7C
4F
CF
4C
78
38
ENDCHAR
STARTCHAR odieresis
ENCODING 246
SWIDTH 451 0
DWIDTH 6 0
BBX 8 10 0 0
BITMAP
6C
6C
00
38
7C
4F
CF
4C
78
38
ENDCHAR
STARTCHAR divide
ENCODING 247
SWIDTH 700 0
DWIDTH 10 0
BBX 8 8 1 0
BITMAP
18
18
00
FF
FE
00
38
10
ENDCHAR
STARTCHAR oslash
ENCODING 248
SWIDTH 459 0
DWIDTH 6 0
BBX 8 11 0 -2
BITMAP
08
08
38
7C
5D
D7
5C
7C
78
20
20
ENDCHAR
STARTCHAR ugrave
ENCODING 249
SWIDTH 462 0
DWIDTH 6 0
BBX 7 13 1 0
BITMAP
40
40
60
20
10
00
C8
D8
D8
98
B2
FE
DC
ENDCHAR
STARTCHAR uacute
ENCODING 250
SWIDTH 462 0
DWIDTH 6 0
BBX 7 13 1 0
BITMAP
08
0C
18
10
10
00
C8
D8
D8
98
B2
FE
DC
ENDCHAR
STARTCHAR ucircumflex
ENCODING 251
SWIDTH 462 0
DWIDTH 6 0
BBX 7 13 1 0
BITMAP
18
38
28
68
48
00
C8
D8
D8
98
B2
FE
DC
ENDCHAR
STARTCHAR udieresis
ENCODING 252
SWIDTH 462 0
DWIDTH 6 0
BBX 7 10 1 0
BITMAP
6C
6C
00
C8
D8
D8
98
B2
FE
DC
ENDCHAR
STARTCHAR yacute
ENCODING 253
SWIDTH 479 0
DWIDTH 7 0
BBX 8 20 0 -7
BITMAP
04
06
0C
08
08
00
64
6C
6C
4C
5D
7E
6C
18
38
58
D0
B0
F0
E0
ENDCHAR
STARTCHAR thorn
ENCODING 254
SWIDTH 508 0
DWIDTH 7 0
BBX 9 17 0 -5
BITMAP
3000
3000
2000
6000
6000
6C00
7E00
6600
6480
6C80
5F00
F600
C000
C000
C000
C000
C000
ENDCHAR
STARTCHAR ydieresis
ENCODING 255
SWIDTH 479 0
DWIDTH 7 0
BBX 8 17 0 -7
BITMAP
36
36
00
64
6C
6C
4C
5D
7E
6C
18
38
58
D0
B0
F0
E0
ENDCHAR
STARTCHAR Amacron
ENCODING 256
SWIDTH 786 0
DWIDTH 11 0
BBX 12 15 1 0
BITMAP
0380
07C0
07E0
1FE0
3800
6180
6180
C180
C180
C300
C300
C300
C730
7FE0
79C0
ENDCHAR
STARTCHAR amacron
ENCODING 257
SWIDTH 470 0
DWIDTH 7 0
BBX 8 10 0 0
BITMAP
3C
3E
00
18
3C
6C
4C
CD
7F
76
ENDCHAR
STARTCHAR Abreve
ENCODING 258
SWIDTH 786 0
DWIDTH 11 0
BBX 12 16 1 0
BITMAP
0460
07C0
0380
07E0
1FE0
3800
6180
6180
C180
C180
C300
C300
C300
C730
7FE0
79C0
ENDCHAR
STARTCHAR abreve
ENCODING 259
SWIDTH 470 0
DWIDTH 7 0
BBX 8 12 0 0
BITMAP
22
22
3E
1C
00
18
3C
6C
4C
CD
7F
76
ENDCHAR
STARTCHAR Aogonek
ENCODING 260
SWIDTH 786 0
DWIDTH 11 0
BBX 12 16 1 -3
BITMAP
07E0
1FE0
3080
6180
6180
C180
C180
C300
C300
C300
C710
7FE0
79C0
0180
0100
01E0
ENDCHAR
STARTCHAR aogonek
ENCODING 261
SWIDTH 470 0
DWIDTH 7 0
BBX 8 10 0 -3
BITMAP
18
3C
6C
4C
CD
7F
76
08
18
0E
ENDCHAR
STARTCHAR Cacute
ENCODING 262
SWIDTH 686 0
DWIDTH 10 0
BBX 10 17 1 0
BITMAP
0080
0180
0380
0600
0F00
3F00
7180
6180
C180
C000
C000
C000
C000
C000
6040
7FC0
1F80
ENDCHAR
STARTCHAR cacute
ENCODING 263
SWIDTH 368 0
DWIDTH 5 0
BBX 7 13 0 0
BITMAP
04
0C
0C
08
10
00
38
78
48
C0
C2
7C
38
ENDCHAR
STARTCHAR Ccircumflex
ENCODING 264
SWIDTH 686 0
DWIDTH 10 0
BBX 10 17 1 0
BITMAP
0600
0F00
0F00
1900
0F00
3F00
7180
6180
C180
C000
C000
C000
C000
C000
6040
7FC0
1F80
ENDCHAR
STARTCHAR ccircumflex
ENCODING 265
SWIDTH 368 0
DWIDTH 5 0
BBX 7 13 0 0
BITMAP
18
18
3C
2C
64
00
38
78
48
C0
C2
7C
38
ENDCHAR
STARTCHAR Cdotaccent
ENCODING 266
SWIDTH 686 0
DWIDTH 10 0
BBX 10 15 1 0
BITMAP
0600
0600
0F00
3F00
7180
6180
C180
C000
C000
C000
C000
C000
6040
7FC0
1F80
ENDCHAR
STARTCHAR cdotaccent
ENCODING 267
SWIDTH 368 0
DWIDTH 5 0
BBX 7 10 0 0
BITMAP
18
18
00
38
78
48
C0
C2
7C
38
ENDCHAR
STARTCHAR Ccaron
ENCODING 268
SWIDTH 686 0
DWIDTH 10 0
BBX 10 17 1 0
BITMAP
0900
0980
0F00
0600
0F00
3F00
7180
6180
C180
C000
C000
C000
C000
C000
6040
7FC0
1F80
ENDCHAR
STARTCHAR ccaron
ENCODING 269
SWIDTH 368 0
DWIDTH 5 0
BBX 7 13 0 0
BITMAP
26
34
3C
38
18
00
38
78
48
C0
C2
7C
38
ENDCHAR
STARTCHAR Dcaron
ENCODING 270
SWIDTH 836 0
DWIDTH 12 0
BBX 10 17 1 0
BITMAP
1100
1B00
0A00
0C00
3F00
FF80
81C0
30C0
30C0
60C0
60C0
60C0
60C0
61C0
6380
7F00
7C00
ENDCHAR
STARTCHAR dcaron
ENCODING 271
SWIDTH 470 0
DWIDTH 7 0
BBX 9 13 0 0
BITMAP
0680
0680
0680
0600
0600
0400
1C00
3C00
6C00
4C00
CD00
7F00
7600
ENDCHAR
STARTCHAR Dcroat
ENCODING 272
SWIDTH 821 0
DWIDTH 12 0
BBX 11 13 0 0
BITMAP
0F00
1FC0
18E0
1860
3060
7E60
FE60
3060
3060
60C0
61C0
7F80
7E00
ENDCHAR
STARTCHAR dcroat
ENCODING 273
SWIDTH 470 0
DWIDTH 7 0
BBX 8 13 0 0
BITMAP
06
06
06
3F
3E
04
1C
3C
6C
4C
CD
7F
76
ENDCHAR
STARTCHAR Emacron
ENCODING 274
SWIDTH 686 0
DWIDTH 10 0
BBX 11 15 0 0
BITMAP
0780
0F80
0F80
1FC0
30C0
30C0
30C0
1E00
3E00
7000
6000
E000
6020
7FE0
1F80
ENDCHAR
STARTCHAR emacron
ENCODING 275
SWIDTH 393 0
DWIDTH 6 0
BBX 7 10 0 0
BITMAP
3C
7C
00
38
78
48
D8
62
7E
38
ENDCHAR
STARTCHAR Ebreve
ENCODING 276
SWIDTH 686 0
DWIDTH 10 0
BBX 11 16 0 0
BITMAP
08C0
0F80
0780
0F80
1FC0
30C0
30C0
30C0
1E00
3E00
7000
6000
E000
6020
7FE0
1F80
ENDCHAR
STARTCHAR ebreve
ENCODING 277
SWIDTH 393 0
DWIDTH 6 0
BBX 7 12 0 0
BITMAP
42
66
7C
3C
00
38
78
48
D8
62
7E
38
ENDCHAR
STARTCHAR Edotaccent
ENCODING 278
SWIDTH 686 0
DWIDTH 10 0
BBX 11 15 0 0
BITMAP
0700
0300
0F80
1FC0
30C0
30C0
30C0
1E00
3E00
7000
6000
E000
6020
7FE0
1F80
ENDCHAR
STARTCHAR edotaccent
ENCODING 279
SWIDTH 393 0
DWIDTH 6 0
BBX 7 10 0 0
BITMAP
18
18
00
38
78
48
D8
62
7E
38
ENDCHAR
STARTCHAR Eogonek
ENCODING 280
SWIDTH 686 0
DWIDTH 10 0
BBX 11 17 0 -4
BITMAP
0F80
1FC0
30C0
30C0
30C0
1E00
3E00
7000
6000
E000
6020
7FE0
3FC0
0400
0400
0700
0700
ENDCHAR
STARTCHAR eogonek
ENCODING 281
SWIDTH 393 0
DWIDTH 6 0
BBX 7 11 0 -4
BITMAP
38
78
48
58
F2
66
7C
10
30
30
1C
ENDCHAR
STARTCHAR Ecaron
ENCODING 282
SWIDTH 686 0
DWIDTH 10 0
BBX 11 17 0 0
BITMAP
0480
0480
0700
0300
0F80
1FC0
30C0
30C0
30C0
1E00
3E00
7000
6000
E000
6020
7FE0
1F80
ENDCHAR
STARTCHAR ecaron
ENCODING 283
SWIDTH 393 0
DWIDTH 6 0
BBX 7 13 0 0
BITMAP
26
34
3C
18
18
00
38
78
48
D8
62
7E
38
ENDCHAR
STARTCHAR Gcircumflex
ENCODING 284
SWIDTH 811 0
DWIDTH 11 0
BBX 12 24 1 -7
BITMAP
0600
0700
0D00
0900
0F00
3F80
7180
6180
C180
C000
C000
C380
C7C0
C080
60B0
7FE0
1FC0
0180
0380
0500
0900
0B00
0E00
0E00
ENDCHAR
STARTCHAR gcircumflex
ENCODING 285
SWIDTH 479 0
DWIDTH 7 0
BBX 8 20 0 -7
BITMAP
0C
1C
14
36
26
00
18
3C
6C
4C
CF
7F
7C
18
38
58
D0
90
F0
E0
ENDCHAR
STARTCHAR Gbreve
ENCODING 286
SWIDTH 811 0
DWIDTH 11 0
BBX 12 23 1 -7
BITMAP
1880
1F80
0F00
0F00
3F80
7180
6180
C180
C000
C000
C380
C7C0
C080
60B0
7FE0
1FC0
0180
0380
0500
0900
0B00
0E00
0E00
ENDCHAR
STARTCHAR gbreve
ENCODING 287
SWIDTH 479 0
DWIDTH 7 0
BBX 8 19 0 -7
BITMAP
22
22
3E
1C
00
18
3C
6C
4C
CF
7F
7C
18
38
58
D0
90
F0
E0
ENDCHAR
STARTCHAR Gdotaccent
ENCODING 288
SWIDTH 811 0
DWIDTH 11 0
BBX 12 22 1 -7
BITMAP
0600
0600
0F00
3F80
7180
6180
C180
C000
C000
C380
C7C0
C080
60B0
7FE0
1FC0
0180
0380
0500
0900
0B00
0E00
0E00
ENDCHAR
STARTCHAR gdotaccent
ENCODING 289
SWIDTH 479 0
DWIDTH 7 0
BBX 8 17 0 -7
BITMAP
1C
18
00
18
3C
6C
4C
CF
7F
7C
18
38
58
D0
90
F0
E0
ENDCHAR
STARTCHAR uni0122
ENCODING 290
SWIDTH 811 0
DWIDTH 11 0
BBX 12 20 1 -7
BITMAP
0F00
3F80
7180
6180
C180
C000
C000
C380
C7C0
C080
60B0
7FE0
1FC0
0180
3380
2500
2900
0B00
0E00
0E00
ENDCHAR
STARTCHAR uni0123
ENCODING 291
SWIDTH 479 0
DWIDTH 7 0
BBX 8 19 0 -7
BITMAP
0C
0C
08
08
00
18
3C
6C
4C
CF
7F
7C
18
38
58
D0
90
F0
E0
ENDCHAR
STARTCHAR Hcircumflex
ENCODING 292
SWIDTH 873 0
DWIDTH 12 0
BBX 14 17 0 0
BITMAP
0180
0380
06C0
06D0
3838
7868
8868
8848
18D8
18F0
3FE0
7FC0
18C0
18C0
30C4
30FC
3070
ENDCHAR
STARTCHAR hcircumflex
ENCODING 293
SWIDTH 502 0
DWIDTH 7 0
BBX 8 19 1 0
BITMAP
18
3C
2C
64
00
38
38
68
48
D8
D0
E0
F8
FC
A8
E8
D9
DE
8C
ENDCHAR
STARTCHAR Hbar
ENCODING 294
SWIDTH 856 0
DWIDTH 12 0
BBX 11 13 1 0
BITMAP
30C0
30C0
7FE0
FFE0
60C0
60C0
FFE0
FFC0
6180
6180
6180
C180
C180
ENDCHAR
STARTCHAR hbar
ENCODING 295
SWIDTH 502 0
DWIDTH 7 0
BBX 8 13 1 0
BITMAP
60
60
60
F8
78
C0
D8
FC
E8
E8
D9
DE
CC
ENDCHAR
STARTCHAR Itilde
ENCODING 296
SWIDTH 495 0
DWIDTH 7 0
BBX 8 16 0 0
BITMAP
19
3F
26
7F
3E
18
18
18
18
18
18
10
30
30
7C
FC
ENDCHAR
STARTCHAR itilde
ENCODING 297
SWIDTH 246 0
DWIDTH 3 0
BBX 7 11 -1 0
BITMAP
24
76
CC
00
30
30
30
20
24
3C
38
ENDCHAR
STARTCHAR Imacron
ENCODING 298
SWIDTH 495 0
DWIDTH 7 0
BBX 8 15 0 0
BITMAP
1E
1E
7F
3E
18
18
18
18
18
18
10
30
30
7C
FC
ENDCHAR
STARTCHAR imacron
ENCODING 299
SWIDTH 246 0
DWIDTH 3 0
BBX 5 10 0 0
BITMAP
F0
F8
00
60
60
60
40
48
78
70
ENDCHAR
STARTCHAR Ibreve
ENCODING 300
SWIDTH 495 0
DWIDTH 7 0
BBX 8 16 0 0
BITMAP
31
3F
1E
7F
3E
18
18
18
18
18
18
10
30
30
7C
FC
ENDCHAR
STARTCHAR ibreve
ENCODING 301
SWIDTH 246 0
DWIDTH 3 0
BBX 5 12 0 0
BITMAP
88
88
F8
70
00
60
60
60
40
48
78
70
ENDCHAR
STARTCHAR Iogonek
ENCODING 302
SWIDTH 495 0
DWIDTH 7 0
BBX 8 17 0 -4
BITMAP
7F
3E
18
18
18
18
18
18
10
30
30
7C
FC
20
60
78
38
ENDCHAR
STARTCHAR iogonek
ENCODING 303
SWIDTH 246 0
DWIDTH 3 0
BBX 5 13 0 -3
BITMAP
70
70
00
60
60
60
48
48
78
60
40
C0
70
ENDCHAR
STARTCHAR Idotaccent
ENCODING 304
SWIDTH 495 0
DWIDTH 7 0
BBX 8 15 0 0
BITMAP
0C
0C
7F
3E
18
18
18
18
18
18
10
30
30
7C
FC
ENDCHAR
STARTCHAR dotlessi
ENCODING 305
SWIDTH 246 0
DWIDTH 3 0
BBX 4 7 1 0
BITMAP
C0
C0
C0
80
90
F0
E0
ENDCHAR
STARTCHAR Jcircumflex
ENCODING 308
SWIDTH 743 0
DWIDTH 10 0
BBX 10 18 1 -1
BITMAP
0600
0E00
1B00
1300
3F80
7FC0
C180
C180
C180
0180
0700
1F00
3B00
2300
6600
6600
7C00
3800
ENDCHAR
STARTCHAR jcircumflex
ENCODING 309
SWIDTH 254 0
DWIDTH 4 0
BBX 8 20 -3 -7
BITMAP
06
0E
0A
1B
13
00
0C
0C
0C
0C
0B
0E
0C
18
38
58
D0
B0
E0
E0
ENDCHAR
STARTCHAR uni0136
ENCODING 310
SWIDTH 937 0
DWIDTH 13 0
BBX 15 17 0 -4
BITMAP
1F08
3F18
6318
6618
6630
6660
0FC0
0F80
06C0
06E0
CC62
7C7C
7838
0000
0300
0300
0200
ENDCHAR
STARTCHAR uni0137
ENCODING 311
SWIDTH 525 0
DWIDTH 7 0
BBX 8 19 1 -5
BITMAP
38
38
68
48
D0
D0
E0
FC
FC
AC
DD
D1
DF
CE
00
60
60
60
40
ENDCHAR
STARTCHAR kgreenlandic
ENCODING 312
SWIDTH 465 0
DWIDTH 7 0
BBX 7 7 1 0
BITMAP
DC
FC
AC
E0
E2
FE
9C
ENDCHAR
STARTCHAR Lacute
ENCODING 313
SWIDTH 673 0
DWIDTH 9 0
BBX 12 17 -1 0
BITMAP
0020
0070
00E0
0080
03C0
07E0
0C60
0C60
1860
1800
1800
1800
1800
1800
7C10
FFF0
73E0
ENDCHAR
STARTCHAR lacute
ENCODING 314
SWIDTH 326 0
DWIDTH 5 0
BBX 7 19 1 0
BITMAP
02
06
0E
18
00
38
38
68
48
D8
D0
D0
F0
E0
E0
C0
C8
F8
70
ENDCHAR
STARTCHAR uni013B
ENCODING 315
SWIDTH 673 0
DWIDTH 9 0
BBX 12 17 -1 -4
BITMAP
03C0
07E0
0C60
0C60
1860
1800
1800
1800
1800
1800
7C10
FFF0
73E0
0000
0400
0400
0400
ENDCHAR
STARTCHAR uni013C
ENCODING 316
SWIDTH 326 0
DWIDTH 5 0
BBX 5 19 1 -5
BITMAP
38
38
68
48
D8
D0
D0
F0
E0
E0
C0
C8
F8
70
00
40
40
40
40
ENDCHAR
STARTCHAR Lcaron
ENCODING 317
SWIDTH 673 0
DWIDTH 9 0
BBX 14 13 -1 0
BITMAP
03C0
07E0
0C6C
0C68
1868
1800
1800
1800
1800
1800
7C10
FFF0
73E0
ENDCHAR
STARTCHAR lcaron
ENCODING 318
SWIDTH 237 0
DWIDTH 3 0
BBX 5 13 1 0
BITMAP
78
78
78
40
C0
C0
C0
C0
C0
80
90
F0
E0
ENDCHAR
STARTCHAR Ldot
ENCODING 319
SWIDTH 673 0
DWIDTH 9 0
BBX 12 13 -1 0
BITMAP
03C0
07E0
0C60
0C60
1860
1800
1980
1B80
1800
1800
7C10
FFF0
73E0
ENDCHAR
STARTCHAR ldot
ENCODING 320
SWIDTH 363 0
DWIDTH 5 0
BBX 6 14 1 0
BITMAP
20
60
60
60
60
C0
D8
F8
C0
C0
80
C4
F8
70
ENDCHAR
STARTCHAR Lslash
ENCODING 321
SWIDTH 673 0
DWIDTH 9 0
BBX 12 15 -1 0
BITMAP
03E0
0FF0
03C0
07E0
0C60
0C60
1860
1800
1800
1800
1800
1800
7C10
FFF0
73E0
ENDCHAR
STARTCHAR lslash
ENCODING 322
SWIDTH 326 0
DWIDTH 5 0
BBX 7 15 1 0
BITMAP
3E
7E
38
78
68
48
D8
D0
D0
E0
E0
C0
C8
F8
70
ENDCHAR
STARTCHAR Nacute
ENCODING 323
SWIDTH 884 0
DWIDTH 12 0
BBX 14 17 0 0
BITMAP
0020
0060
00E0
0180
38E0
7BE0
DA30
9C30
1C60
1C60
1860
1860
1860
18C0
30C4
307C
3078
ENDCHAR
STARTCHAR nacute
ENCODING 324
SWIDTH 496 0
DWIDTH 7 0
BBX 8 13 1 0
BITMAP
04
0C
0C
18
10
00
D8
F8
E8
D8
DB
DE
9C
ENDCHAR
STARTCHAR uni0145
ENCODING 325
SWIDTH 884 0
DWIDTH 12 0
BBX 14 17 0 -4
BITMAP
38E0
7BE0
DA30
9C30
1C60
1C60
1860
1860
1860
18C0
30C4
307C
3078
0000
0600
0600
0400
ENDCHAR
STARTCHAR uni0146
ENCODING 326
SWIDTH 496 0
DWIDTH 7 0
BBX 8 12 1 -5
BITMAP
D8
F8
E8
D8
DB
DE
9C
00
60
60
60
40
ENDCHAR
STARTCHAR Ncaron
ENCODING 327
SWIDTH 884 0
DWIDTH 12 0
BBX 14 17 0 0
BITMAP
0240
0260
03C0
0180
38E0
7BE0
DA30
9C30
1C60
1C60
1860
1860
1860
18C0
30C4
307C
3078
ENDCHAR
STARTCHAR ncaron
ENCODING 328
SWIDTH 496 0
DWIDTH 7 0
BBX 8 13 1 0
BITMAP
24
2C
28
38
10
00
D8
F8
E8
D8
DB
DE
9C
ENDCHAR
STARTCHAR napostrophe
ENCODING 329
SWIDTH 496 0
DWIDTH 7 0
BBX 9 12 0 0
BITMAP
C000
C000
8000
8000
0000
6C00
7C00
7400
6C00
6D80
6F00
4E00
ENDCHAR
STARTCHAR Eng
ENCODING 330
SWIDTH 884 0
DWIDTH 12 0
BBX 14 18 0 -5
BITMAP
38E0
7BE0
DA30
9C60
1C60
1C60
1860
1860
1860
18C0
30C4
30FC
30F8
0180
0180
3180
1F00
0E00
ENDCHAR
STARTCHAR eng
ENCODING 331
SWIDTH 495 0
DWIDTH 7 0
BBX 9 12 0 -5
BITMAP
6C00
7C00
7400
6C00
6D80
6F00
4E00
0800
1800
5800
D000
6000
ENDCHAR
STARTCHAR Omacron
ENCODING 332
SWIDTH 816 0
DWIDTH 11 0
BBX 10 15 1 0
BITMAP
0F00
0F00
0F00
3F80
71C0
60C0
C0C0
C0C0
C0C0
C0C0
C0C0
C180
E180
7F00
3E00
ENDCHAR
STARTCHAR omacron
ENCODING 333
SWIDTH 451 0
DWIDTH 6 0
BBX 8 10 0 0
BITMAP
3C
7C
00
38
7C
4F
CF
4C
78
38
ENDCHAR
STARTCHAR Obreve
ENCODING 334
SWIDTH 816 0
DWIDTH 11 0
BBX 10 16 1 0
BITMAP
1880
1F80
0F00
0F00
3F80
71C0
60C0
C0C0
C0C0
C0C0
C0C0
C0C0
C180
E180
7F00
3E00
ENDCHAR
STARTCHAR obreve
ENCODING 335
SWIDTH 451 0
DWIDTH 6 0
BBX 8 12 0 0
BITMAP
42
66
7C
38
00
38
7C
4F
CF
4C
78
38
ENDCHAR
STARTCHAR Ohungarumlaut
ENCODING 336
SWIDTH 816 0
DWIDTH 11 0
BBX 10 17 1 0
BITMAP
0500
0580
0D00
0900
0F00
3F80
71C0
60C0
C0C0
C0C0
C0C0
C0C0
C0C0
C180
E180
7F00
3E00
ENDCHAR
STARTCHAR ohungarumlaut
ENCODING 337
SWIDTH 451 0
DWIDTH 6 0
BBX 8 13 0 0
BITMAP
12
1E
36
34
2C
00
38
7C
4F
CF
4C
78
38
ENDCHAR
STARTCHAR OE
ENCODING 338
SWIDTH 1124 0
DWIDTH 16 0
BBX 17 13 1 0
BITMAP
0F3F00
3FFE00
71E000
60E000
C0E000
C0E000
C0FE00
C0FC00
C0C000
C1C000
E1C180
7F7F00
3C3E00
ENDCHAR
STARTCHAR oe
ENCODING 339
SWIDTH 668 0
DWIDTH 9 0
BBX 11 7 0 0
BITMAP
3B80
7F80
4C80
CD80
4E20
7FE0
3380
ENDCHAR
STARTCHAR Racute
ENCODING 340
SWIDTH 880 0
DWIDTH 12 0
BBX 13 17 1 0
BITMAP
0040
00C0
0380
0200
0F80
3FC0
60C0
4CC0
CCC0
CCC0
9F80
BE00
9B00
9980
D988
78F8
70F0
ENDCHAR
STARTCHAR racute
ENCODING 341
SWIDTH 455 0
DWIDTH 6 0
BBX 7 13 1 0
BITMAP
08
0C
18
10
10
00
D8
F8
EA
EE
CC
C0
80
ENDCHAR
STARTCHAR uni0156
ENCODING 342
SWIDTH 880 0
DWIDTH 12 0
BBX 13 17 1 -4
BITMAP
0F80
3FC0
60C0
4CC0
CCC0
CCC0
9F80
BE00
9B00
9980
D988
78F8
70F0
0000
0600
0600
0400
ENDCHAR
STARTCHAR uni0157
ENCODING 343
SWIDTH 455 0
DWIDTH 6 0
BBX 7 12 1 -5
BITMAP
D8
F8
EA
EE
CC
C0
80
00
80
80
80
80
ENDCHAR
STARTCHAR Rcaron
ENCODING 344
SWIDTH 880 0
DWIDTH 12 0
BBX 13 17 1 0
BITMAP
0880
0D80
0500
0600
0F80
3FC0
60C0
4CC0
CCC0
CCC0
9F80
BE00
9B00
9980
D988
78F8
70F0
ENDCHAR
STARTCHAR rcaron
ENCODING 345
SWIDTH 455 0
DWIDTH 6 0
BBX 7 13 1 0
BITMAP
64
6C
28
38
30
00
D8
F8
EA
EE
CC
C0
80
ENDCHAR
STARTCHAR Sacute
ENCODING 346
SWIDTH 693 0
DWIDTH 10 0
BBX 10 17 0 0
BITMAP
0080
01C0
0380
0200
1F00
3F80
30C0
60C0
3080
3800
1E00
0780
4180
C180
4180
7F00
3E00
ENDCHAR
STARTCHAR sacute
ENCODING 347
SWIDTH 427 0
DWIDTH 6 0
BBX 8 13 0 0
BITMAP
04
0C
0C
08
10
00
10
30
30
79
CB
BE
3C
ENDCHAR
STARTCHAR Scircumflex
ENCODING 348
SWIDTH 693 0
DWIDTH 10 0
BBX 10 17 0 0
BITMAP
0600
0700
0D00
0900
1F00
3F80
30C0
60C0
3080
3800
1E00
0780
4180
C180
4180
7F00
3E00
ENDCHAR
STARTCHAR scircumflex
ENCODING 349
SWIDTH 427 0
DWIDTH 6 0
BBX 8 13 0 0
BITMAP
18
18
3C
2C
64
00
10
30
30
79
CB
BE
3C
ENDCHAR
STARTCHAR Scedilla
ENCODING 350
SWIDTH 693 0
DWIDTH 10 0
BBX 10 17 0 -4
BITMAP
1F00
3F80
30C0
60C0
3080
3C00
1F00
0780
4180
C180
4180
7F00
1C00
0400
0400
3C00
1000
ENDCHAR
STARTCHAR scedilla
ENCODING 351
SWIDTH 427 0
DWIDTH 6 0
BBX 8 11 0 -4
BITMAP
10
30
30
78
59
CB
BE
38
18
18
70
ENDCHAR
STARTCHAR Scaron
ENCODING 352
SWIDTH 693 0
DWIDTH 10 0
BBX 10 17 0 0
BITMAP
0880
0D80
0700
0600
1F00
3F80
30C0
60C0
3080
3800
1E00
0780
4180
C180
4180
7F00
3E00
ENDCHAR
STARTCHAR scaron
ENCODING 353
SWIDTH 427 0
DWIDTH 6 0
BBX 8 13 0 0
BITMAP
26
34
3C
18
18
00
10
30
30
79
CB
BE
3C
ENDCHAR
STARTCHAR uni0162
ENCODING 354
SWIDTH 697 0
DWIDTH 10 0
BBX 13 17 0 -4
BITMAP
1FF8
7FF0
4300
C600
4600
0600
0600
0600
0600
0C00
0C00
0C00
1C00
0600
0600
1C00
1800
ENDCHAR
STARTCHAR uni0163
ENCODING 355
SWIDTH 393 0
DWIDTH 6 0
BBX 7 17 0 -4
BITMAP
0C
1C
34
34
28
38
FC
FC
60
60
62
36
3C
38
08
78
70
ENDCHAR
STARTCHAR Tcaron
ENCODING 356
SWIDTH 697 0
DWIDTH 10 0
BBX 13 17 0 0
BITMAP
0440
06C0
0380
0300
1FF8
7FF0
4300
C600
4600
0600
0600
0600
0600
0E00
0C00
0C00
0C00
ENDCHAR
STARTCHAR tcaron
ENCODING 357
SWIDTH 343 0
DWIDTH 5 0
BBX 7 13 0 0
BITMAP
06
14
34
30
30
7C
F8
60
60
60
66
7C
38
ENDCHAR
STARTCHAR Tbar
ENCODING 358
SWIDTH 697 0
DWIDTH 10 0
BBX 13 13 0 0
BITMAP
1FF8
7FF0
4300
C600
4600
4600
1F80
1F80
0600
0600
0C00
0C00
0C00
ENDCHAR
STARTCHAR tbar
ENCODING 359
SWIDTH 343 0
DWIDTH 5 0
BBX 7 12 0 0
BITMAP
10
30
30
30
7C
F8
60
F8
F0
66
7C
38
ENDCHAR
STARTCHAR Utilde
ENCODING 360
SWIDTH 890 0
DWIDTH 12 0
BBX 14 16 0 0
BITMAP
0320
07E0
04C0
3830
7830
CC30
9860
1860
1860
1860
18E0
30E0
31E0
3164
3E7C
1C78
ENDCHAR
STARTCHAR utilde
ENCODING 361
SWIDTH 462 0
DWIDTH 6 0
BBX 7 11 1 0
BITMAP
24
74
DC
00
C8
D8
D8
98
B2
FE
DC
ENDCHAR
STARTCHAR Umacron
ENCODING 362
SWIDTH 890 0
DWIDTH 12 0
BBX 14 15 0 0
BITMAP
03C0
07C0
3830
7830
CC30
9860
1860
1860
1860
18E0
30E0
31E0
3164
3E7C
1C78
ENDCHAR
STARTCHAR umacron
ENCODING 363
SWIDTH 462 0
DWIDTH 6 0
BBX 7 10 1 0
BITMAP
78
78
00
C8
D8
D8
98
B2
FE
DC
ENDCHAR
STARTCHAR Ubreve
ENCODING 364
SWIDTH 890 0
DWIDTH 12 0
BBX 14 16 0 0
BITMAP
0460
07C0
0380
3830
7830
CC30
9860
1860
1860
1860
18E0
30E0
31E0
3164
3E7C
1C78
ENDCHAR
STARTCHAR ubreve
ENCODING 365
SWIDTH 462 0
DWIDTH 6 0
BBX 7 12 1 0
BITMAP
44
C4
7C
38
00
C8
D8
D8
98
B2
FE
DC
ENDCHAR
STARTCHAR Uring
ENCODING 366
SWIDTH 890 0
DWIDTH 12 0
BBX 14 18 0 0
BITMAP
0180
03C0
02C0
03C0
0180
3830
7830
CC30
9860
1860
1860
1860
18E0
30E0
31E0
3164
3E7C
1C78
ENDCHAR
STARTCHAR uring
ENCODING 367
SWIDTH 462 0
DWIDTH 6 0
BBX 7 13 1 0
BITMAP
10
38
68
38
38
00
C8
D8
D8
98
B2
FE
DC
ENDCHAR
STARTCHAR Uhungarumlaut
ENCODING 368
SWIDTH 890 0
DWIDTH 12 0
BBX 14 17 0 0
BITMAP
0140
0360
0340
02C0
3830
7830
CC30
9860
1860
1860
1860
18E0
30E0
31E0
3164
3E7C
1C78
ENDCHAR
STARTCHAR uhungarumlaut
ENCODING 369
SWIDTH 462 0
DWIDTH 6 0
BBX 7 13 1 0
BITMAP
14
36
3C
2C
48
00
C8
D8
D8
98
B2
FE
DC
ENDCHAR
STARTCHAR Uogonek
ENCODING 370
SWIDTH 890 0
DWIDTH 12 0
BBX 14 16 0 -3
BITMAP
3830
7830
CC30
9860
1860
1860
1860
18E0
38E0
30E0
3164
3E7C
1C70
0020
0020
0038
ENDCHAR
STARTCHAR uogonek
ENCODING 371
SWIDTH 462 0
DWIDTH 6 0
BBX 7 10 1 -3
BITMAP
C8
D8
D8
98
B2
FE
D8
10
30
1C
ENDCHAR
STARTCHAR Wcircumflex
ENCODING 372
SWIDTH 1217 0
DWIDTH 17 0
BBX 17 17 2 0
BITMAP
018000
01C000
034000
064000
C18E00
C19E00
C31200
C31200
C31200
C31E00
C70F80
C70F80
C50C00
CD1800
C99800
79F000
70E000
ENDCHAR
STARTCHAR wcircumflex
ENCODING 373
SWIDTH 700 0
DWIDTH 10 0
BBX 11 13 1 0
BITMAP
0C00
1C00
1400
3600
2600
0000
9980
9B80
9BE0
BBC0
FE00
EE00
CC00
ENDCHAR
STARTCHAR Ycircumflex
ENCODING 374
SWIDTH 851 0
DWIDTH 12 0
BBX 13 22 0 -5
BITMAP
0180
03C0
03C0
0640
3830
7830
CC30
9860
1860
1860
18E0
18E0
19E0
1F68
0E78
03C0
07C0
0CC0
08C0
1980
0F00
0600
ENDCHAR
STARTCHAR ycircumflex
ENCODING 375
SWIDTH 479 0
DWIDTH 7 0
BBX 8 20 0 -7
BITMAP
0C
1C
14
34
24
00
64
6C
6C
4C
5D
7E
6C
18
38
58
D0
B0
F0
E0
ENDCHAR
STARTCHAR Ydieresis
ENCODING 376
SWIDTH 851 0
DWIDTH 12 0
BBX 13 20 0 -5
BITMAP
07C0
06C0
3830
7830
CC30
9860
1860
1860
18E0
18E0
19E0
1F68
0E78
03C0
07C0
0CC0
08C0
1980
0F00
0600
ENDCHAR
STARTCHAR Zacute
ENCODING 377
SWIDTH 721 0
DWIDTH 10 0
BBX 12 17 0 0
BITMAP
0040
00C0
0180
0200
1FC0
7FE0
60C0
4180
6180
0300
0700
0600
0C00
1C00
7810
FFE0
63C0
ENDCHAR
STARTCHAR zacute
ENCODING 378
SWIDTH 445 0
DWIDTH 6 0
BBX 7 13 1 0
BITMAP
08
0C
18
10
10
00
FC
F8
70
C2
C2
FC
78
ENDCHAR
STARTCHAR Zdotaccent
ENCODING 379
SWIDTH 721 0
DWIDTH 10 0
BBX 12 15 0 0
BITMAP
0700
0700
1FC0
7FE0
60C0
4180
6180
0300
0700
0600
0C00
1C00
7810
FFE0
63C0
ENDCHAR
STARTCHAR zdotaccent
ENCODING 380
SWIDTH 445 0
DWIDTH 6 0
BBX 7 10 1 0
BITMAP
30
30
00
FC
F8
70
C2
C2
FC
78
ENDCHAR
STARTCHAR Zcaron
ENCODING 381
SWIDTH 721 0
DWIDTH 10 0
BBX 12 17 0 0
BITMAP
0480
0D80
0500
0300
1FC0
7FE0
60C0
4180
6180
0300
0700
0600
0C00
1C00
7810
FFE0
63C0
ENDCHAR
STARTCHAR zcaron
ENCODING 382
SWIDTH 445 0
DWIDTH 6 0
BBX 7 13 1 0
BITMAP
64
6C
28
38
30
00
FC
F8
70
C2
C2
FC
78
ENDCHAR
STARTCHAR uni018F
ENCODING 399
SWIDTH 792 0
DWIDTH 11 0
BBX 10 13 1 0
BITMAP
1E00
7F80
6180
41C0
00C0
00C0
7FC0
FFC0
C180
C180
C300
7F00
3C00
ENDCHAR
STARTCHAR florin
ENCODING 402
SWIDTH 478 0
DWIDTH 7 0
BBX 8 16 -1 -4
BITMAP
03
07
0C
0C
0C
3F
3E
18
18
18
18
18
18
18
F0
E0
ENDCHAR
STARTCHAR Ohorn
ENCODING 416
SWIDTH 816 0
DWIDTH 11 0
BBX 11 15 1 0
BITMAP
0060
0060
0FE0
3F80
71C0
60C0
C0C0
C0C0
C0C0
C0C0
C0C0
C180
E180
7F00
3C00
ENDCHAR
STARTCHAR ohorn
ENCODING 417
SWIDTH 451 0
DWIDTH 6 0
BBX 8 9 0 0
BITMAP
02
06
3E
7C
4F
CF
4C
78
38
ENDCHAR
STARTCHAR Uhorn
ENCODING 431
SWIDTH 890 0
DWIDTH 12 0
BBX 14 15 0 0
BITMAP
000C
000C
3838
7838
CC30
9860
1860
1860
1860
18E0
30E0
31E0
3164
3E7C
1C78
ENDCHAR
STARTCHAR uhorn
ENCODING 432
SWIDTH 512 0
DWIDTH 7 0
BBX 8 9 1 0
BITMAP
02
06
CC
D8
D8
98
B1
FE
DC
ENDCHAR
STARTCHAR uni01C4
ENCODING 452
SWIDTH 1531 0
DWIDTH 21 0
BBX 22 17 1 0
BITMAP
000120
000130
0001E0
0000C0
3E07F0
7F8FF8
019830
30D830
60D860
60C0E0
60C0C0
60C180
60C380
C18300
C39F04
FF1FFC
FC1CF8
ENDCHAR
STARTCHAR uni01C5
ENCODING 453
SWIDTH 1191 0
DWIDTH 17 0
BBX 17 13 1 0
BITMAP
3E0980
7F8D00
018F00
30C600
60C600
60C000
60DF00
60DF00
60CC00
C19800
C3B000
FF3F00
FC3F00
ENDCHAR
STARTCHAR uni01C6
ENCODING 454
SWIDTH 895 0
DWIDTH 13 0
BBX 14 13 0 0
BITMAP
0648
0658
0650
0670
0660
0400
1DF8
3DF8
6C60
4C80
CD84
7FFC
76F0
ENDCHAR
STARTCHAR uni01C7
ENCODING 455
SWIDTH 1276 0
DWIDTH 18 0
BBX 19 15 -1 -2
BITMAP
03C7E0
07CFE0
0C68C0
0C78C0
1848C0
1808C0
1800C0
1803C0
180E80
180980
7C1980
FFF180
73F300
001E00
000C00
ENDCHAR
STARTCHAR uni01C8
ENCODING 456
SWIDTH 927 0
DWIDTH 13 0
BBX 16 20 -1 -7
BITMAP
03C0
07E0
0C60
0C6C
187C
1800
1808
1808
1818
1818
7C1B
FFFE
73F8
0030
0070
00F0
00B0
01A0
01E0
00C0
ENDCHAR
STARTCHAR uni01C9
ENCODING 457
SWIDTH 610 0
DWIDTH 9 0
BBX 9 21 1 -7
BITMAP
3800
3800
6800
4800
DE00
D600
D000
F600
E600
E600
C600
CD80
FF00
7600
0C00
1C00
2C00
6800
5800
7000
7000
ENDCHAR
STARTCHAR uni01CA
ENCODING 458
SWIDTH 1497 0
DWIDTH 21 0
BBX 21 15 0 -2
BITMAP
39E1F8
7BE7F8
9A3430
1C3430
1C6630
1C6030
186070
1861F0
1863B0
18C660
30C660
307C60
307EC0
000780
000300
ENDCHAR
STARTCHAR uni01CB
ENCODING 459
SWIDTH 1138 0
DWIDTH 16 0
BBX 17 20 0 -7
BITMAP
38E000
79E000
DA3000
9C3300
1C6700
1C6000
186200
186600
186600
18C600
30C680
307F80
307E00
000C00
001C00
003C00
002C00
006800
007800
003000
ENDCHAR
STARTCHAR uni01CC
ENCODING 460
SWIDTH 750 0
DWIDTH 11 0
BBX 11 17 1 -7
BITMAP
0180
0180
0000
D980
F980
E980
D980
DB60
DFC0
9F80
0300
0700
0B00
1A00
1600
1C00
1C00
ENDCHAR
STARTCHAR Gcaron
ENCODING 486
SWIDTH 811 0
DWIDTH 11 0
BBX 12 24 1 -7
BITMAP
0880
0D80
0700
0600
0F00
3F80
7180
6180
C180
C000
C000
C380
C7C0
C080
60B0
7FE0
1FC0
0180
0380
0500
0900
0B00
0E00
0E00
ENDCHAR
STARTCHAR gcaron
ENCODING 487
SWIDTH 479 0
DWIDTH 7 0
BBX 8 20 0 -7
BITMAP
12
16
14
1C
18
00
18
3C
6C
4C
CF
7F
7C
18
38
58
D0
90
F0
E0
ENDCHAR
STARTCHAR uni01EA
ENCODING 490
SWIDTH 816 0
DWIDTH 11 0
BBX 10 16 1 -3
BITMAP
0F00
3F80
71C0
60C0
C0C0
C0C0
C0C0
C0C0
C0C0
C180
6300
7E00
1C00
1800
1800
0E00
ENDCHAR
STARTCHAR uni01EB
ENCODING 491
SWIDTH 451 0
DWIDTH 6 0
BBX 8 10 0 -3
BITMAP
38
7C
4C
CF
4E
6C
38
20
20
38
ENDCHAR
STARTCHAR Aringacute
ENCODING 506
SWIDTH 786 0
DWIDTH 11 0
BBX 13 20 1 0
BITMAP
0010
0018
03B0
0380
02C0
0380
0100
07E0
1FE0
3800
6180
6180
C180
C180
C300
C300
C300
C730
7FE0
79C0
ENDCHAR
STARTCHAR aringacute
ENCODING 507
SWIDTH 470 0
DWIDTH 7 0
BBX 9 14 0 0
BITMAP
0080
0980
1D00
1400
1C00
1C00
0000
1800
3C00
6C00
4C00
CD00
7F00
7600
ENDCHAR
STARTCHAR AEacute
ENCODING 508
SWIDTH 1015 0
DWIDTH 14 0
BBX 15 17 1 0
BITMAP
0010
0038
0070
00C0
0EFC
1EFC
38C0
6180
6180
C180
C1F8
C3F8
C300
C300
C782
7DFE
38F8
ENDCHAR
STARTCHAR aeacute
ENCODING 509
SWIDTH 653 0
DWIDTH 9 0
BBX 11 13 0 0
BITMAP
0100
0180
0300
0200
0200
0000
1B80
7F80
6C80
4F00
CE60
7FC0
7780
ENDCHAR
STARTCHAR Oslashacute
ENCODING 510
SWIDTH 816 0
DWIDTH 11 0
BBX 10 18 1 -1
BITMAP
0100
0300
0600
0F00
0F00
3F80
77C0
64C0
C4C0
C4C0
CCC0
CCC0
C8C0
C980
F980
7F00
3E00
3000
ENDCHAR
STARTCHAR oslashacute
ENCODING 511
SWIDTH 459 0
DWIDTH 6 0
BBX 8 15 0 -2
BITMAP
08
18
18
30
28
08
38
7C
5D
D7
5C
7C
78
20
20
ENDCHAR
STARTCHAR uni0200
ENCODING 512
SWIDTH 786 0
DWIDTH 11 0
BBX 12 17 1 0
BITMAP
0500
0580
0580
0280
07E0
1FE0
3800
6180
6180
C180
C180
C300
C300
C300
C730
7FE0
79C0
ENDCHAR
STARTCHAR uni0201
ENCODING 513
SWIDTH 470 0
DWIDTH 7 0
BBX 8 13 0 0
BITMAP
48
78
6C
2C
14
00
18
3C
6C
4C
CD
7F
76
ENDCHAR
STARTCHAR uni0202
ENCODING 514
SWIDTH 786 0
DWIDTH 11 0
BBX 12 16 1 0
BITMAP
0180
07C0
0460
07E0
1FE0
3800
6180
6180
C180
C180
C300
C300
C300
C730
7FE0
79C0
ENDCHAR
STARTCHAR uni0203
ENCODING 515
SWIDTH 470 0
DWIDTH 7 0
BBX 8 12 0 0
BITMAP
08
3E
36
22
00
18
3C
6C
4C
CD
7F
76
ENDCHAR
STARTCHAR uni0204
ENCODING 516
SWIDTH 686 0
DWIDTH 10 0
BBX 11 17 0 0
BITMAP
0900
0B00
0D00
0500
0F80
1FC0
30C0
30C0
30C0
1E00
3E00
7000
6000
E000
6020
7FE0
1F80
ENDCHAR
STARTCHAR uni0205
ENCODING 517
SWIDTH 393 0
DWIDTH 6 0
BBX 7 13 0 0
BITMAP
50
D8
58
68
2C
00
38
78
48
D8
62
7E
38
ENDCHAR
STARTCHAR uni0206
ENCODING 518
SWIDTH 686 0
DWIDTH 10 0
BBX 11 16 0 0
BITMAP
0300
0F80
0CC0
0F80
1FC0
30C0
30C0
30C0
1E00
3E00
7000
6000
E000
6020
7FE0
1F80
ENDCHAR
STARTCHAR uni0207
ENCODING 519
SWIDTH 393 0
DWIDTH 6 0
BBX 7 12 0 0
BITMAP
18
3C
66
46
00
38
78
48
D8
62
7E
38
ENDCHAR
STARTCHAR uni0208
ENCODING 520
SWIDTH 495 0
DWIDTH 7 0
BBX 8 17 0 0
BITMAP
24
3C
34
16
7F
3E
18
18
18
18
18
18
10
30
30
7C
FC
ENDCHAR
STARTCHAR uni0209
ENCODING 521
SWIDTH 246 0
DWIDTH 3 0
BBX 6 13 -1 0
BITMAP
90
D0
D8
48
28
00
30
30
30
20
24
3C
38
ENDCHAR
STARTCHAR uni020A
ENCODING 522
SWIDTH 495 0
DWIDTH 7 0
BBX 8 16 0 0
BITMAP
0C
1F
33
7F
3E
18
18
18
18
18
18
10
30
30
7C
FC
ENDCHAR
STARTCHAR uni020B
ENCODING 523
SWIDTH 246 0
DWIDTH 3 0
BBX 5 12 0 0
BITMAP
20
F8
C8
88
00
60
60
60
40
48
78
70
ENDCHAR
STARTCHAR uni020C
ENCODING 524
SWIDTH 816 0
DWIDTH 11 0
BBX 10 17 1 0
BITMAP
1200
1E00
1A00
0900
0F00
3F80
71C0
60C0
C0C0
C0C0
C0C0
C0C0
C0C0
C180
E180
7F00
3E00
ENDCHAR
STARTCHAR uni020D
ENCODING 525
SWIDTH 451 0
DWIDTH 6 0
BBX 8 13 0 0
BITMAP
50
D8
58
68
2C
00
38
7C
4F
CF
4C
78
38
ENDCHAR
STARTCHAR uni020E
ENCODING 526
SWIDTH 816 0
DWIDTH 11 0
BBX 10 16 1 0
BITMAP
0600
0F80
1980
0F00
3F80
71C0
60C0
C0C0
C0C0
C0C0
C0C0
C0C0
C180
E180
7F00
3E00
ENDCHAR
STARTCHAR uni020F
ENCODING 527
SWIDTH 451 0
DWIDTH 6 0
BBX 8 12 0 0
BITMAP
18
3C
66
46
00
38
7C
4F
CF
4C
78
38
ENDCHAR
STARTCHAR uni0210
ENCODING 528
SWIDTH 880 0
DWIDTH 12 0
BBX 13 17 1 0
BITMAP
0A00
1B00
0B00
0D00
0F80
3FC0
60C0
4CC0
CCC0
CCC0
9F80
BE00
9B00
9980
D988
78F8
70F0
ENDCHAR
STARTCHAR uni0211
ENCODING 529
SWIDTH 455 0
DWIDTH 6 0
BBX 7 13 1 0
BITMAP
90
F0
D0
58
48
00
D8
F8
EA
EE
CC
C0
80
ENDCHAR
STARTCHAR uni0212
ENCODING 530
SWIDTH 880 0
DWIDTH 12 0
BBX 13 16 1 0
BITMAP
0300
0F80
0880
0F80
3FC0
60C0
4CC0
CCC0
CCC0
9F80
BE00
9B00
9980
D988
78F8
70F0
ENDCHAR
STARTCHAR uni0213
ENCODING 531
SWIDTH 455 0
DWIDTH 6 0
BBX 7 12 1 0
BITMAP
10
7C
4C
C4
00
D8
F8
EA
EE
CC
C0
80
ENDCHAR
STARTCHAR uni0214
ENCODING 532
SWIDTH 890 0
DWIDTH 12 0
BBX 14 17 0 0
BITMAP
0480
0580
0680
0280
3830
7830
CC30
9860
1860
1860
1860
18E0
30E0
31E0
3164
3E7C
1C78
ENDCHAR
STARTCHAR uni0215
ENCODING 533
SWIDTH 462 0
DWIDTH 6 0
BBX 7 13 1 0
BITMAP
90
F0
D0
58
48
00
C8
D8
D8
98
B2
FE
DC
ENDCHAR
STARTCHAR uni0216
ENCODING 534
SWIDTH 890 0
DWIDTH 12 0
BBX 14 16 0 0
BITMAP
0180
07C0
0660
3830
7830
CC30
9860
1860
1860
1860
18E0
30E0
31E0
3164
3E7C
1C78
ENDCHAR
STARTCHAR uni0217
ENCODING 535
SWIDTH 462 0
DWIDTH 6 0
BBX 7 12 1 0
BITMAP
10
7C
4C
C4
00
C8
D8
D8
98
B2
FE
DC
ENDCHAR
STARTCHAR uni0218
ENCODING 536
SWIDTH 693 0
DWIDTH 10 0
BBX 10 17 0 -4
BITMAP
1F00
3F80
30C0
60C0
3080
3800
1E00
0780
4180
C180
4180
7F00
3E00
0000
0800
0800
0800
ENDCHAR
STARTCHAR uni0219
ENCODING 537
SWIDTH 427 0
DWIDTH 6 0
BBX 8 12 0 -5
BITMAP
10
30
30
79
CB
BE
3C
00
30
30
30
20
ENDCHAR
STARTCHAR uni021A
ENCODING 538
SWIDTH 697 0
DWIDTH 10 0
BBX 13 17 0 -4
BITMAP
1FF8
7FF0
4300
C600
4600
0600
0600
0600
0600
0E00
0C00
0C00
0C00
0000
0C00
0C00
0800
ENDCHAR
STARTCHAR uni021B
ENCODING 539
SWIDTH 393 0
DWIDTH 6 0
BBX 7 18 0 -5
BITMAP
0C
1C
34
34
28
38
FC
FC
60
60
62
3E
3C
00
10
30
30
20
ENDCHAR
STARTCHAR uni022A
ENCODING 554
SWIDTH 816 0
DWIDTH 11 0
BBX 10 19 1 0
BITMAP
0F00
0F80
0000
0000
0F80
1B00
0F00
3F80
71C0
60C0
C0C0
C0C0
C0C0
C0C0
C0C0
C180
E180
7F00
3E00
ENDCHAR
STARTCHAR uni022B
ENCODING 555
SWIDTH 451 0
DWIDTH 6 0
BBX 8 13 0 0
BITMAP
3C
3C
00
6C
6C
00
38
7C
4F
CF
4C
78
38
ENDCHAR
STARTCHAR uni022C
ENCODING 556
SWIDTH 816 0
DWIDTH 11 0
BBX 10 19 1 0
BITMAP
0F00
0F80
0000
0C80
1F80
1300
0F00
3F80
71C0
60C0
C0C0
C0C0
C0C0
C0C0
C0C0
C180
E180
7F00
3E00
ENDCHAR
STARTCHAR uni022D
ENCODING 557
SWIDTH 451 0
DWIDTH 6 0
BBX 8 14 0 0
BITMAP
3C
3C
00
22
7E
4C
00
38
7C
4F
CF
4C
78
38
ENDCHAR
STARTCHAR uni0230
ENCODING 560
SWIDTH 816 0
DWIDTH 11 0
BBX 10 19 1 0
BITMAP
0F00
0F80
0000
0000
0600
0600
0F00
3F80
71C0
60C0
C0C0
C0C0
C0C0
C0C0
C0C0
C180
E180
7F00
3E00
ENDCHAR
STARTCHAR uni0231
ENCODING 561
SWIDTH 451 0
DWIDTH 6 0
BBX 8 13 0 0
BITMAP
3C
3C
00
18
18
00
38
7C
4F
CF
4C
78
38
ENDCHAR
STARTCHAR uni0232
ENCODING 562
SWIDTH 851 0
DWIDTH 12 0
BBX 13 20 0 -5
BITMAP
03C0
03C0
3830
7830
CC30
9860
1860
1860
18E0
18E0
19E0
1F68
0E78
03C0
07C0
0CC0
08C0
1980
0F00
0600
ENDCHAR
STARTCHAR uni0233
ENCODING 563
SWIDTH 479 0
DWIDTH 7 0
BBX 8 17 0 -7
BITMAP
3C
3C
00
64
6C
6C
4C
5D
7E
6C
18
38
58
D0
B0
F0
E0
ENDCHAR
STARTCHAR uni0237
ENCODING 567
SWIDTH 254 0
DWIDTH 4 0
BBX 8 14 -3 -7
BITMAP
0C
0C
0C
0C
0B
0E
0C
18
38
58
D0
B0
E0
E0
ENDCHAR
STARTCHAR uni0259
ENCODING 601
SWIDTH 458 0
DWIDTH 6 0
BBX 5 7 1 0
BITMAP
F0
F8
18
F8
F8
F8
F0
ENDCHAR
STARTCHAR uni02BC
ENCODING 700
SWIDTH 600 0
DWIDTH 8 0
BBX 2 4 4 8
BITMAP
C0
80
80
80
ENDCHAR
STARTCHAR circumflex
ENCODING 710
SWIDTH 600 0
DWIDTH 8 0
BBX 5 5 2 8
BITMAP
30
70
50
D0
98
ENDCHAR
STARTCHAR caron
ENCODING 711
SWIDTH 600 0
DWIDTH 8 0
BBX 5 5 2 8
BITMAP
C8
58
50
70
60
ENDCHAR
STARTCHAR uni02C9
ENCODING 713
SWIDTH 600 0
DWIDTH 8 0
BBX 5 2 2 8
BITMAP
F0
F8
ENDCHAR
STARTCHAR breve
ENCODING 728
SWIDTH 600 0
DWIDTH 8 0
BBX 5 4 2 8
BITMAP
88
88
F8
70
ENDCHAR
STARTCHAR dotaccent
ENCODING 729
SWIDTH 600 0
DWIDTH 8 0
BBX 3 2 3 8
BITMAP
E0
C0
ENDCHAR
STARTCHAR ring
ENCODING 730
SWIDTH 600 0
DWIDTH 8 0
BBX 3 5 3 8
BITMAP
40
E0
A0
E0
E0
ENDCHAR
STARTCHAR ogonek
ENCODING 731
SWIDTH 600 0
DWIDTH 8 0
BBX 4 5 2 -4
BITMAP
40
C0
80
F0
60
ENDCHAR
STARTCHAR tilde
ENCODING 732
SWIDTH 600 0
DWIDTH 8 0
BBX 6 3 1 8
BITMAP
24
74
DC
ENDCHAR
STARTCHAR hungarumlaut
ENCODING 733
SWIDTH 600 0
DWIDTH 8 0
BBX 6 5 2 8
BITMAP
28
6C
68
58
D0
ENDCHAR
STARTCHAR gravecomb
ENCODING 768
SWIDTH 0 0
DWIDTH 0 0
BBX 3 5 -7 8
BITMAP
40
C0
60
60
20
ENDCHAR
STARTCHAR acutecomb
ENCODING 769
SWIDTH 0 0
DWIDTH 0 0
BBX 3 5 -5 8
BITMAP
20
20
60
40
80
ENDCHAR
STARTCHAR uni0302
ENCODING 770
SWIDTH 0 0
DWIDTH 0 0
BBX 5 5 -7 8
BITMAP
30
38
78
48
C8
ENDCHAR
STARTCHAR tildecomb
ENCODING 771
SWIDTH 0 0
DWIDTH 0 0
BBX 6 3 -7 8
BITMAP
44
FC
98
ENDCHAR
STARTCHAR uni0304
ENCODING 772
SWIDTH 0 0
DWIDTH 0 0
BBX 4 2 -6 8
BITMAP
F0
F0
ENDCHAR
STARTCHAR uni0306
ENCODING 774
SWIDTH 0 0
DWIDTH 0 0
BBX 6 4 -7 8
BITMAP
84
CC
FC
78
ENDCHAR
STARTCHAR uni0307
ENCODING 775
SWIDTH 0 0
DWIDTH 0 0
BBX 2 2 -5 8
BITMAP
C0
C0
ENDCHAR
STARTCHAR uni0308
ENCODING 776
SWIDTH 0 0
DWIDTH 0 0
BBX 5 2 -7 8
BITMAP
78
D8
ENDCHAR
STARTCHAR hookabovecomb
ENCODING 777
SWIDTH 0 0
DWIDTH 0 0
BBX 3 5 -5 8
BITMAP
C0
E0
20
E0
C0
ENDCHAR
STARTCHAR uni030A
ENCODING 778
SWIDTH 0 0
DWIDTH 0 0
BBX 4 5 -6 8
BITMAP
20
F0
90
F0
60
ENDCHAR
STARTCHAR uni030B
ENCODING 779
SWIDTH 0 0
DWIDTH 0 0
BBX 5 5 -6 8
BITMAP
48
78
58
D0
90
ENDCHAR
STARTCHAR uni030C
ENCODING 780
SWIDTH 0 0
DWIDTH 0 0
BBX 5 5 -6 8
BITMAP
D8
D0
F0
60
60
ENDCHAR
STARTCHAR uni030F
ENCODING 783
SWIDTH 0 0
DWIDTH 0 0
BBX 6 5 -8 8
BITMAP
50
D8
78
68
24
ENDCHAR
STARTCHAR uni0311
ENCODING 785
SWIDTH 0 0
DWIDTH 0 0
BBX 6 4 -7 8
BITMAP
30
78
CC
8C
ENDCHAR
STARTCHAR uni0312
ENCODING 786
SWIDTH 0 0
DWIDTH 0 0
BBX 2 4 -5 8
BITMAP
40
C0
C0
80
ENDCHAR
STARTCHAR uni031B
ENCODING 795
SWIDTH 0 0
DWIDTH 0 0
BBX 3 4 -5 5
BITMAP
20
20
60
C0
ENDCHAR
STARTCHAR dotbelowcomb
ENCODING 803
SWIDTH 0 0
DWIDTH 0 0
BBX 3 2 -7 -3
BITMAP
60
E0
ENDCHAR
STARTCHAR uni0324
ENCODING 804
SWIDTH 0 0
DWIDTH 0 0
BBX 5 2 -8 -3
BITMAP
D8
D8
ENDCHAR
STARTCHAR uni0326
ENCODING 806
SWIDTH 0 0
DWIDTH 0 0
BBX 2 4 -6 -5
BITMAP
C0
C0
80
80
ENDCHAR
STARTCHAR uni0327
ENCODING 807
SWIDTH 0 0
DWIDTH 0 0
BBX 4 5 -8 -4
BITMAP
20
70
10
70
E0
ENDCHAR
STARTCHAR uni0328
ENCODING 808
SWIDTH 0 0
DWIDTH 0 0
BBX 4 5 -7 -4
BITMAP
20
40
C0
70
70
ENDCHAR
STARTCHAR uni032E
ENCODING 814
SWIDTH 0 0
DWIDTH 0 0
BBX 5 4 -8 -4
BITMAP
88
88
F8
70
ENDCHAR
STARTCHAR uni0331
ENCODING 817
SWIDTH 0 0
DWIDTH 0 0
BBX 5 2 -8 -2
BITMAP
78
F8
ENDCHAR
STARTCHAR uni0394
ENCODING 916
SWIDTH 700 0
DWIDTH 10 0
BBX 9 12 0 0
BITMAP
0600
0600
0E00
0A00
1A00
1B00
3300
3300
2100
6100
7F80
FF80
ENDCHAR
STARTCHAR uni03A9
ENCODING 937
SWIDTH 816 0
DWIDTH 11 0
BBX 11 12 0 0
BITMAP
0F80
1FC0
38E0
3060
6060
6060
6060
6060
60C0
70C0
F1E0
FBE0
ENDCHAR
STARTCHAR uni03BC
ENCODING 956
SWIDTH 462 0
DWIDTH 6 0
BBX 8 11 0 -4
BITMAP
24
6C
6C
4C
59
7F
EE
C0
C0
C0
C0
ENDCHAR
STARTCHAR pi
ENCODING 960
SWIDTH 496 0
DWIDTH 7 0
BBX 9 7 0 0
BITMAP
FF00
6400
6C00
6C00
4C80
4F00
C600
ENDCHAR
STARTCHAR uni0400
ENCODING 1024
SWIDTH 686 0
DWIDTH 10 0
BBX 11 17 0 0
BITMAP
1000
1800
0C00
0600
0F80
1FC0
30C0
30C0
30C0
1E00
3E00
7000
6000
E000
6020
7FE0
1F80
ENDCHAR
STARTCHAR uni0401
ENCODING 1025
SWIDTH 686 0
DWIDTH 10 0
BBX 11 15 0 0
BITMAP
0D80
0D80
0F80
1FC0
30C0
30C0
30C0
1E00
3E00
7000
6000
E000
6020
7FE0
1F80
ENDCHAR
STARTCHAR uni0402
ENCODING 1026
SWIDTH 974 0
DWIDTH 14 0
BBX 15 20 0 -7
BITMAP
1FF8
7FF0
4300
C600
4600
4600
06F0
07F8
0618
0E1A
0C1E
0C3C
0C38
0070
00F0
01B0
01A0
0160
03C0
01C0
ENDCHAR
STARTCHAR uni0403
ENCODING 1027
SWIDTH 635 0
DWIDTH 9 0
BBX 12 17 0 0
BITMAP
0080
01C0
0380
0600
1FF0
7FC0
4C00
CC00
6C00
0C00
0C00
0C00
1800
1800
1800
1800
1800
ENDCHAR
STARTCHAR uni0404
ENCODING 1028
SWIDTH 687 0
DWIDTH 10 0
BBX 10 13 1 0
BITMAP
0F00
3F80
7180
6180
C100
C000
FE00
FC00
C000
C000
6040
7FC0
1F80
ENDCHAR
STARTCHAR uni0405
ENCODING 1029
SWIDTH 693 0
DWIDTH 10 0
BBX 10 13 0 0
BITMAP
1F00
3F80
30C0
60C0
3080
3800
1E00
0780
4180
C180
4180
7F00
3E00
ENDCHAR
STARTCHAR uni0406
ENCODING 1030
SWIDTH 495 0
DWIDTH 7 0
BBX 8 13 0 0
BITMAP
7F
3E
18
18
18
18
18
18
10
30
30
7C
FC
ENDCHAR
STARTCHAR uni0407
ENCODING 1031
SWIDTH 495 0
DWIDTH 7 0
BBX 8 15 0 0
BITMAP
1F
36
7F
3E
18
18
18
18
18
18
10
30
30
7C
FC
ENDCHAR
STARTCHAR uni0408
ENCODING 1032
SWIDTH 743 0
DWIDTH 10 0
BBX 10 14 1 -1
BITMAP
3F80
7FC0
C180
C180
C180
0180
0700
1F00
3B00
2300
6600
6600
7C00
3800
ENDCHAR
STARTCHAR uni0409
ENCODING 1033
SWIDTH 1158 0
DWIDTH 16 0
BBX 16 13 0 0
BITMAP
00C0
01C0
01C0
01C0
01C0
03FE
03FF
02C3
06C3
86C3
CCC7
F87E
703C
ENDCHAR
STARTCHAR uni040A
ENCODING 1034
SWIDTH 1182 0
DWIDTH 17 0
BBX 16 13 0 0
BITMAP
3860
7860
8860
8860
18C0
18FE
3FF7
7FC3
18C3
18C3
30C3
30FE
307C
ENDCHAR
STARTCHAR uni040B
ENCODING 1035
SWIDTH 979 0
DWIDTH 14 0
BBX 16 13 0 0
BITMAP
1FF8
7FF0
4300
C600
4600
4600
06F0
07F8
0718
0E18
0C1B
0C3E
0C1C
ENDCHAR
STARTCHAR uni040C
ENCODING 1036
SWIDTH 937 0
DWIDTH 13 0
BBX 15 17 0 0
BITMAP
0010
0038
0070
0040
1F08
3F18
6318
6618
6630
6660
0FC0
0F80
06C0
06E0
CC62
7C7C
7838
ENDCHAR
STARTCHAR uni040D
ENCODING 1037
SWIDTH 890 0
DWIDTH 12 0
BBX 14 17 0 0
BITMAP
0800
0C00
0E00
0300
3830
7830
CC30
9860
1860
1860
1860
18E0
30E0
31E0
3164
3E7C
1C78
ENDCHAR
STARTCHAR uni040E
ENCODING 1038
SWIDTH 824 0
DWIDTH 12 0
BBX 13 20 0 -4
BITMAP
0040
0640
0780
3830
7830
D860
1860
1860
18E0
18E0
1F60
0E68
0078
03E0
07C0
0CC0
18C0
1980
0F00
0400
ENDCHAR
STARTCHAR uni040F
ENCODING 1039
SWIDTH 890 0
DWIDTH 12 0
BBX 14 16 0 -3
BITMAP
3830
7830
CC30
9860
1860
1860
1860
18E0
30E0
31E0
3164
3E7C
1C78
0C00
0800
1800
ENDCHAR
STARTCHAR uni0410
ENCODING 1040
SWIDTH 786 0
DWIDTH 11 0
BBX 12 13 1 0
BITMAP
07E0
1FE0
3800
6180
6180
C180
C180
C300
C300
C300
C730
7FE0
79C0
ENDCHAR
STARTCHAR uni0411
ENCODING 1041
SWIDTH 917 0
DWIDTH 13 0
BBX 13 14 0 -1
BITMAP
1FF0
7FC0
4600
C600
4600
6C00
0FE0
1FF0
1C38
0C18
0C30
0C70
19E0
0900
ENDCHAR
STARTCHAR uni0412
ENCODING 1042
SWIDTH 827 0
DWIDTH 12 0
BBX 12 14 0 -1
BITMAP
0FC0
7FF0
E030
1830
1830
1860
33C0
33C0
30E0
3060
30C0
3FC0
3F00
2000
ENDCHAR
STARTCHAR uni0413
ENCODING 1043
SWIDTH 635 0
DWIDTH 9 0
BBX 12 13 0 0
BITMAP
1FF0
7FC0
4C00
CC00
6C00
0C00
0C00
0C00
1800
1800
1800
1800
1800
ENDCHAR
STARTCHAR uni0414
ENCODING 1044
SWIDTH 964 0
DWIDTH 14 0
BBX 13 13 0 0
BITMAP
07C0
1FF0
3030
0618
0618
0C18
0C18
0C18
0C18
7838
FC30
FFE0
73C0
ENDCHAR
STARTCHAR uni0415
ENCODING 1045
SWIDTH 686 0
DWIDTH 10 0
BBX 11 13 0 0
BITMAP
0F80
1FC0
30C0
30C0
30C0
1E00
3E00
7000
6000
E000
6020
7FE0
1F80
ENDCHAR
STARTCHAR uni0416
ENCODING 1046
SWIDTH 1234 0
DWIDTH 17 0
BBX 19 13 0 0
BITMAP
1C21C0
3E63C0
066600
026600
036400
036C00
01F800
03F800
06CC00
0CCC00
4CCE60
F8C7C0
70C380
ENDCHAR
STARTCHAR uni0417
ENCODING 1047
SWIDTH 725 0
DWIDTH 10 0
BBX 9 13 1 0
BITMAP
1E00
7F00
6300
6300
6300
0600
1F00
1300
8180
C380
C300
FF00
7C00
ENDCHAR
STARTCHAR uni0418
ENCODING 1048
SWIDTH 890 0
DWIDTH 12 0
BBX 14 13 0 0
BITMAP
3830
7830
CC30
9860
1860
1860
1860
18E0
30E0
31E0
3164
3E7C
1C78
ENDCHAR
STARTCHAR uni0419
ENCODING 1049
SWIDTH 890 0
DWIDTH 12 0
BBX 14 16 0 0
BITMAP
0060
0640
03C0
3830
7830
CC30
9860
1860
1860
1860
18E0
30E0
31E0
3164
3E7C
1C78
ENDCHAR
STARTCHAR uni041A
ENCODING 1050
SWIDTH 937 0
DWIDTH 13 0
BBX 15 13 0 0
BITMAP
1F08
3F18
6318
6618
6630
6660
0FC0
0F80
06C0
06E0
CC62
7C7C
7838
ENDCHAR
STARTCHAR uni041B
ENCODING 1051
SWIDTH 861 0
DWIDTH 12 0
BBX 14 13 0 0
BITMAP
00C0
01C0
01C0
01C0
01C0
03C0
03C0
02C0
06C0
06C0
CCC4
F878
7070
ENDCHAR
STARTCHAR uni041C
ENCODING 1052
SWIDTH 1133 0
DWIDTH 16 0
BBX 18 13 0 0
BITMAP
030C00
038C00
039C00
039C00
07BC00
07BC00
07AC00
05EC00
0DEC00
0DCC00
CDCCC0
F8C780
708700
ENDCHAR
STARTCHAR uni041D
ENCODING 1053
SWIDTH 873 0
DWIDTH 12 0
BBX 14 14 0 0
BITMAP
0010
3838
7868
8868
8848
18D8
18F0
3FE0
7FC0
18C0
18C0
30C4
30FC
3070
ENDCHAR
STARTCHAR uni041E
ENCODING 1054
SWIDTH 816 0
DWIDTH 11 0
BBX 10 13 1 0
BITMAP
0F00
3F80
71C0
60C0
C0C0
C0C0
C0C0
C0C0
C0C0
C180
E180
7F00
3E00
ENDCHAR
STARTCHAR uni041F
ENCODING 1055
SWIDTH 892 0
DWIDTH 12 0
BBX 14 13 0 0
BITMAP
1FFC
7FFC
4C30
CC30
4C60
4C60
0C60
0C60
0C60
1860
1864
187C
1838
ENDCHAR
STARTCHAR uni0420
ENCODING 1056
SWIDTH 805 0
DWIDTH 11 0
BBX 11 14 1 -1
BITMAP
0F80
3FC0
30C0
6CE0
CCC0
CCC0
8CC0
BF80
BF00
9800
9800
D800
F800
7000
ENDCHAR
STARTCHAR uni0421
ENCODING 1057
SWIDTH 686 0
DWIDTH 10 0
BBX 10 13 1 0
BITMAP
0F00
3F00
7180
6180
C180
C000
C000
C000
C000
C000
6040
7FC0
1F80
ENDCHAR
STARTCHAR uni0422
ENCODING 1058
SWIDTH 697 0
DWIDTH 10 0
BBX 13 13 0 0
BITMAP
1FF8
7FF0
4300
C600
4600
0600
0600
0600
0600
0E00
0C00
0C00
0C00
ENDCHAR
STARTCHAR uni0423
ENCODING 1059
SWIDTH 824 0
DWIDTH 12 0
BBX 13 17 0 -4
BITMAP
3830
7830
D860
1860
1860
18E0
18E0
1F60
0E68
0078
03E0
07C0
0CC0
18C0
1980
0F00
0400
ENDCHAR
STARTCHAR uni0424
ENCODING 1060
SWIDTH 977 0
DWIDTH 14 0
BBX 12 18 1 -4
BITMAP
7F00
3F80
0300
1B60
7EF0
67B0
C730
C630
C630
C630
CE30
FFE0
75C0
0C00
4C00
4C00
7800
3000
ENDCHAR
STARTCHAR uni0425
ENCODING 1061
SWIDTH 712 0
DWIDTH 10 0
BBX 12 13 0 0
BITMAP
3860
FCC0
8DC0
0F80
0F00
0600
0E00
1E00
1E00
3300
6330
E3E0
C1C0
ENDCHAR
STARTCHAR uni0426
ENCODING 1062
SWIDTH 890 0
DWIDTH 12 0
BBX 14 18 0 -5
BITMAP
3830
7830
CC30
9860
1860
1860
1860
18E0
38E0
30E0
3160
3E7C
1C38
00F0
01F0
01A0
01E0
01C0
ENDCHAR
STARTCHAR uni0427
ENCODING 1063
SWIDTH 773 0
DWIDTH 11 0
BBX 8 13 2 0
BITMAP
C1
C3
C3
C3
C3
C7
CF
FB
73
02
06
06
06
ENDCHAR
STARTCHAR uni0428
ENCODING 1064
SWIDTH 1272 0
DWIDTH 18 0
BBX 20 13 0 0
BITMAP
382180
786180
CC6180
986180
186180
186300
18C300
18C300
30C700
31C700
33CB30
3EFBE0
1C71C0
ENDCHAR
STARTCHAR uni0429
ENCODING 1065
SWIDTH 1272 0
DWIDTH 18 0
BBX 20 18 0 -5
BITMAP
382180
786180
CC6180
986180
186180
186300
18C300
18C300
30C700
31C700
33CB10
3EFBE0
1C71C0
000380
000780
000D80
000F00
000700
ENDCHAR
STARTCHAR uni042A
ENCODING 1066
SWIDTH 863 0
DWIDTH 12 0
BBX 10 13 2 0
BITMAP
0800
FC00
F800
1800
3000
3F80
7FC0
E0C0
60C0
20C0
3180
3F80
1E00
ENDCHAR
STARTCHAR uni042B
ENCODING 1067
SWIDTH 1078 0
DWIDTH 15 0
BBX 15 13 0 0
BITMAP
1806
1806
300C
300C
300C
3F8C
7FCC
E0CC
20CC
20D8
3198
3F98
1E18
ENDCHAR
STARTCHAR uni042C
ENCODING 1068
SWIDTH 721 0
DWIDTH 10 0
BBX 10 13 0 0
BITMAP
1800
1800
3000
3000
3000
3F80
7FC0
E0C0
20C0
20C0
3180
3F80
1E00
ENDCHAR
STARTCHAR uni042D
ENCODING 1069
SWIDTH 755 0
DWIDTH 11 0
BBX 9 13 1 0
BITMAP
3E00
7F00
C380
8180
0180
0180
3F80
3F80
0180
C180
C300
FE00
7C00
ENDCHAR
STARTCHAR uni042E
ENCODING 1070
SWIDTH 1246 0
DWIDTH 17 0
BBX 17 13 0 0
BITMAP
380E00
787700
C8F380
88F180
19E180
19C180
3F8180
7D8180
198180
198300
31C700
30FE00
307C00
ENDCHAR
STARTCHAR uni042F
ENCODING 1071
SWIDTH 850 0
DWIDTH 12 0
BBX 14 13 0 0
BITMAP
07E0
1FE0
1860
1860
18E0
18E0
1FC0
0FC0
03C0
03C0
C6CC
FCF8
7870
ENDCHAR
STARTCHAR uni0430
ENCODING 1072
SWIDTH 470 0
DWIDTH 7 0
BBX 8 7 0 0
BITMAP
18
3C
6C
4C
CD
7F
76
ENDCHAR
STARTCHAR uni0431
ENCODING 1073
SWIDTH 473 0
DWIDTH 7 0
BBX 8 14 1 0
BITMAP
04
3C
70
40
60
30
18
78
F8
DF
9E
98
F0
F0
ENDCHAR
STARTCHAR uni0432
ENCODING 1074
SWIDTH 473 0
DWIDTH 7 0
BBX 8 14 1 0
BITMAP
38
38
68
48
D8
D0
E0
F8
D8
DF
CE
C8
F8
70
ENDCHAR
STARTCHAR uni0433
ENCODING 1075
SWIDTH 380 0
DWIDTH 5 0
BBX 6 7 1 0
BITMAP
F0
F0
30
E0
84
FC
F0
ENDCHAR
STARTCHAR uni0434
ENCODING 1076
SWIDTH 479 0
DWIDTH 7 0
BBX 8 14 0 -7
BITMAP
18
3C
6C
4C
CF
7F
7C
18
38
58
D0
90
F0
E0
ENDCHAR
STARTCHAR uni0435
ENCODING 1077
SWIDTH 393 0
DWIDTH 6 0
BBX 7 7 0 0
BITMAP
38
78
48
D8
62
7E
38
ENDCHAR
STARTCHAR uni0436
ENCODING 1078
SWIDTH 717 0
DWIDTH 10 0
BBX 12 7 0 0
BITMAP
36C0
75E0
1F40
1F00
D730
F5E0
65C0
ENDCHAR
STARTCHAR uni0437
ENCODING 1079
SWIDTH 435 0
DWIDTH 6 0
BBX 9 14 -1 -7
BITMAP
1C00
3E00
0600
0C00
3980
3300
1E00
1800
3C00
6800
4800
D800
F000
6000
ENDCHAR
STARTCHAR uni0438
ENCODING 1080
SWIDTH 462 0
DWIDTH 6 0
BBX 7 7 1 0
BITMAP
C8
D8
D8
98
B2
FE
DC
ENDCHAR
STARTCHAR uni0439
ENCODING 1081
SWIDTH 462 0
DWIDTH 6 0
BBX 7 12 1 0
BITMAP
04
CC
78
70
00
C8
D8
D8
98
B2
FE
DC
ENDCHAR
STARTCHAR uni043A
ENCODING 1082
SWIDTH 465 0
DWIDTH 7 0
BBX 7 7 1 0
BITMAP
DC
FC
AC
E0
E2
FE
9C
ENDCHAR
STARTCHAR uni043B
ENCODING 1083
SWIDTH 549 0
DWIDTH 8 0
BBX 9 7 0 0
BITMAP
0C00
0C00
1C00
5C80
D480
F780
E700
ENDCHAR
STARTCHAR uni043C
ENCODING 1084
SWIDTH 734 0
DWIDTH 10 0
BBX 12 7 0 0
BITMAP
0C80
0D80
1F80
5680
D690
F6F0
E4E0
ENDCHAR
STARTCHAR uni043D
ENCODING 1085
SWIDTH 475 0
DWIDTH 7 0
BBX 7 7 1 0
BITMAP
C8
C8
F8
FA
9A
9E
9C
ENDCHAR
STARTCHAR uni043E
ENCODING 1086
SWIDTH 451 0
DWIDTH 6 0
BBX 8 7 0 0
BITMAP
38
7C
4F
CF
4C
78
38
ENDCHAR
STARTCHAR uni043F
ENCODING 1087
SWIDTH 496 0
DWIDTH 7 0
BBX 8 7 1 0
BITMAP
D8
F8
E8
D8
DB
DE
9C
ENDCHAR
STARTCHAR uni0440
ENCODING 1088
SWIDTH 481 0
DWIDTH 7 0
BBX 11 14 -2 -7
BITMAP
1F00
1F00
1B00
1B00
1B60
3FC0
3F80
5000
5000
5000
D000
F000
F000
6000
ENDCHAR
STARTCHAR uni0441
ENCODING 1089
SWIDTH 368 0
DWIDTH 5 0
BBX 7 7 0 0
BITMAP
38
78
48
C0
C2
7C
38
ENDCHAR
STARTCHAR uni0442
ENCODING 1090
SWIDTH 744 0
DWIDTH 10 0
BBX 11 7 1 0
BITMAP
D980
FB80
FF80
DD80
DD20
D9E0
99C0
ENDCHAR
STARTCHAR uni0443
ENCODING 1091
SWIDTH 479 0
DWIDTH 7 0
BBX 8 14 0 -7
BITMAP
64
6C
6C
4C
5D
7E
6C
18
38
58
D0
B0
F0
E0
ENDCHAR
STARTCHAR uni0444
ENCODING 1092
SWIDTH 721 0
DWIDTH 10 0
BBX 12 17 0 -5
BITMAP
0600
0600
0600
0400
0400
1D80
3F80
6CC0
4C80
CD90
7FE0
7EC0
0800
0800
0800
0800
0800
ENDCHAR
STARTCHAR uni0445
ENCODING 1093
SWIDTH 529 0
DWIDTH 7 0
BBX 9 7 0 0
BITMAP
3600
7F00
5A00
1800
D880
FF80
6F00
ENDCHAR
STARTCHAR uni0446
ENCODING 1094
SWIDTH 501 0
DWIDTH 7 0
BBX 7 12 1 -5
BITMAP
C8
D8
D8
98
B2
FE
CC
38
78
50
70
20
ENDCHAR
STARTCHAR uni0447
ENCODING 1095
SWIDTH 555 0
DWIDTH 8 0
BBX 10 8 0 0
BITMAP
1800
3F00
2700
2C00
6840
D8C0
9F80
0F00
ENDCHAR
STARTCHAR uni0448
ENCODING 1096
SWIDTH 693 0
DWIDTH 10 0
BBX 11 7 1 0
BITMAP
C900
D900
DB00
9B00
BF60
FFC0
DB80
ENDCHAR
STARTCHAR uni0449
ENCODING 1097
SWIDTH 732 0
DWIDTH 10 0
BBX 11 12 1 -5
BITMAP
C900
D900
DB00
9B00
BF20
FF60
D980
0300
0500
0B00
0E00
0400
ENDCHAR
STARTCHAR uni044A
ENCODING 1098
SWIDTH 542 0
DWIDTH 8 0
BBX 8 7 1 0
BITMAP
F0
60
F8
FC
CD
FF
7E
ENDCHAR
STARTCHAR uni044B
ENCODING 1099
SWIDTH 702 0
DWIDTH 10 0
BBX 11 7 1 0
BITMAP
C100
C300
FB00
FF00
8F60
FBC0
7180
ENDCHAR
STARTCHAR uni044C
ENCODING 1100
SWIDTH 517 0
DWIDTH 7 0
BBX 8 7 1 0
BITMAP
C0
C0
F8
F8
89
FF
7C
ENDCHAR
STARTCHAR uni044D
ENCODING 1101
SWIDTH 466 0
DWIDTH 7 0
BBX 8 7 0 0
BITMAP
78
7C
1F
5F
CC
7C
78
ENDCHAR
STARTCHAR uni044E
ENCODING 1102
SWIDTH 676 0
DWIDTH 9 0
BBX 10 7 1 0
BITMAP
CE00
DF00
FBC0
F3C0
9300
9F00
8E00
ENDCHAR
STARTCHAR uni044F
ENCODING 1103
SWIDTH 543 0
DWIDTH 8 0
BBX 9 7 0 0
BITMAP
1E00
3E00
3600
FE80
DE80
FF80
7700
ENDCHAR
STARTCHAR uni0450
ENCODING 1104
SWIDTH 393 0
DWIDTH 6 0
BBX 7 13 0 0
BITMAP
20
60
20
30
10
00
38
78
48
D8
62
7E
38
ENDCHAR
STARTCHAR uni0451
ENCODING 1105
SWIDTH 393 0
DWIDTH 6 0
BBX 7 10 0 0
BITMAP
6C
6C
00
38
78
48
D8
62
7E
38
ENDCHAR
STARTCHAR uni0452
ENCODING 1106
SWIDTH 514 0
DWIDTH 7 0
BBX 9 20 0 -7
BITMAP
3000
3000
3000
7C00
3C00
6000
6C00
7E00
7400
7400
6D80
6F00
6E00
1C00
3800
2800
5800
5800
F000
6000
ENDCHAR
STARTCHAR uni0453
ENCODING 1107
SWIDTH 380 0
DWIDTH 5 0
BBX 6 13 1 0
BITMAP
10
18
30
20
20
00
F0
F0
30
E0
84
FC
F0
ENDCHAR
STARTCHAR uni0454
ENCODING 1108
SWIDTH 379 0
DWIDTH 5 0
BBX 7 7 0 0
BITMAP
38
7C
70
F2
42
7E
38
ENDCHAR
STARTCHAR uni0455
ENCODING 1109
SWIDTH 427 0
DWIDTH 6 0
BBX 8 7 0 0
BITMAP
10
30
30
79
CB
BE
3C
ENDCHAR
STARTCHAR uni0456
ENCODING 1110
SWIDTH 246 0
DWIDTH 3 0
BBX 4 10 1 0
BITMAP
E0
E0
00
C0
C0
C0
80
90
F0
E0
ENDCHAR
STARTCHAR uni0457
ENCODING 1111
SWIDTH 246 0
DWIDTH 3 0
BBX 5 10 0 0
BITMAP
D8
D8
00
60
60
60
40
48
78
70
ENDCHAR
STARTCHAR uni0458
ENCODING 1112
SWIDTH 254 0
DWIDTH 4 0
BBX 8 17 -3 -7
BITMAP
0E
0C
00
0C
0C
0C
0C
0B
0E
0C
18
38
58
D0
B0
E0
E0
ENDCHAR
STARTCHAR uni0459
ENCODING 1113
SWIDTH 794 0
DWIDTH 11 0
BBX 13 7 0 0
BITMAP
0C00
0C00
1DC0
1FC0
D448
F7F0
E3E0
ENDCHAR
STARTCHAR uni045A
ENCODING 1114
SWIDTH 751 0
DWIDTH 11 0
BBX 11 7 1 0
BITMAP
C800
D800
FF00
FF80
99A0
9FE0
8FC0
ENDCHAR
STARTCHAR uni045B
ENCODING 1115
SWIDTH 502 0
DWIDTH 7 0
BBX 8 13 1 0
BITMAP
60
60
60
F8
78
C0
D8
FC
E8
E8
D9
DE
CC
ENDCHAR
STARTCHAR uni045C
ENCODING 1116
SWIDTH 465 0
DWIDTH 7 0
BBX 7 13 1 0
BITMAP
08
0C
18
10
10
00
DC
FC
AC
E0
E2
FE
9C
ENDCHAR
STARTCHAR uni045D
ENCODING 1117
SWIDTH 462 0
DWIDTH 6 0
BBX 7 13 1 0
BITMAP
40
40
60
20
10
00
C8
D8
D8
98
B2
FE
DC
ENDCHAR
STARTCHAR uni045E
ENCODING 1118
SWIDTH 479 0
DWIDTH 7 0
BBX 8 19 0 -7
BITMAP
02
66
3C
38
00
64
6C
6C
4C
5D
7E
6C
18
38
58
D0
B0
F0
E0
ENDCHAR
STARTCHAR uni045F
ENCODING 1119
SWIDTH 600 0
DWIDTH 8 0
BBX 7 9 1 -2
BITMAP
C8
D8
D8
98
B2
FE
DC
C0
C0
ENDCHAR
STARTCHAR uni0462
ENCODING 1122
SWIDTH 721 0
DWIDTH 10 0
BBX 10 13 0 0
BITMAP
1800
1800
7C00
7C00
3000
3F80
7FC0
E0C0
20C0
20C0
3180
3F80
1E00
ENDCHAR
STARTCHAR uni0463
ENCODING 1123
SWIDTH 517 0
DWIDTH 7 0
BBX 9 10 0 0
BITMAP
2000
3000
7800
F800
6000
7C00
7C00
4480
7F80
3E00
ENDCHAR
STARTCHAR uni046A
ENCODING 1130
SWIDTH 1234 0
DWIDTH 17 0
BBX 19 13 0 0
BITMAP
1FFFC0
1FFF80
060600
020600
030C00
031C00
01F800
03F800
06CC00
0CCC00
4CCE60
F8C7C0
70C380
ENDCHAR
STARTCHAR uni046B
ENCODING 1131
SWIDTH 788 0
DWIDTH 11 0
BBX 13 13 0 0
BITMAP
0180
0180
0380
0280
0280
0380
1FE0
1DE0
0580
0D80
DD88
F6F0
6660
ENDCHAR
STARTCHAR uni0472
ENCODING 1138
SWIDTH 816 0
DWIDTH 11 0
BBX 10 13 1 0
BITMAP
0F00
3F80
71C0
60C0
C0C0
D0C0
FFC0
C2C0
C0C0
C180
E180
7F00
3E00
ENDCHAR
STARTCHAR uni0473
ENCODING 1139
SWIDTH 451 0
DWIDTH 6 0
BBX 8 7 0 0
BITMAP
38
7C
4D
FF
7E
7C
38
ENDCHAR
STARTCHAR uni0474
ENCODING 1140
SWIDTH 797 0
DWIDTH 11 0
BBX 12 13 2 0
BITMAP
C1F0
C1F0
C180
C180
C180
C300
C300
C300
C600
C600
CC00
7800
7000
ENDCHAR
STARTCHAR uni0475
ENCODING 1141
SWIDTH 420 0
DWIDTH 6 0
BBX 7 7 1 0
BITMAP
8E
9A
98
B0
F0
E0
C0
ENDCHAR
STARTCHAR uni048A
ENCODING 1162
SWIDTH 890 0
DWIDTH 12 0
BBX 14 20 0 -3
BITMAP
0660
07C0
0380
0000
3830
7830
CC30
9860
1860
1860
1860
18E0
30E0
31E0
3164
3E7C
1C78
0030
0060
0060
ENDCHAR
STARTCHAR uni048B
ENCODING 1163
SWIDTH 462 0
DWIDTH 6 0
BBX 7 14 1 -2
BITMAP
04
CC
78
70
00
C8
D8
D8
98
B2
FE
DC
18
10
ENDCHAR
STARTCHAR uni048C
ENCODING 1164
SWIDTH 721 0
DWIDTH 10 0
BBX 10 13 0 0
BITMAP
1800
1800
7C00
7C00
3000
3F80
7FC0
E0C0
20C0
20C0
3180
3F80
1E00
ENDCHAR
STARTCHAR uni048D
ENCODING 1165
SWIDTH 517 0
DWIDTH 7 0
BBX 9 10 0 0
BITMAP
2000
3000
7800
F800
6000
7C00
7C00
4480
7F80
3E00
ENDCHAR
STARTCHAR uni048E
ENCODING 1166
SWIDTH 805 0
DWIDTH 11 0
BBX 12 14 1 -1
BITMAP
0F80
3FC0
20C0
6CE0
CDC0
CDC0
8CF0
BF80
BF00
9800
9800
D800
F800
7000
ENDCHAR
STARTCHAR uni048F
ENCODING 1167
SWIDTH 481 0
DWIDTH 7 0
BBX 11 14 -2 -7
BITMAP
1F00
1F00
1B00
1B00
1F60
3FC0
3F80
5000
5000
5000
D000
F000
F000
6000
ENDCHAR
STARTCHAR uni0490
ENCODING 1168
SWIDTH 645 0
DWIDTH 9 0
BBX 12 16 0 0
BITMAP
0010
0010
0010
1FF0
7FC0
4C00
CC00
6C00
0C00
0C00
0C00
1800
1800
1800
1800
1800
ENDCHAR
STARTCHAR uni0491
ENCODING 1169
SWIDTH 394 0
DWIDTH 6 0
BBX 5 9 1 0
BITMAP
08
18
F8
E0
C0
80
80
80
80
ENDCHAR
STARTCHAR uni0492
ENCODING 1170
SWIDTH 635 0
DWIDTH 9 0
BBX 12 13 0 0
BITMAP
1FF0
7FC0
4C00
CC00
6C00
4C00
3F00
3E00
1800
1800
1800
1800
1800
ENDCHAR
STARTCHAR uni0493
ENCODING 1171
SWIDTH 380 0
DWIDTH 5 0
BBX 7 7 0 0
BITMAP
78
78
18
F0
52
7E
78
ENDCHAR
STARTCHAR uni0494
ENCODING 1172
SWIDTH 884 0
DWIDTH 12 0
BBX 14 20 0 -7
BITMAP
1FF0
7FC0
6C00
CC00
4C00
6C00
0DE0
0FE0
1C30
1864
186C
1878
1870
00E0
01E0
0340
02C0
06C0
0780
0300
ENDCHAR
STARTCHAR uni0495
ENCODING 1173
SWIDTH 441 0
DWIDTH 6 0
BBX 7 12 1 -5
BITMAP
F0
F0
30
60
82
FE
F8
70
D0
B0
E0
40
ENDCHAR
STARTCHAR uni0496
ENCODING 1174
SWIDTH 1234 0
DWIDTH 17 0
BBX 19 18 0 -5
BITMAP
1C21C0
3E63C0
066600
026600
036400
036C00
01F800
03F800
06CC00
0CCC00
4CCE20
F8C7E0
70C3C0
000380
000D80
000900
000F00
000E00
ENDCHAR
STARTCHAR uni0497
ENCODING 1175
SWIDTH 803 0
DWIDTH 11 0
BBX 13 12 0 -5
BITMAP
36C0
75E0
1F40
1F00
D708
F5D8
65E0
00C0
0140
02C0
0380
0100
ENDCHAR
STARTCHAR uni0498
ENCODING 1176
SWIDTH 725 0
DWIDTH 10 0
BBX 9 18 1 -5
BITMAP
1E00
7F00
6300
6300
6300
0600
1F00
1300
8180
C380
C300
FF00
7C00
1C00
3400
6C00
7800
3800
ENDCHAR
STARTCHAR uni0499
ENCODING 1177
SWIDTH 445 0
DWIDTH 6 0
BBX 8 12 0 -5
BITMAP
38
7C
4C
30
4D
FF
7C
18
38
58
70
20
ENDCHAR
STARTCHAR uni049A
ENCODING 1178
SWIDTH 937 0
DWIDTH 13 0
BBX 15 18 0 -5
BITMAP
1F08
3F18
6318
6618
6630
6660
0FC0
0F80
06C0
06E0
CC62
7C7E
7838
0078
00D0
00B0
01F0
00E0
ENDCHAR
STARTCHAR uni049B
ENCODING 1179
SWIDTH 531 0
DWIDTH 7 0
BBX 8 12 1 -5
BITMAP
DC
FC
AC
E0
E1
FF
9E
18
28
78
70
20
ENDCHAR
STARTCHAR uni049C
ENCODING 1180
SWIDTH 937 0
DWIDTH 13 0
BBX 15 13 0 0
BITMAP
1F08
3F18
6318
6618
66B0
66E0
0FC0
0F80
07C0
07E0
CD62
7C7C
7838
ENDCHAR
STARTCHAR uni049D
ENCODING 1181
SWIDTH 485 0
DWIDTH 7 0
BBX 8 7 1 0
BITMAP
DC
DC
B4
E0
F3
BE
9C
ENDCHAR
STARTCHAR uni049E
ENCODING 1182
SWIDTH 937 0
DWIDTH 13 0
BBX 15 13 0 0
BITMAP
1F08
3F18
6318
6F18
6FB0
6660
0FC0
0F80
06C0
06E0
CC62
7C7C
7838
ENDCHAR
STARTCHAR uni049F
ENCODING 1183
SWIDTH 473 0
DWIDTH 7 0
BBX 7 13 1 0
BITMAP
60
60
60
F8
78
C0
DC
FC
E4
A0
E2
FE
DC
ENDCHAR
STARTCHAR uni04A0
ENCODING 1184
SWIDTH 937 0
DWIDTH 13 0
BBX 15 13 0 0
BITMAP
0008
7F18
3F18
0618
0630
0660
0FC0
0F80
06C0
06E0
CC62
7C7C
7838
ENDCHAR
STARTCHAR uni04A1
ENCODING 1185
SWIDTH 555 0
DWIDTH 8 0
BBX 9 7 1 0
BITMAP
EE00
7E00
7A00
7000
7980
7F00
6E00
ENDCHAR
STARTCHAR uni04A2
ENCODING 1186
SWIDTH 907 0
DWIDTH 13 0
BBX 14 19 0 -5
BITMAP
0010
3838
7868
8868
8848
18D8
18F0
3FE0
7FC0
18C0
18C0
30C4
30FC
3078
0070
00F0
01B0
01E0
01C0
ENDCHAR
STARTCHAR uni04A3
ENCODING 1187
SWIDTH 515 0
DWIDTH 7 0
BBX 8 12 1 -5
BITMAP
C8
C8
F8
F8
99
9E
8C
18
28
58
70
20
ENDCHAR
STARTCHAR uni04A4
ENCODING 1188
SWIDTH 873 0
DWIDTH 12 0
BBX 16 13 0 0
BITMAP
383F
783E
8860
8860
18C0
18C0
3FC0
7FC0
18C0
18C0
30C4
30FC
3070
ENDCHAR
STARTCHAR uni04A5
ENCODING 1189
SWIDTH 475 0
DWIDTH 7 0
BBX 7 8 1 0
BITMAP
04
CE
C8
F8
FA
9A
9E
9C
ENDCHAR
STARTCHAR uni04A8
ENCODING 1192
SWIDTH 997 0
DWIDTH 14 0
BBX 15 13 1 0
BITMAP
1C00
3CE0
73F0
6338
C618
C618
C618
C618
C618
C630
6366
7FFE
1FF8
ENDCHAR
STARTCHAR uni04A9
ENCODING 1193
SWIDTH 574 0
DWIDTH 8 0
BBX 10 7 0 0
BITMAP
3000
6E00
4B00
CB00
4AC0
6F80
3F00
ENDCHAR
STARTCHAR uni04AA
ENCODING 1194
SWIDTH 781 0
DWIDTH 11 0
BBX 11 20 1 -7
BITMAP
0F00
3F00
7180
6180
C180
C000
C000
C000
C000
C000
E1A0
7FE0
3F80
0300
0700
0F00
0B00
1A00
1E00
0C00
ENDCHAR
STARTCHAR uni04AB
ENCODING 1195
SWIDTH 431 0
DWIDTH 6 0
BBX 7 12 0 -5
BITMAP
38
78
48
C0
C2
7E
7C
38
78
50
70
20
ENDCHAR
STARTCHAR uni04AC
ENCODING 1196
SWIDTH 697 0
DWIDTH 10 0
BBX 13 18 0 -5
BITMAP
1FF8
7FF0
4300
C600
4600
0600
0600
0600
0600
0C00
0C00
0F00
0600
1A00
1200
3600
3C00
0800
ENDCHAR
STARTCHAR uni04AD
ENCODING 1197
SWIDTH 784 0
DWIDTH 11 0
BBX 11 12 1 -5
BITMAP
D980
FB80
FF80
DD80
DD20
D9E0
99C0
0380
0780
0500
0700
0200
ENDCHAR
STARTCHAR uni04AE
ENCODING 1198
SWIDTH 677 0
DWIDTH 9 0
BBX 8 13 2 0
BITMAP
C3
C3
E6
66
6C
3C
38
30
10
30
30
30
30
ENDCHAR
STARTCHAR uni04AF
ENCODING 1199
SWIDTH 472 0
DWIDTH 7 0
BBX 8 12 1 -5
BITMAP
88
98
D8
DF
D4
F0
E0
C0
C0
40
40
40
ENDCHAR
STARTCHAR uni04B0
ENCODING 1200
SWIDTH 677 0
DWIDTH 9 0
BBX 8 13 2 0
BITMAP
C3
C3
66
66
6C
3C
38
7C
7C
30
30
30
30
ENDCHAR
STARTCHAR uni04B1
ENCODING 1201
SWIDTH 472 0
DWIDTH 7 0
BBX 9 12 0 -5
BITMAP
4400
4C00
6C00
6F80
6A00
7800
7000
F800
7000
2000
2000
2000
ENDCHAR
STARTCHAR uni04B2
ENCODING 1202
SWIDTH 716 0
DWIDTH 10 0
BBX 12 18 0 -5
BITMAP
3860
FCC0
8DC0
0F80
0F00
0600
0E00
1E00
1E00
3300
6310
E3F0
C1C0
0380
0680
0D80
0F80
0700
ENDCHAR
STARTCHAR uni04B3
ENCODING 1203
SWIDTH 601 0
DWIDTH 8 0
BBX 10 12 0 -5
BITMAP
3600
7F00
5A00
1800
D840
FFC0
6F80
0600
0A00
1E00
1C00
0800
ENDCHAR
STARTCHAR uni04B4
ENCODING 1204
SWIDTH 1040 0
DWIDTH 15 0
BBX 16 18 0 -5
BITMAP
1FEC
7FCC
430C
C31C
4618
4618
0618
0618
0638
0C38
0C58
07DF
070E
001C
007C
006C
0078
0070
ENDCHAR
STARTCHAR uni04B5
ENCODING 1205
SWIDTH 501 0
DWIDTH 7 0
BBX 7 15 1 -5
BITMAP
7C
78
00
C8
D8
D8
98
B2
FE
CC
38
78
50
70
20
ENDCHAR
STARTCHAR uni04B6
ENCODING 1206
SWIDTH 804 0
DWIDTH 11 0
BBX 11 18 2 -5
BITMAP
C100
C300
C300
C300
C300
C700
CF00
FB00
7200
0200
07A0
03E0
0180
0780
0D00
0900
0F00
0E00
ENDCHAR
STARTCHAR uni04B7
ENCODING 1207
SWIDTH 631 0
DWIDTH 9 0
BBX 10 13 0 -5
BITMAP
1800
3F00
2700
2C00
6800
D840
9FC0
0F80
0700
0F00
0A00
0E00
0800
ENDCHAR
STARTCHAR uni04B8
ENCODING 1208
SWIDTH 773 0
DWIDTH 11 0
BBX 8 13 2 0
BITMAP
C1
C3
C3
C3
D3
D7
D7
FB
7B
32
26
06
06
ENDCHAR
STARTCHAR uni04B9
ENCODING 1209
SWIDTH 575 0
DWIDTH 8 0
BBX 10 9 0 0
BITMAP
0400
1C00
3F00
3B00
2600
6C40
C8C0
8F80
0F00
ENDCHAR
STARTCHAR uni04BA
ENCODING 1210
SWIDTH 755 0
DWIDTH 11 0
BBX 11 13 1 0
BITMAP
2000
7000
6000
6000
6000
6000
6F00
7F00
6180
E180
C320
C3E0
C1C0
ENDCHAR
STARTCHAR uni04BB
ENCODING 1211
SWIDTH 502 0
DWIDTH 7 0
BBX 8 14 1 0
BITMAP
38
38
68
48
D8
D0
E0
F8
FC
A8
E8
D9
DE
8C
ENDCHAR
STARTCHAR uni04BC
ENCODING 1212
SWIDTH 808 0
DWIDTH 11 0
BBX 12 13 1 0
BITMAP
0780
0FC0
18C0
3860
3040
B0C0
FFC0
7F80
3000
3000
3810
1FF0
0FC0
ENDCHAR
STARTCHAR uni04BD
ENCODING 1213
SWIDTH 483 0
DWIDTH 7 0
BBX 9 7 0 0
BITMAP
1C00
3E00
3600
AC00
7980
3F00
1E00
ENDCHAR
STARTCHAR uni04BE
ENCODING 1214
SWIDTH 808 0
DWIDTH 11 0
BBX 12 17 1 -4
BITMAP
0780
0FC0
18C0
3860
3040
B0C0
FFC0
7F80
3000
3000
3810
1FF0
0FC0
0800
1800
0E00
0E00
ENDCHAR
STARTCHAR uni04BF
ENCODING 1215
SWIDTH 483 0
DWIDTH 7 0
BBX 9 11 0 -4
BITMAP
1C00
3E00
3600
AC00
F980
3300
3E00
0800
1800
1800
0E00
ENDCHAR
STARTCHAR uni04C0
ENCODING 1216
SWIDTH 495 0
DWIDTH 7 0
BBX 8 13 0 0
BITMAP
7F
3E
18
18
18
18
18
18
10
30
30
7C
FC
ENDCHAR
STARTCHAR uni04C1
ENCODING 1217
SWIDTH 1234 0
DWIDTH 17 0
BBX 19 16 0 0
BITMAP
000C00
00C800
007800
1C21C0
3E63C0
066600
026600
036400
036C00
01F800
03F800
06CC00
0CCC00
4CCE60
F8C7C0
70C380
ENDCHAR
STARTCHAR uni04C2
ENCODING 1218
SWIDTH 717 0
DWIDTH 10 0
BBX 12 12 0 0
BITMAP
0080
1980
0F00
0E00
0000
36C0
75E0
1F40
1F00
D730
F5E0
65C0
ENDCHAR
STARTCHAR uni04C3
ENCODING 1219
SWIDTH 937 0
DWIDTH 13 0
BBX 15 18 0 -5
BITMAP
1F08
3F18
6318
6618
6630
6660
0FC0
0F80
06C0
06E0
CC62
7C7E
7838
0078
00D0
00B0
01F0
00E0
ENDCHAR
STARTCHAR uni04C4
ENCODING 1220
SWIDTH 531 0
DWIDTH 7 0
BBX 8 12 1 -5
BITMAP
DC
FC
AC
E0
E1
FF
9E
18
28
78
70
20
ENDCHAR
STARTCHAR uni04C5
ENCODING 1221
SWIDTH 861 0
DWIDTH 12 0
BBX 14 16 0 -3
BITMAP
00C0
01C0
01C0
01C0
01C0
03C0
03C0
02C0
06C0
06C0
CCC4
F878
7070
0030
0060
0040
ENDCHAR
STARTCHAR uni04C6
ENCODING 1222
SWIDTH 549 0
DWIDTH 8 0
BBX 9 10 0 -3
BITMAP
0C00
0C00
1C00
5C80
D480
F780
E700
0600
0600
0400
ENDCHAR
STARTCHAR uni04C7
ENCODING 1223
SWIDTH 907 0
DWIDTH 13 0
BBX 14 19 0 -5
BITMAP
0010
3838
7868
8868
8848
18D8
18F0
3FE0
7FC0
18C0
18C0
30C4
30FC
3078
0070
00F0
01B0
01E0
01C0
ENDCHAR
STARTCHAR uni04C8
ENCODING 1224
SWIDTH 515 0
DWIDTH 7 0
BBX 8 12 1 -5
BITMAP
C8
C8
F8
F8
99
9E
8C
18
28
58
70
20
ENDCHAR
STARTCHAR uni04C9
ENCODING 1225
SWIDTH 873 0
DWIDTH 12 0
BBX 14 17 0 -3
BITMAP
0010
3838
7868
8868
8848
18D8
18F0
3FE0
7FC0
18C0
18C0
30C4
30F8
3070
0030
0060
0040
ENDCHAR
STARTCHAR uni04CA
ENCODING 1226
SWIDTH 475 0
DWIDTH 7 0
BBX 7 9 1 -2
BITMAP
C8
C8
F8
FA
9A
9E
9C
08
18
ENDCHAR
STARTCHAR uni04CB
ENCODING 1227
SWIDTH 773 0
DWIDTH 11 0
BBX 8 18 2 -5
BITMAP
C1
C3
C3
C3
C3
C7
CF
FB
73
02
06
0E
0E
3C
68
48
78
70
ENDCHAR
STARTCHAR uni04CC
ENCODING 1228
SWIDTH 555 0
DWIDTH 8 0
BBX 10 9 0 -1
BITMAP
1800
3F00
2700
2C00
6840
D8C0
9F80
0F00
0300
ENDCHAR
STARTCHAR uni04CD
ENCODING 1229
SWIDTH 1133 0
DWIDTH 16 0
BBX 18 16 0 -3
BITMAP
030C00
038C00
039C00
039C00
07BC00
07BC00
07AC00
05EC00
0DEC00
0DCC00
CDCCC0
F8C780
708700
000600
000600
000400
ENDCHAR
STARTCHAR uni04CE
ENCODING 1230
SWIDTH 734 0
DWIDTH 10 0
BBX 12 10 0 -3
BITMAP
0C80
0D80
1F80
5680
D690
F6F0
E4E0
00C0
0080
0180
ENDCHAR
STARTCHAR uni04CF
ENCODING 1231
SWIDTH 222 0
DWIDTH 3 0
BBX 4 12 0 0
BITMAP
30
30
30
20
60
60
60
60
60
40
40
C0
ENDCHAR
STARTCHAR uni04D0
ENCODING 1232
SWIDTH 786 0
DWIDTH 11 0
BBX 12 16 1 0
BITMAP
0040
0640
0380
07E0
1FE0
3800
6180
6180
C180
C180
C300
C300
C300
C730
7FE0
79C0
ENDCHAR
STARTCHAR uni04D1
ENCODING 1233
SWIDTH 470 0
DWIDTH 7 0
BBX 8 12 0 0
BITMAP
02
22
3C
3C
00
18
3C
6C
4C
CD
7F
76
ENDCHAR
STARTCHAR uni04D2
ENCODING 1234
SWIDTH 786 0
DWIDTH 11 0
BBX 12 15 1 0
BITMAP
06C0
06C0
07E0
1FE0
3800
6180
6180
C180
C180
C300
C300
C300
C730
7FE0
79C0
ENDCHAR
STARTCHAR uni04D3
ENCODING 1235
SWIDTH 470 0
DWIDTH 7 0
BBX 8 10 0 0
BITMAP
36
36
00
18
3C
6C
4C
CD
7F
76
ENDCHAR
STARTCHAR uni04D4
ENCODING 1236
SWIDTH 1015 0
DWIDTH 14 0
BBX 15 13 1 0
BITMAP
0EFC
1EFC
38C0
6180
6180
C180
C1F8
C3F8
C300
C300
C782
7DFE
38F8
ENDCHAR
STARTCHAR uni04D5
ENCODING 1237
SWIDTH 653 0
DWIDTH 9 0
BBX 11 7 0 0
BITMAP
1B80
7F80
6C80
4F00
CE60
7FC0
7780
ENDCHAR
STARTCHAR uni04D6
ENCODING 1238
SWIDTH 686 0
DWIDTH 10 0
BBX 11 16 0 0
BITMAP
0040
0C80
0780
0F80
1FC0
30C0
30C0
30C0
1E00
3E00
7000
6000
E000
6020
7FE0
1F80
ENDCHAR
STARTCHAR uni04D7
ENCODING 1239
SWIDTH 393 0
DWIDTH 6 0
BBX 7 12 0 0
BITMAP
04
64
7C
38
00
38
78
48
D8
62
7E
38
ENDCHAR
STARTCHAR uni04D8
ENCODING 1240
SWIDTH 792 0
DWIDTH 11 0
BBX 10 13 1 0
BITMAP
1E00
7F80
6180
41C0
00C0
00C0
7FC0
FFC0
C180
C180
C300
7F00
3C00
ENDCHAR
STARTCHAR uni04D9
ENCODING 1241
SWIDTH 455 0
DWIDTH 6 0
BBX 8 7 0 0
BITMAP
78
7C
7F
FF
CC
FC
78
ENDCHAR
STARTCHAR uni04DA
ENCODING 1242
SWIDTH 792 0
DWIDTH 11 0
BBX 10 15 1 0
BITMAP
1B00
1B00
1E00
7F80
6180
41C0
00C0
00C0
7FC0
FFC0
C180
C180
C300
7F00
3C00
ENDCHAR
STARTCHAR uni04DB
ENCODING 1243
SWIDTH 455 0
DWIDTH 6 0
BBX 8 10 0 0
BITMAP
6C
6C
00
78
7C
7F
FF
CC
FC
78
ENDCHAR
STARTCHAR uni04DC
ENCODING 1244
SWIDTH 1234 0
DWIDTH 17 0
BBX 19 15 0 0
BITMAP
00D800
00D800
1C21C0
3E63C0
066600
026600
036400
036C00
01F800
03F800
06CC00
0CCC00
4CCE60
F8C7C0
70C380
ENDCHAR
STARTCHAR uni04DD
ENCODING 1245
SWIDTH 717 0
DWIDTH 10 0
BBX 12 10 0 0
BITMAP
0D80
0D80
0000
36C0
75E0
1F40
1F00
D730
F5E0
65C0
ENDCHAR
STARTCHAR uni04DE
ENCODING 1246
SWIDTH 725 0
DWIDTH 10 0
BBX 9 15 1 0
BITMAP
1B00
1B00
1E00
7F00
6300
6300
6300
0600
1F00
1300
8180
C380
C300
FF00
7C00
ENDCHAR
STARTCHAR uni04DF
ENCODING 1247
SWIDTH 435 0
DWIDTH 6 0
BBX 9 17 -1 -7
BITMAP
3600
3600
0000
1C00
3E00
0600
0C00
3980
3300
1E00
1800
3C00
6800
4800
D800
F000
6000
ENDCHAR
STARTCHAR uni04E0
ENCODING 1248
SWIDTH 744 0
DWIDTH 10 0
BBX 10 13 1 0
BITMAP
3F80
7FC0
6180
6300
6300
0600
1F00
1300
8180
C380
C300
FF00
7C00
ENDCHAR
STARTCHAR uni04E1
ENCODING 1249
SWIDTH 435 0
DWIDTH 6 0
BBX 9 14 -1 -7
BITMAP
3F00
3E00
1C00
3000
3180
3700
1C00
1800
3C00
6800
4800
D800
F000
6000
ENDCHAR
STARTCHAR uni04E2
ENCODING 1250
SWIDTH 890 0
DWIDTH 12 0
BBX 14 15 0 0
BITMAP
03C0
07C0
3830
7830
CC30
9860
1860
1860
1860
18E0
30E0
31E0
3164
3E7C
1C78
ENDCHAR
STARTCHAR uni04E3
ENCODING 1251
SWIDTH 462 0
DWIDTH 6 0
BBX 7 10 1 0
BITMAP
78
78
00
C8
D8
D8
98
B2
FE
DC
ENDCHAR
STARTCHAR uni04E4
ENCODING 1252
SWIDTH 890 0
DWIDTH 12 0
BBX 14 15 0 0
BITMAP
06C0
06C0
3830
7830
CC30
9860
1860
1860
1860
18E0
30E0
31E0
3164
3E7C
1C78
ENDCHAR
STARTCHAR uni04E5
ENCODING 1253
SWIDTH 462 0
DWIDTH 6 0
BBX 7 10 1 0
BITMAP
6C
6C
00
C8
D8
D8
98
B2
FE
DC
ENDCHAR
STARTCHAR uni04E6
ENCODING 1254
SWIDTH 816 0
DWIDTH 11 0
BBX 10 15 1 0
BITMAP
0F80
1B00
0F00
3F80
71C0
60C0
C0C0
C0C0
C0C0
C0C0
C0C0
C180
E180
7F00
3E00
ENDCHAR
STARTCHAR uni04E7
ENCODING 1255
SWIDTH 451 0
DWIDTH 6 0
BBX 8 10 0 0
BITMAP
6C
6C
00
38
7C
4F
CF
4C
78
38
ENDCHAR
STARTCHAR uni04E8
ENCODING 1256
SWIDTH 816 0
DWIDTH 11 0
BBX 10 13 1 0
BITMAP
0F00
3F80
71C0
60C0
C0C0
C0C0
FFC0
FFC0
C0C0
C180
E180
7F00
3E00
ENDCHAR
STARTCHAR uni04E9
ENCODING 1257
SWIDTH 451 0
DWIDTH 6 0
BBX 8 7 0 0
BITMAP
38
7C
4C
FF
7E
7C
38
ENDCHAR
STARTCHAR uni04EA
ENCODING 1258
SWIDTH 816 0
DWIDTH 11 0
BBX 10 15 1 0
BITMAP
0F80
1B00
0F00
3F80
71C0
60C0
C0C0
C0C0
FFC0
FFC0
C0C0
C180
E180
7F00
3E00
ENDCHAR
STARTCHAR uni04EB
ENCODING 1259
SWIDTH 451 0
DWIDTH 6 0
BBX 8 10 0 0
BITMAP
6C
6C
00
38
7C
4C
FF
7E
7C
38
ENDCHAR
STARTCHAR uni04EC
ENCODING 1260
SWIDTH 755 0
DWIDTH 11 0
BBX 9 15 1 0
BITMAP
1B00
1B00
3E00
7F00
C380
8180
0180
0180
3F80
3F80
0180
C180
C300
FE00
7C00
ENDCHAR
STARTCHAR uni04ED
ENCODING 1261
SWIDTH 466 0
DWIDTH 7 0
BBX 8 10 0 0
BITMAP
36
2C
00
78
7C
1F
5F
CC
7C
78
ENDCHAR
STARTCHAR uni04EE
ENCODING 1262
SWIDTH 824 0
DWIDTH 12 0
BBX 13 19 0 -4
BITMAP
0780
07C0
3830
7830
D860
1860
1860
18E0
18E0
1F60
0E68
0078
03E0
07C0
0CC0
18C0
1980
0F00
0400
ENDCHAR
STARTCHAR uni04EF
ENCODING 1263
SWIDTH 479 0
DWIDTH 7 0
BBX 8 17 0 -7
BITMAP
3C
3C
00
64
6C
6C
4C
5D
7E
6C
18
38
58
D0
B0
F0
E0
ENDCHAR
STARTCHAR uni04F0
ENCODING 1264
SWIDTH 824 0
DWIDTH 12 0
BBX 13 19 0 -4
BITMAP
06C0
06C0
3830
7830
D860
1860
1860
18E0
18E0
1F60
0E68
0078
03E0
07C0
0CC0
18C0
1980
0F00
0400
ENDCHAR
STARTCHAR uni04F1
ENCODING 1265
SWIDTH 479 0
DWIDTH 7 0
BBX 8 17 0 -7
BITMAP
36
36
00
64
6C
6C
4C
5D
7E
6C
18
38
58
D0
B0
F0
E0
ENDCHAR
STARTCHAR uni04F2
ENCODING 1266
SWIDTH 824 0
DWIDTH 12 0
BBX 13 21 0 -4
BITMAP
0240
0340
02C0
0280
3830
7830
D860
1860
1860
18E0
18E0
1F60
0E68
0078
03E0
07C0
0CC0
18C0
1980
0F00
0400
ENDCHAR
STARTCHAR uni04F3
ENCODING 1267
SWIDTH 479 0
DWIDTH 7 0
BBX 8 20 0 -7
BITMAP
0A
1B
1E
16
24
00
64
6C
6C
4C
5D
7E
6C
18
38
58
D0
B0
F0
E0
ENDCHAR
STARTCHAR uni04F4
ENCODING 1268
SWIDTH 773 0
DWIDTH 11 0
BBX 8 15 2 0
BITMAP
36
36
C1
C3
C3
C3
C3
C7
CF
FB
73
02
06
06
06
ENDCHAR
STARTCHAR uni04F5
ENCODING 1269
SWIDTH 555 0
DWIDTH 8 0
BBX 10 10 0 0
BITMAP
0D80
0D00
1800
3F00
2700
2C00
6840
D8C0
9F80
0F00
ENDCHAR
STARTCHAR uni04F6
ENCODING 1270
SWIDTH 600 0
DWIDTH 8 0
BBX 12 18 0 -5
BITMAP
1FF0
7FC0
4C00
CC00
6C00
0C00
0C00
1800
1800
1800
1800
1C00
1C00
3400
6C00
6C00
7800
3000
ENDCHAR
STARTCHAR uni04F7
ENCODING 1271
SWIDTH 441 0
DWIDTH 6 0
BBX 7 12 1 -5
BITMAP
F0
F0
30
60
82
FE
F8
70
D0
B0
E0
40
ENDCHAR
STARTCHAR uni04F8
ENCODING 1272
SWIDTH 1078 0
DWIDTH 15 0
BBX 15 15 0 0
BITMAP
01B0
01A0
1806
1806
300C
300C
300C
3F8C
7FCC
E0CC
20CC
20D8
3198
3F98
1E18
ENDCHAR
STARTCHAR uni04F9
ENCODING 1273
SWIDTH 702 0
DWIDTH 10 0
BBX 11 10 1 0
BITMAP
1A00
1600
0000
C100
C300
FB00
FF00
8F60
FBC0
7180
ENDCHAR
STARTCHAR uni04FA
ENCODING 1274
SWIDTH 635 0
DWIDTH 9 0
BBX 13 18 -1 -5
BITMAP
0FF8
3FE0
2600
6600
3600
2600
1F80
1F00
0C00
0C00
0C00
0C00
0C00
0C00
1800
D800
F800
7000
ENDCHAR
STARTCHAR uni04FB
ENCODING 1275
SWIDTH 441 0
DWIDTH 6 0
BBX 8 12 0 -5
BITMAP
78
78
18
F0
51
7F
7C
38
68
58
70
20
ENDCHAR
STARTCHAR uni04FC
ENCODING 1276
SWIDTH 716 0
DWIDTH 10 0
BBX 12 18 0 -5
BITMAP
3860
FCC0
8DC0
0F80
0F00
0600
0E00
1E00
1E00
3300
6310
E3F0
C1C0
0380
0680
0D80
0F80
0700
ENDCHAR
STARTCHAR uni04FD
ENCODING 1277
SWIDTH 601 0
DWIDTH 8 0
BBX 10 12 0 -5
BITMAP
3600
7F00
5A00
1800
D840
FFC0
6F80
0600
0A00
1E00
1C00
0800
ENDCHAR
STARTCHAR uni04FE
ENCODING 1278
SWIDTH 712 0
DWIDTH 10 0
BBX 12 13 0 0
BITMAP
3860
78C0
8DC0
0D80
0F00
0700
3F80
3F80
1E00
3300
7310
E3E0
C1C0
ENDCHAR
STARTCHAR uni04FF
ENCODING 1279
SWIDTH 529 0
DWIDTH 7 0
BBX 9 7 0 0
BITMAP
3600
7F00
5E00
7C80
D880
FF80
6F00
ENDCHAR
STARTCHAR uni0510
ENCODING 1296
SWIDTH 706 0
DWIDTH 10 0
BBX 8 13 1 0
BITMAP
1E
3F
63
61
63
30
7C
CC
C1
C1
C3
FF
3C
ENDCHAR
STARTCHAR uni0511
ENCODING 1297
SWIDTH 392 0
DWIDTH 5 0
BBX 7 7 0 0
BITMAP
38
78
70
70
C2
FE
78
ENDCHAR
STARTCHAR uni0512
ENCODING 1298
SWIDTH 884 0
DWIDTH 12 0
BBX 14 18 0 -5
BITMAP
00C0
01C0
01C0
01C0
01C0
03C0
03C0
02C0
06C0
06C0
CCC4
F87C
7078
0070
01F0
01A0
01E0
01C0
ENDCHAR
STARTCHAR uni0513
ENCODING 1299
SWIDTH 631 0
DWIDTH 9 0
BBX 10 12 0 -5
BITMAP
0C00
0C00
0C00
5C00
D440
F7C0
E780
0700
0F00
0A00
0E00
0800
ENDCHAR
STARTCHAR uni051A
ENCODING 1306
SWIDTH 816 0
DWIDTH 11 0
BBX 11 18 1 -5
BITMAP
0F00
3F80
71C0
60C0
C0C0
C0C0
C0C0
C0C0
C0C0
C180
E380
7F00
1C00
0E00
0620
0720
03E0
0180
ENDCHAR
STARTCHAR uni051B
ENCODING 1307
SWIDTH 500 0
DWIDTH 7 0
BBX 9 14 0 -6
BITMAP
0400
1E00
3C00
6C00
4C00
CF80
7B00
7A00
1A00
1A00
1A00
1A00
1C00
0C00
ENDCHAR
STARTCHAR uni051C
ENCODING 1308
SWIDTH 1217 0
DWIDTH 17 0
BBX 17 13 2 0
BITMAP
C18E00
C19E00
C31200
C31200
C31200
C31E00
C70F80
C70F80
C50C00
CD1800
C99800
79F000
70E000
ENDCHAR
STARTCHAR uni051D
ENCODING 1309
SWIDTH 700 0
DWIDTH 10 0
BBX 11 7 1 0
BITMAP
9980
9B80
9BE0
BBC0
FE00
EE00
CC00
ENDCHAR
STARTCHAR uni0524
ENCODING 1316
SWIDTH 892 0
DWIDTH 12 0
BBX 14 18 0 -5
BITMAP
1FFC
7FFC
4C30
CC30
4C60
0C60
0C60
0C60
0C60
1860
1874
187C
1838
0070
01F0
01A0
01E0
01C0
ENDCHAR
STARTCHAR uni0525
ENCODING 1317
SWIDTH 536 0
DWIDTH 8 0
BBX 8 12 1 -5
BITMAP
D8
F8
E8
D8
D9
DF
8E
18
28
68
70
20
ENDCHAR
STARTCHAR uni0526
ENCODING 1318
SWIDTH 818 0
DWIDTH 11 0
BBX 12 18 1 -5
BITMAP
3000
3000
3000
6000
6000
6000
6F00
7F80
6180
E180
C390
C3F0
C1E0
01C0
03C0
0680
0780
0700
ENDCHAR
STARTCHAR uni0527
ENCODING 1319
SWIDTH 542 0
DWIDTH 8 0
BBX 8 19 1 -5
BITMAP
38
38
68
48
D8
D0
E0
F8
FC
A8
E8
D9
DF
8E
1C
28
68
70
20
ENDCHAR
STARTCHAR uni0528
ENCODING 1320
SWIDTH 873 0
DWIDTH 12 0
BBX 16 19 -2 -5
BITMAP
0004
0E0E
1E1A
221A
2212
0636
063C
0FF8
1FF0
0630
0630
0C31
0C3F
0C1C
0C00
0C00
5800
F800
7000
ENDCHAR
STARTCHAR uni0529
ENCODING 1321
SWIDTH 475 0
DWIDTH 7 0
BBX 10 12 -2 -5
BITMAP
1900
1900
1F00
1F40
1340
13C0
1380
1000
1000
D000
7000
2000
ENDCHAR
STARTCHAR uni052E
ENCODING 1326
SWIDTH 884 0
DWIDTH 12 0
BBX 14 18 0 -5
BITMAP
00C0
01C0
01C0
01C0
01C0
03C0
03C0
02C0
06C0
06C0
CCC4
F87C
7078
0070
01F0
01A0
01E0
01C0
ENDCHAR
STARTCHAR uni052F
ENCODING 1327
SWIDTH 631 0
DWIDTH 9 0
BBX 10 12 0 -5
BITMAP
0C00
0C00
0C00
5C00
D440
F7C0
E780
0700
0F00
0A00
0E00
0800
ENDCHAR
STARTCHAR Wgrave
ENCODING 7808
SWIDTH 1217 0
DWIDTH 17 0
BBX 17 17 2 0
BITMAP
080000
0C0000
060000
010000
C18E00
C19E00
C31200
C31200
C31200
C31E00
C70F80
C70F80
C50C00
CD1800
C99800
79F000
70E000
ENDCHAR
STARTCHAR wgrave
ENCODING 7809
SWIDTH 700 0
DWIDTH 10 0
BBX 11 13 1 0
BITMAP
2000
3000
3000
1000
0800
0000
9980
9B80
9BE0
BBC0
FE00
EE00
CC00
ENDCHAR
STARTCHAR Wacute
ENCODING 7810
SWIDTH 1217 0
DWIDTH 17 0
BBX 17 17 2 0
BITMAP
002000
007000
00E000
018000
C18E00
C19E00
C31200
C31200
C31200
C31E00
C70F80
C70F80
C50C00
CD1800
C99800
79F000
70E000
ENDCHAR
STARTCHAR wacute
ENCODING 7811
SWIDTH 700 0
DWIDTH 10 0
BBX 11 13 1 0
BITMAP
0400
0600
0400
0C00
0800
0000
9980
9B80
9BE0
BBC0
FE00
EE00
CC00
ENDCHAR
STARTCHAR Wdieresis
ENCODING 7812
SWIDTH 1217 0
DWIDTH 17 0
BBX 17 15 2 0
BITMAP
036000
02C000
C18E00
C19E00
C31200
C31200
C31200
C31E00
C70F80
C70F80
C50C00
CD1800
C99800
79F000
70E000
ENDCHAR
STARTCHAR wdieresis
ENCODING 7813
SWIDTH 700 0
DWIDTH 10 0
BBX 11 10 1 0
BITMAP
3600
3600
0000
9980
9B80
9BE0
BBC0
FE00
EE00
CC00
ENDCHAR
STARTCHAR uni1E9E
ENCODING 7838
SWIDTH 843 0
DWIDTH 12 0
BBX 10 13 1 0
BITMAP
3380
6FC0
68C0
70C0
71C0
7700
6780
61C0
E0C0
C0C0
C0C0
C380
CF00
ENDCHAR
STARTCHAR uni1EA0
ENCODING 7840
SWIDTH 786 0
DWIDTH 11 0
BBX 12 16 1 -3
BITMAP
07E0
1FE0
3800
6180
6180
C180
C180
C300
C300
C300
C730
7FE0
79C0
0000
1800
1800
ENDCHAR
STARTCHAR uni1EA1
ENCODING 7841
SWIDTH 470 0
DWIDTH 7 0
BBX 8 10 0 -3
BITMAP
18
3C
6C
4C
CD
7F
76
00
30
70
ENDCHAR
STARTCHAR uni1EA2
ENCODING 7842
SWIDTH 786 0
DWIDTH 11 0
BBX 12 17 1 0
BITMAP
0380
03C0
0180
0180
07E0
1FE0
3800
6180
6180
C180
C180
C300
C300
C300
C730
7FE0
79C0
ENDCHAR
STARTCHAR uni1EA3
ENCODING 7843
SWIDTH 470 0
DWIDTH 7 0
BBX 8 13 0 0
BITMAP
08
1C
04
0C
0C
00
18
3C
6C
4C
CD
7F
76
ENDCHAR
STARTCHAR uni1EA4
ENCODING 7844
SWIDTH 786 0
DWIDTH 11 0
BBX 12 22 1 0
BITMAP
0020
0070
00E0
0180
0000
0180
0380
06C0
06C0
07E0
1FE0
3800
6180
6180
C180
C180
C300
C300
C300
C730
7FE0
79C0
ENDCHAR
STARTCHAR uni1EA5
ENCODING 7845
SWIDTH 470 0
DWIDTH 7 0
BBX 9 13 0 0
BITMAP
0180
0300
0C00
1400
3600
0000
1800
3C00
6C00
4C00
CD00
7F00
7600
ENDCHAR
STARTCHAR uni1EA6
ENCODING 7846
SWIDTH 786 0
DWIDTH 11 0
BBX 12 22 1 0
BITMAP
0400
0C00
0700
0100
0000
0180
0380
06C0
06C0
07E0
1FE0
3800
6180
6180
C180
C180
C300
C300
C300
C730
7FE0
79C0
ENDCHAR
STARTCHAR uni1EA7
ENCODING 7847
SWIDTH 470 0
DWIDTH 7 0
BBX 8 13 0 0
BITMAP
40
60
0C
14
36
00
18
3C
6C
4C
CD
7F
76
ENDCHAR
STARTCHAR uni1EA8
ENCODING 7848
SWIDTH 786 0
DWIDTH 11 0
BBX 12 22 1 0
BITMAP
01C0
01C0
00C0
0180
0000
0180
0380
06C0
06C0
07E0
1FE0
3800
6180
6180
C180
C180
C300
C300
C300
C730
7FE0
79C0
ENDCHAR
STARTCHAR uni1EA9
ENCODING 7849
SWIDTH 470 0
DWIDTH 7 0
BBX 9 13 0 0
BITMAP
0300
0380
0980
1F00
3600
2400
1800
3C00
6C00
4C00
CD00
7F00
7600
ENDCHAR
STARTCHAR uni1EAA
ENCODING 7850
SWIDTH 786 0
DWIDTH 11 0
BBX 12 21 1 0
BITMAP
0320
07E0
04C0
0000
0180
0380
06C0
06C0
07E0
1FE0
3800
6180
6180
C180
C180
C300
C300
C300
C730
7FE0
79C0
ENDCHAR
STARTCHAR uni1EAB
ENCODING 7851
SWIDTH 470 0
DWIDTH 7 0
BBX 8 14 0 0
BITMAP
1A
3E
00
1C
14
36
00
18
3C
6C
4C
CD
7F
76
ENDCHAR
STARTCHAR uni1EAC
ENCODING 7852
SWIDTH 786 0
DWIDTH 11 0
BBX 12 20 1 -3
BITMAP
0180
0380
06C0
06C0
07E0
1FE0
3800
6180
6180
C180
C180
C300
C300
C300
C730
7FE0
79C0
0000
1800
1800
ENDCHAR
STARTCHAR uni1EAD
ENCODING 7853
SWIDTH 470 0
DWIDTH 7 0
BBX 8 16 0 -3
BITMAP
0C
1C
14
36
26
00
18
3C
6C
4C
CD
7F
76
00
30
70
ENDCHAR
STARTCHAR uni1EAE
ENCODING 7854
SWIDTH 786 0
DWIDTH 11 0
BBX 12 18 1 0
BITMAP
00C0
01C0
0460
07C0
0380
07E0
1FE0
3800
6180
6180
C180
C180
C300
C300
C300
C730
7FE0
79C0
ENDCHAR
STARTCHAR uni1EAF
ENCODING 7855
SWIDTH 470 0
DWIDTH 7 0
BBX 8 13 0 0
BITMAP
06
0C
22
3E
1C
00
18
3C
6C
4C
CD
7F
76
ENDCHAR
STARTCHAR uni1EB0
ENCODING 7856
SWIDTH 786 0
DWIDTH 11 0
BBX 12 18 1 0
BITMAP
0200
0300
0540
0660
07C0
07E0
1FE0
3800
6180
6180
C180
C180
C300
C300
C300
C730
7FE0
79C0
ENDCHAR
STARTCHAR uni1EB1
ENCODING 7857
SWIDTH 470 0
DWIDTH 7 0
BBX 8 13 0 0
BITMAP
10
18
2A
22
3E
00
18
3C
6C
4C
CD
7F
76
ENDCHAR
STARTCHAR uni1EB2
ENCODING 7858
SWIDTH 786 0
DWIDTH 11 0
BBX 12 19 1 0
BITMAP
0380
0380
0180
0180
07E0
0380
07E0
1FE0
3800
6180
6180
C180
C180
C300
C300
C300
C730
7FE0
79C0
ENDCHAR
STARTCHAR uni1EB3
ENCODING 7859
SWIDTH 470 0
DWIDTH 7 0
BBX 8 14 0 0
BITMAP
1C
1C
0C
0C
3E
3C
00
18
3C
6C
4C
CD
7F
76
ENDCHAR
STARTCHAR uni1EB4
ENCODING 7860
SWIDTH 786 0
DWIDTH 11 0
BBX 12 18 1 0
BITMAP
0360
07C0
0460
0640
07C0
07E0
1FE0
3800
6180
6180
C180
C180
C300
C300
C300
C730
7FE0
79C0
ENDCHAR
STARTCHAR uni1EB5
ENCODING 7861
SWIDTH 470 0
DWIDTH 7 0
BBX 8 13 0 0
BITMAP
1B
3E
22
22
3E
00
18
3C
6C
4C
CD
7F
76
ENDCHAR
STARTCHAR uni1EB6
ENCODING 7862
SWIDTH 786 0
DWIDTH 11 0
BBX 12 19 1 -3
BITMAP
0460
07C0
0380
07E0
1FE0
3800
6180
6180
C180
C180
C300
C300
C300
C730
7FE0
79C0
0000
1800
1800
ENDCHAR
STARTCHAR uni1EB7
ENCODING 7863
SWIDTH 470 0
DWIDTH 7 0
BBX 8 15 0 -3
BITMAP
22
22
3E
1C
00
18
3C
6C
4C
CD
7F
76
00
30
70
ENDCHAR
STARTCHAR uni1EB8
ENCODING 7864
SWIDTH 686 0
DWIDTH 10 0
BBX 11 16 0 -3
BITMAP
0F80
1FC0
30C0
30C0
30C0
1E00
3E00
7000
6000
E000
6020
7FE0
1F80
0000
0C00
0C00
ENDCHAR
STARTCHAR uni1EB9
ENCODING 7865
SWIDTH 393 0
DWIDTH 6 0
BBX 7 10 0 -3
BITMAP
38
78
48
D8
62
7E
38
00
30
30
ENDCHAR
STARTCHAR uni1EBA
ENCODING 7866
SWIDTH 686 0
DWIDTH 10 0
BBX 11 17 0 0
BITMAP
0700
0380
0380
0300
0F80
1FC0
30C0
30C0
30C0
1E00
3E00
7000
6000
E000
6020
7FE0
1F80
ENDCHAR
STARTCHAR uni1EBB
ENCODING 7867
SWIDTH 393 0
DWIDTH 6 0
BBX 7 13 0 0
BITMAP
18
1C
04
1C
18
00
38
78
48
D8
62
7E
38
ENDCHAR
STARTCHAR uni1EBC
ENCODING 7868
SWIDTH 686 0
DWIDTH 10 0
BBX 11 16 0 0
BITMAP
0640
0FC0
0980
0F80
1FC0
30C0
30C0
30C0
1E00
3E00
7000
6000
E000
6020
7FE0
1F80
ENDCHAR
STARTCHAR uni1EBD
ENCODING 7869
SWIDTH 393 0
DWIDTH 6 0
BBX 7 11 0 0
BITMAP
22
7E
4C
00
38
78
48
D8
62
7E
38
ENDCHAR
STARTCHAR uni1EBE
ENCODING 7870
SWIDTH 686 0
DWIDTH 10 0
BBX 11 18 0 0
BITMAP
0060
00C0
0300
0780
0C80
0F80
1FC0
30C0
30C0
30C0
1E00
3E00
7000
6000
E000
6020
7FE0
1F80
ENDCHAR
STARTCHAR uni1EBF
ENCODING 7871
SWIDTH 393 0
DWIDTH 6 0
BBX 8 13 0 0
BITMAP
01
06
18
3C
64
00
38
78
48
D8
62
7E
38
ENDCHAR
STARTCHAR uni1EC0
ENCODING 7872
SWIDTH 686 0
DWIDTH 10 0
BBX 11 18 0 0
BITMAP
1800
0C00
0300
0780
0C80
0F80
1FC0
30C0
30C0
30C0
1E00
3E00
7000
6000
E000
6020
7FE0
1F80
ENDCHAR
STARTCHAR uni1EC1
ENCODING 7873
SWIDTH 393 0
DWIDTH 6 0
BBX 7 13 0 0
BITMAP
C0
60
18
3C
64
00
38
78
48
D8
62
7E
38
ENDCHAR
STARTCHAR uni1EC2
ENCODING 7874
SWIDTH 686 0
DWIDTH 10 0
BBX 11 18 0 0
BITMAP
00E0
00E0
0360
0760
0780
0F80
1FC0
30C0
30C0
30C0
1E00
3E00
7000
6000
E000
6020
7FE0
1F80
ENDCHAR
STARTCHAR uni1EC3
ENCODING 7875
SWIDTH 393 0
DWIDTH 6 0
BBX 8 13 0 0
BITMAP
07
07
0B
3F
3C
64
38
78
48
D8
62
7E
38
ENDCHAR
STARTCHAR uni1EC4
ENCODING 7876
SWIDTH 686 0
DWIDTH 10 0
BBX 11 19 0 0
BITMAP
0640
0780
0000
0300
0780
0C80
0F80
1FC0
30C0
30C0
30C0
1E00
3E00
7000
6000
E000
6020
7FE0
1F80
ENDCHAR
STARTCHAR uni1EC5
ENCODING 7877
SWIDTH 393 0
DWIDTH 6 0
BBX 7 14 0 0
BITMAP
32
2C
00
18
3C
64
00
38
78
48
D8
62
7E
38
ENDCHAR
STARTCHAR uni1EC6
ENCODING 7878
SWIDTH 686 0
DWIDTH 10 0
BBX 11 20 0 -3
BITMAP
0300
0780
0580
0C80
0F80
1FC0
30C0
30C0
30C0
1E00
3E00
7000
6000
E000
6020
7FE0
1F80
0000
0C00
0C00
ENDCHAR
STARTCHAR uni1EC7
ENCODING 7879
SWIDTH 393 0
DWIDTH 6 0
BBX 7 16 0 -3
BITMAP
18
18
3C
2C
64
00
38
78
48
D8
62
7E
38
00
30
30
ENDCHAR
STARTCHAR uni1EC8
ENCODING 7880
SWIDTH 495 0
DWIDTH 7 0
BBX 8 17 0 0
BITMAP
0E
0E
0E
0C
7F
3E
18
18
18
18
18
18
10
30
30
7C
FC
ENDCHAR
STARTCHAR uni1EC9
ENCODING 7881
SWIDTH 246 0
DWIDTH 3 0
BBX 4 13 1 0
BITMAP
40
E0
20
60
60
00
C0
C0
C0
80
90
F0
E0
ENDCHAR
STARTCHAR uni1ECA
ENCODING 7882
SWIDTH 495 0
DWIDTH 7 0
BBX 8 16 0 -3
BITMAP
7F
3E
18
18
18
18
18
18
10
30
30
7C
FC
00
30
30
ENDCHAR
STARTCHAR uni1ECB
ENCODING 7883
SWIDTH 246 0
DWIDTH 3 0
BBX 5 13 0 -3
BITMAP
70
70
00
60
60
60
40
48
78
70
00
E0
C0
ENDCHAR
STARTCHAR uni1ECC
ENCODING 7884
SWIDTH 816 0
DWIDTH 11 0
BBX 10 16 1 -3
BITMAP
0F00
3F80
71C0
60C0
C0C0
C0C0
C0C0
C0C0
C0C0
C180
E180
7F00
3E00
0000
1800
1800
ENDCHAR
STARTCHAR uni1ECD
ENCODING 7885
SWIDTH 451 0
DWIDTH 6 0
BBX 8 10 0 -3
BITMAP
38
7C
4F
CF
4C
78
38
00
30
30
ENDCHAR
STARTCHAR uni1ECE
ENCODING 7886
SWIDTH 816 0
DWIDTH 11 0
BBX 10 17 1 0
BITMAP
0700
0700
0700
0600
0F00
3F80
71C0
60C0
C0C0
C0C0
C0C0
C0C0
C0C0
C180
E180
7F00
3E00
ENDCHAR
STARTCHAR uni1ECF
ENCODING 7887
SWIDTH 451 0
DWIDTH 6 0
BBX 8 13 0 0
BITMAP
18
3C
0C
1C
18
00
38
7C
4F
CF
4C
78
38
ENDCHAR
STARTCHAR uni1ED0
ENCODING 7888
SWIDTH 816 0
DWIDTH 11 0
BBX 10 18 1 0
BITMAP
0040
00C0
0600
0F00
1900
0F00
3F80
71C0
60C0
C0C0
C0C0
C0C0
C0C0
C0C0
C180
E180
7F00
3E00
ENDCHAR
STARTCHAR uni1ED1
ENCODING 7889
SWIDTH 451 0
DWIDTH 6 0
BBX 8 13 0 0
BITMAP
03
06
18
3C
64
00
38
7C
4F
CF
4C
78
38
ENDCHAR
STARTCHAR uni1ED2
ENCODING 7890
SWIDTH 816 0
DWIDTH 11 0
BBX 10 18 1 0
BITMAP
3000
1800
0600
0F00
1900
0F00
3F80
71C0
60C0
C0C0
C0C0
C0C0
C0C0
C0C0
C180
E180
7F00
3E00
ENDCHAR
STARTCHAR uni1ED3
ENCODING 7891
SWIDTH 451 0
DWIDTH 6 0
BBX 8 13 0 0
BITMAP
C0
60
18
3C
64
00
38
7C
4F
CF
4C
78
38
ENDCHAR
STARTCHAR uni1ED4
ENCODING 7892
SWIDTH 816 0
DWIDTH 11 0
BBX 10 18 1 0
BITMAP
00C0
00C0
02C0
07C0
0F00
1F00
3F80
71C0
60C0
C0C0
C0C0
C0C0
C0C0
C0C0
C180
E180
7F00
3E00
ENDCHAR
STARTCHAR uni1ED5
ENCODING 7893
SWIDTH 451 0
DWIDTH 6 0
BBX 8 13 0 0
BITMAP
07
07
0B
3B
3C
64
38
7C
4F
CF
4C
78
38
ENDCHAR
STARTCHAR uni1ED6
ENCODING 7894
SWIDTH 816 0
DWIDTH 11 0
BBX 10 19 1 0
BITMAP
0C80
0B80
0000
0700
0F00
1900
0F00
3F80
71C0
60C0
C0C0
C0C0
C0C0
C0C0
C0C0
C180
E180
7F00
3E00
ENDCHAR
STARTCHAR uni1ED7
ENCODING 7895
SWIDTH 451 0
DWIDTH 6 0
BBX 8 14 0 0
BITMAP
32
3C
00
18
3C
64
00
38
7C
4F
CF
4C
78
38
ENDCHAR
STARTCHAR uni1ED8
ENCODING 7896
SWIDTH 816 0
DWIDTH 11 0
BBX 10 20 1 -3
BITMAP
0600
0F00
0F00
1900
0F00
3F80
71C0
60C0
C0C0
C0C0
C0C0
C0C0
C0C0
C180
E180
7F00
3E00
0000
1800
1800
ENDCHAR
STARTCHAR uni1ED9
ENCODING 7897
SWIDTH 451 0
DWIDTH 6 0
BBX 8 16 0 -3
BITMAP
18
18
3C
2C
64
00
38
7C
4F
CF
4C
78
38
00
30
30
ENDCHAR
STARTCHAR uni1EDA
ENCODING 7898
SWIDTH 816 0
DWIDTH 11 0
BBX 11 17 1 0
BITMAP
0080
01C0
03E0
0660
0FE0
3F80
71C0
60C0
C0C0
C0C0
C0C0
C0C0
C0C0
C180
E180
7F00
3C00
ENDCHAR
STARTCHAR uni1EDB
ENCODING 7899
SWIDTH 451 0
DWIDTH 6 0
BBX 8 13 0 0
BITMAP
04
0C
0C
18
12
06
3E
7C
4F
CF
4C
78
38
ENDCHAR
STARTCHAR uni1EDC
ENCODING 7900
SWIDTH 816 0
DWIDTH 11 0
BBX 11 17 1 0
BITMAP
2000
3000
1860
0460
0FE0
3F80
71C0
60C0
C0C0
C0C0
C0C0
C0C0
C0C0
C180
E180
7F00
3C00
ENDCHAR
STARTCHAR uni1EDD
ENCODING 7901
SWIDTH 451 0
DWIDTH 6 0
BBX 8 13 0 0
BITMAP
40
60
60
30
12
06
3E
7C
4F
CF
4C
78
38
ENDCHAR
STARTCHAR uni1EDE
ENCODING 7902
SWIDTH 816 0
DWIDTH 11 0
BBX 11 17 1 0
BITMAP
0700
0700
0760
0660
0FE0
3F80
71C0
60C0
C0C0
C0C0
C0C0
C0C0
C0C0
C180
E180
7F00
3C00
ENDCHAR
STARTCHAR uni1EDF
ENCODING 7903
SWIDTH 451 0
DWIDTH 6 0
BBX 8 13 0 0
BITMAP
10
38
08
18
1A
06
3E
7C
4F
CF
4C
78
38
ENDCHAR
STARTCHAR uni1EE0
ENCODING 7904
SWIDTH 816 0
DWIDTH 11 0
BBX 11 16 1 0
BITMAP
0C80
1FE0
1360
0FE0
3F80
71C0
60C0
C0C0
C0C0
C0C0
C0C0
C0C0
C180
E180
7F00
3C00
ENDCHAR
STARTCHAR uni1EE1
ENCODING 7905
SWIDTH 451 0
DWIDTH 6 0
BBX 8 11 0 0
BITMAP
24
5C
4A
06
3E
7C
4F
CF
4C
78
38
ENDCHAR
STARTCHAR uni1EE2
ENCODING 7906
SWIDTH 816 0
DWIDTH 11 0
BBX 11 18 1 -3
BITMAP
0060
0060
0FE0
3F80
71C0
60C0
C0C0
C0C0
C0C0
C0C0
C0C0
C180
E180
7F00
3C00
0000
1800
1800
ENDCHAR
STARTCHAR uni1EE3
ENCODING 7907
SWIDTH 451 0
DWIDTH 6 0
BBX 8 12 0 -3
BITMAP
02
06
3E
7C
4F
CF
4C
78
38
00
30
30
ENDCHAR
STARTCHAR uni1EE4
ENCODING 7908
SWIDTH 890 0
DWIDTH 12 0
BBX 14 16 0 -3
BITMAP
3830
7830
CC30
9860
1860
1860
1860
18E0
30E0
31E0
3164
3E7C
1C78
0000
0600
0600
ENDCHAR
STARTCHAR uni1EE5
ENCODING 7909
SWIDTH 462 0
DWIDTH 6 0
BBX 7 10 1 -3
BITMAP
C8
D8
D8
98
B2
FE
DC
00
60
60
ENDCHAR
STARTCHAR uni1EE6
ENCODING 7910
SWIDTH 890 0
DWIDTH 12 0
BBX 14 17 0 0
BITMAP
0380
03C0
01C0
0180
3830
7830
CC30
9860
1860
1860
1860
18E0
30E0
31E0
3164
3E7C
1C78
ENDCHAR
STARTCHAR uni1EE7
ENCODING 7911
SWIDTH 462 0
DWIDTH 6 0
BBX 7 13 1 0
BITMAP
30
38
08
18
30
00
C8
D8
D8
98
B2
FE
DC
ENDCHAR
STARTCHAR uni1EE8
ENCODING 7912
SWIDTH 890 0
DWIDTH 12 0
BBX 14 17 0 0
BITMAP
0020
0060
00CC
018C
3838
7838
CC30
9860
1860
1860
1860
18E0
30E0
31E0
3164
3E7C
1C78
ENDCHAR
STARTCHAR uni1EE9
ENCODING 7913
SWIDTH 512 0
DWIDTH 7 0
BBX 8 13 1 0
BITMAP
08
0C
18
10
12
06
CC
D8
D8
98
B1
FE
DC
ENDCHAR
STARTCHAR uni1EEA
ENCODING 7914
SWIDTH 890 0
DWIDTH 12 0
BBX 14 17 0 0
BITMAP
0800
0C00
060C
030C
3838
7838
CC30
9860
1860
1860
1860
18E0
30E0
31E0
3164
3E7C
1C78
ENDCHAR
STARTCHAR uni1EEB
ENCODING 7915
SWIDTH 512 0
DWIDTH 7 0
BBX 8 13 1 0
BITMAP
40
40
60
20
12
06
CC
D8
D8
98
B1
FE
DC
ENDCHAR
STARTCHAR uni1EEC
ENCODING 7916
SWIDTH 890 0
DWIDTH 12 0
BBX 14 17 0 0
BITMAP
0380
03C0
01CC
018C
3838
7838
CC30
9860
1860
1860
1860
18E0
30E0
31E0
3164
3E7C
1C78
ENDCHAR
STARTCHAR uni1EED
ENCODING 7917
SWIDTH 512 0
DWIDTH 7 0
BBX 8 13 1 0
BITMAP
30
38
08
18
32
06
CC
D8
D8
98
B1
FE
DC
ENDCHAR
STARTCHAR uni1EEE
ENCODING 7918
SWIDTH 890 0
DWIDTH 12 0
BBX 14 16 0 0
BITMAP
0320
07EC
04CC
3838
7838
CC30
9860
1860
1860
1860
18E0
30E0
31E0
3164
3E7C
1C78
ENDCHAR
STARTCHAR uni1EEF
ENCODING 7919
SWIDTH 512 0
DWIDTH 7 0
BBX 8 11 1 0
BITMAP
64
78
4A
06
CC
D8
D8
98
B1
FE
DC
ENDCHAR
STARTCHAR uni1EF0
ENCODING 7920
SWIDTH 890 0
DWIDTH 12 0
BBX 14 18 0 -3
BITMAP
000C
000C
3838
7838
CC30
9860
1860
1860
1860
18E0
30E0
31E0
3164
3E7C
1C78
0000
0600
0600
ENDCHAR
STARTCHAR uni1EF1
ENCODING 7921
SWIDTH 512 0
DWIDTH 7 0
BBX 8 12 1 -3
BITMAP
02
06
CC
D8
D8
98
B1
FE
DC
00
60
60
ENDCHAR
STARTCHAR Ygrave
ENCODING 7922
SWIDTH 851 0
DWIDTH 12 0
BBX 13 22 0 -5
BITMAP
0800
0C00
0600
0100
3830
7830
CC30
9860
1860
1860
18E0
18E0
19E0
1F68
0E78
03C0
07C0
0CC0
08C0
1980
0F00
0600
ENDCHAR
STARTCHAR ygrave
ENCODING 7923
SWIDTH 479 0
DWIDTH 7 0
BBX 8 20 0 -7
BITMAP
20
20
30
10
08
00
64
6C
6C
4C
5D
7E
6C
18
38
58
D0
B0
F0
E0
ENDCHAR
STARTCHAR uni1EF4
ENCODING 7924
SWIDTH 851 0
DWIDTH 12 0
BBX 13 18 0 -5
BITMAP
3830
7830
CC30
9860
1860
1860
18E0
18E0
19E0
1F68
0E78
03C0
07C0
0CC0
08C0
19F0
0F70
0600
ENDCHAR
STARTCHAR uni1EF5
ENCODING 7925
SWIDTH 479 0
DWIDTH 7 0
BBX 8 14 0 -7
BITMAP
64
6C
6C
4C
5D
7E
6C
18
38
58
D0
BE
FC
E0
ENDCHAR
STARTCHAR uni1EF6
ENCODING 7926
SWIDTH 851 0
DWIDTH 12 0
BBX 13 22 0 -5
BITMAP
0180
01C0
01C0
0180
3830
7830
CC30
9860
1860
1860
18E0
18E0
19E0
1F68
0E78
03C0
07C0
0CC0
08C0
1980
0F00
0600
ENDCHAR
STARTCHAR uni1EF7
ENCODING 7927
SWIDTH 479 0
DWIDTH 7 0
BBX 8 20 0 -7
BITMAP
18
1C
04
0C
18
00
64
6C
6C
4C
5D
7E
6C
18
38
58
D0
B0
F0
E0
ENDCHAR
STARTCHAR uni1EF8
ENCODING 7928
SWIDTH 851 0
DWIDTH 12 0
BBX 13 21 0 -5
BITMAP
0320
07E0
04C0
3830
7830
CC30
9860
1860
1860
18E0
18E0
19E0
1F68
0E78
03C0
07C0
0CC0
08C0
1980
0F00
0600
ENDCHAR
STARTCHAR uni1EF9
ENCODING 7929
SWIDTH 479 0
DWIDTH 7 0
BBX 8 18 0 -7
BITMAP
12
3A
6E
00
64
6C
6C
4C
5D
7E
6C
18
38
58
D0
B0
F0
E0
ENDCHAR
STARTCHAR endash
ENCODING 8211
SWIDTH 484 0
DWIDTH 7 0
BBX 5 2 1 4
BITMAP
F8
F8
ENDCHAR
STARTCHAR emdash
ENCODING 8212
SWIDTH 620 0
DWIDTH 9 0
BBX 7 2 1 4
BITMAP
FE
FE
ENDCHAR
STARTCHAR quoteleft
ENCODING 8216
SWIDTH 237 0
DWIDTH 3 0
BBX 3 5 1 9
BITMAP
20
60
60
E0
40
ENDCHAR
STARTCHAR quoteright
ENCODING 8217
SWIDTH 236 0
DWIDTH 3 0
BBX 2 5 2 9
BITMAP
C0
C0
C0
80
80
ENDCHAR
STARTCHAR quotesinglbase
ENCODING 8218
SWIDTH 257 0
DWIDTH 4 0
BBX 3 5 0 -2
BITMAP
60
60
40
C0
C0
ENDCHAR
STARTCHAR quotedblleft
ENCODING 8220
SWIDTH 457 0
DWIDTH 6 0
BBX 6 5 1 9
BITMAP
24
6C
6C
EC
48
ENDCHAR
STARTCHAR quotedblright
ENCODING 8221
SWIDTH 456 0
DWIDTH 6 0
BBX 5 5 2 9
BITMAP
D8
D8
D8
90
90
ENDCHAR
STARTCHAR quotedblbase
ENCODING 8222
SWIDTH 477 0
DWIDTH 7 0
BBX 6 5 0 -2
BITMAP
6C
6C
4C
D8
D8
ENDCHAR
STARTCHAR dagger
ENCODING 8224
SWIDTH 588 0
DWIDTH 8 0
BBX 6 10 2 4
BITMAP
10
30
FC
FC
30
20
20
20
60
60
ENDCHAR
STARTCHAR daggerdbl
ENCODING 8225
SWIDTH 588 0
DWIDTH 8 0
BBX 7 10 1 4
BITMAP
08
18
7E
7E
18
10
7C
FE
10
30
ENDCHAR
STARTCHAR bullet
ENCODING 8226
SWIDTH 512 0
DWIDTH 7 0
BBX 5 5 1 1
BITMAP
70
78
F8
78
70
ENDCHAR
STARTCHAR ellipsis
ENCODING 8230
SWIDTH 777 0
DWIDTH 11 0
BBX 10 3 0 0
BITMAP
6CC0
EEC0
6CC0
ENDCHAR
STARTCHAR perthousand
ENCODING 8240
SWIDTH 1277 0
DWIDTH 18 0
BBX 17 11 1 0
BITMAP
718000
F38000
BF0000
9A0000
F60000
0CE700
0DED80
192980
192980
316D00
31C600
ENDCHAR
STARTCHAR guilsinglleft
ENCODING 8249
SWIDTH 350 0
DWIDTH 5 0
BBX 4 6 0 1
BITMAP
10
70
E0
60
70
10
ENDCHAR
STARTCHAR guilsinglright
ENCODING 8250
SWIDTH 350 0
DWIDTH 5 0
BBX 4 6 1 1
BITMAP
80
C0
60
70
E0
80
ENDCHAR
STARTCHAR fraction
ENCODING 8260
SWIDTH 200 0
DWIDTH 3 0
BBX 6 10 -1 2
BITMAP
08
0C
18
18
30
20
60
40
C0
80
ENDCHAR
STARTCHAR uni2074
ENCODING 8308
SWIDTH 450 0
DWIDTH 6 0
BBX 6 7 1 5
BITMAP
30
68
58
D8
FC
10
10
ENDCHAR
STARTCHAR colonmonetary
ENCODING 8353
SWIDTH 517 0
DWIDTH 7 0
BBX 8 11 0 -1
BITMAP
05
1F
3E
6A
76
54
58
6A
7E
7C
E0
ENDCHAR
STARTCHAR franc
ENCODING 8355
SWIDTH 750 0
DWIDTH 11 0
BBX 9 9 1 0
BITMAP
FF00
7E00
C180
FB80
CF80
DD80
9D80
9800
8800
ENDCHAR
STARTCHAR lira
ENCODING 8356
SWIDTH 525 0
DWIDTH 7 0
BBX 7 9 0 0
BITMAP
0C
3E
32
78
78
F8
F8
7E
FE
ENDCHAR
STARTCHAR uni20A6
ENCODING 8358
SWIDTH 672 0
DWIDTH 9 0
BBX 9 9 0 0
BITMAP
2180
3180
3980
3900
FF80
7F80
FF80
6700
6300
ENDCHAR
STARTCHAR peseta
ENCODING 8359
SWIDTH 1085 0
DWIDTH 15 0
BBX 14 10 1 0
BITMAP
6100
F980
D900
CFD8
CFD8
DB18
F338
E32C
83DC
8198
ENDCHAR
STARTCHAR uni20A9
ENCODING 8361
SWIDTH 775 0
DWIDTH 11 0
BBX 11 8 0 0
BITMAP
2640
7FE0
FFE0
2E80
2F80
2F80
3700
3300
ENDCHAR
STARTCHAR dong
ENCODING 8363
SWIDTH 463 0
DWIDTH 6 0
BBX 8 14 0 -2
BITMAP
02
06
7E
7F
04
3C
7C
6C
4C
CC
7C
68
FC
FC
ENDCHAR
STARTCHAR Euro
ENCODING 8364
SWIDTH 552 0
DWIDTH 8 0
BBX 8 9 0 0
BITMAP
0E
3E
33
23
F8
F8
61
3E
1C
ENDCHAR
STARTCHAR uni20AD
ENCODING 8365
SWIDTH 590 0
DWIDTH 8 0
BBX 9 9 0 0
BITMAP
3300
2300
2600
2C00
FF00
6C00
6C00
6780
4700
ENDCHAR
STARTCHAR uni20AE
ENCODING 8366
SWIDTH 513 0
DWIDTH 7 0
BBX 6 9 1 0
BITMAP
7C
FC
30
38
E0
38
E0
60
60
ENDCHAR
STARTCHAR uni20B1
ENCODING 8369
SWIDTH 557 0
DWIDTH 8 0
BBX 8 9 0 0
BITMAP
3C
7E
FF
FF
FF
6C
78
60
60
ENDCHAR
STARTCHAR uni20B2
ENCODING 8370
SWIDTH 599 0
DWIDTH 8 0
BBX 7 13 1 -2
BITMAP
10
10
3C
74
D4
D4
90
9E
E6
FE
7E
26
20
ENDCHAR
STARTCHAR uni20B4
ENCODING 8372
SWIDTH 570 0
DWIDTH 8 0
BBX 8 9 0 0
BITMAP
3C
7E
26
7F
7E
FF
62
7E
3C
ENDCHAR
STARTCHAR uni20B5
ENCODING 8373
SWIDTH 517 0
DWIDTH 7 0
BBX 6 13 1 -2
BITMAP
10
10
38
7C
D4
DC
90
90
E4
FC
78
20
20
ENDCHAR
STARTCHAR uni20B8
ENCODING 8376
SWIDTH 522 0
DWIDTH 7 0
BBX 6 9 1 0
BITMAP
7C
FC
7C
FC
20
20
20
20
60
ENDCHAR
STARTCHAR uni20B9
ENCODING 8377
SWIDTH 511 0
DWIDTH 7 0
BBX 8 8 0 0
BITMAP
7F
7E
18
18
E0
30
18
0E
ENDCHAR
STARTCHAR uni20BA
ENCODING 8378
SWIDTH 452 0
DWIDTH 6 0
BBX 6 9 0 0
BITMAP
30
28
30
68
F0
60
E4
7C
70
ENDCHAR
STARTCHAR uni20BC
ENCODING 8380
SWIDTH 673 0
DWIDTH 9 0
BBX 9 11 0 0
BITMAP
0400
0400
0400
1E00
3F00
3500
6D80
6980
4980
C980
C980
ENDCHAR
STARTCHAR uni20BD
ENCODING 8381
SWIDTH 505 0
DWIDTH 7 0
BBX 7 9 0 0
BITMAP
3C
7E
26
26
6E
FC
F8
F8
60
ENDCHAR
STARTCHAR uni2116
ENCODING 8470
SWIDTH 1198 0
DWIDTH 17 0
BBX 16 13 1 0
BITMAP
278E
6F9E
68D3
7193
7192
619E
618C
61BE
E1BC
C180
C300
C300
C300
ENDCHAR
STARTCHAR trademark
ENCODING 8482
SWIDTH 1150 0
DWIDTH 16 0
BBX 14 5 1 7
BITMAP
FFEC
3334
2324
2264
226C
ENDCHAR
STARTCHAR partialdiff
ENCODING 8706
SWIDTH 451 0
DWIDTH 6 0
BBX 6 11 0 0
BITMAP
60
30
18
0C
0C
3C
6C
44
CC
6C
78
ENDCHAR
STARTCHAR product
ENCODING 8719
SWIDTH 700 0
DWIDTH 10 0
BBX 9 12 1 0
BITMAP
3F00
7F80
6100
6300
6300
4300
4300
C300
C300
C200
C600
C600
ENDCHAR
STARTCHAR summation
ENCODING 8721
SWIDTH 700 0
DWIDTH 10 0
BBX 9 12 1 0
BITMAP
7F00
7F80
3000
1800
0C00
0E00
0600
0C00
3800
6000
FE00
FE00
ENDCHAR
STARTCHAR minus
ENCODING 8722
SWIDTH 700 0
DWIDTH 10 0
BBX 8 2 1 3
BITMAP
FF
FF
ENDCHAR
STARTCHAR uni2215
ENCODING 8725
SWIDTH 700 0
DWIDTH 10 0
BBX 8 13 1 0
BITMAP
01
03
02
06
0C
0C
18
18
30
30
60
60
C0
ENDCHAR
STARTCHAR uni2219
ENCODING 8729
SWIDTH 700 0
DWIDTH 10 0
BBX 2 2 4 2
BITMAP
C0
C0
ENDCHAR
STARTCHAR radical
ENCODING 8730
SWIDTH 700 0
DWIDTH 10 0
BBX 9 12 1 0
BITMAP
0080
0080
0180
0100
0300
0200
E600
2400
2C00
3C00
3800
1800
ENDCHAR
STARTCHAR infinity
ENCODING 8734
SWIDTH 700 0
DWIDTH 10 0
BBX 10 6 0 1
BITMAP
3300
7F80
4CC0
CCC0
7F80
7300
ENDCHAR
STARTCHAR integral
ENCODING 8747
SWIDTH 700 0
DWIDTH 10 0
BBX 8 18 1 -4
BITMAP
02
0F
0C
0C
0C
08
18
18
18
18
18
18
18
10
30
30
F0
E0
ENDCHAR
STARTCHAR approxequal
ENCODING 8776
SWIDTH 700 0
DWIDTH 10 0
BBX 8 7 1 0
BITMAP
71
5F
C6
20
73
FA
8E
ENDCHAR
STARTCHAR notequal
ENCODING 8800
SWIDTH 700 0
DWIDTH 10 0
BBX 8 8 1 1
BITMAP
04
04
FF
FF
18
FF
FF
20
ENDCHAR
STARTCHAR lessequal
ENCODING 8804
SWIDTH 700 0
DWIDTH 10 0
BBX 8 8 1 0
BITMAP
03
3E
F0
78
0F
02
FE
FF
ENDCHAR
STARTCHAR greaterequal
ENCODING 8805
SWIDTH 700 0
DWIDTH 10 0
BBX 8 8 1 0
BITMAP
60
7C
07
1F
F0
80
FE
FF
ENDCHAR
STARTCHAR lozenge
ENCODING 9674
SWIDTH 700 0
DWIDTH 10 0
BBX 7 14 2 0
BITMAP
08
18
38
3C
6C
44
C6
86
C4
4C
58
70
70
20
ENDCHAR
STARTCHAR fi
ENCODING 64257
SWIDTH 633 0
DWIDTH 9 0
BBX 11 19 0 -5
BITMAP
0C00
1E00
1A00
1600
3580
3580
2800
FF00
7F00
6300
6B00
6B60
6BC0
6980
6800
6800
6800
3000
2000
ENDCHAR
STARTCHAR fl
ENCODING 64258
SWIDTH 688 0
DWIDTH 10 0
BBX 10 19 1 -5
BITMAP
19C0
39C0
2F40
6A40
6A40
5EC0
D680
F680
E700
C700
FE00
BE40
A7C0
A380
E000
E000
E000
E000
4000
ENDCHAR
STARTCHAR .notdef
ENCODING -1
SWIDTH 265 0
DWIDTH 4 0
BBX 1 1 0 0
BITMAP
00
ENDCHAR
STARTCHAR Iacute_J.loclNLD
ENCODING -1
SWIDTH 776 0
DWIDTH 11 0
BBX 12 17 1 0
BITMAP
0410
0C30
1C70
30C0
6080
6180
6180
6180
6180
6380
6380
7D80
3980
0300
8300
FE00
7C00
ENDCHAR
STARTCHAR A.ss01
ENCODING -1
SWIDTH 780 0
DWIDTH 11 0
BBX 11 13 1 0
BITMAP
07E0
1FC0
3880
6180
6180
C180
C180
C380
C300
C300
C700
7F00
7B00
ENDCHAR
STARTCHAR Aacute.ss01
ENCODING -1
SWIDTH 780 0
DWIDTH 11 0
BBX 11 17 1 0
BITMAP
0020
0060
00C0
0100
07E0
1FC0
3880
6180
6180
C180
C180
C380
C300
C300
C700
7F00
7B00
ENDCHAR
STARTCHAR Abreve.ss01
ENCODING -1
SWIDTH 780 0
DWIDTH 11 0
BBX 11 16 1 0
BITMAP
0460
07C0
0380
07E0
1FC0
3880
6180
6180
C180
C180
C380
C300
C300
C700
7F00
7B00
ENDCHAR
STARTCHAR uni1EAE.ss01
ENCODING -1
SWIDTH 780 0
DWIDTH 11 0
BBX 11 18 1 0
BITMAP
00C0
01C0
0460
07C0
0380
07E0
1FC0
3880
6180
6180
C180
C180
C380
C300
C300
C700
7F00
7B00
ENDCHAR
STARTCHAR uni1EB6.ss01
ENCODING -1
SWIDTH 780 0
DWIDTH 11 0
BBX 11 19 1 -3
BITMAP
0460
07C0
0380
07E0
1FC0
3880
6180
6180
C180
C180
C380
C300
C300
C700
7F00
7B00
0000
1800
1800
ENDCHAR
STARTCHAR uni1EB0.ss01
ENCODING -1
SWIDTH 780 0
DWIDTH 11 0
BBX 11 18 1 0
BITMAP
0200
0300
0540
0660
07C0
07E0
1FC0
3880
6180
6180
C180
C180
C380
C300
C300
C700
7F00
7B00
ENDCHAR
STARTCHAR uni1EB2.ss01
ENCODING -1
SWIDTH 780 0
DWIDTH 11 0
BBX 11 19 1 0
BITMAP
0380
0380
0180
0180
07E0
0380
07E0
1FC0
3880
6180
6180
C180
C180
C380
C300
C300
C700
7F00
7B00
ENDCHAR
STARTCHAR uni1EB4.ss01
ENCODING -1
SWIDTH 780 0
DWIDTH 11 0
BBX 11 18 1 0
BITMAP
0360
07C0
0460
0640
07C0
07E0
1FC0
3880
6180
6180
C180
C180
C380
C300
C300
C700
7F00
7B00
ENDCHAR
STARTCHAR Acircumflex.ss01
ENCODING -1
SWIDTH 780 0
DWIDTH 11 0
BBX 11 17 1 0
BITMAP
0180
0380
06C0
06C0
07E0
1FC0
3880
6180
6180
C180
C180
C380
C300
C300
C700
7F00
7B00
ENDCHAR
STARTCHAR uni1EA4.ss01
ENCODING -1
SWIDTH 780 0
DWIDTH 11 0
BBX 12 18 1 0
BITMAP
0030
0060
0180
0280
06C0
07E0
1FC0
3880
6180
6180
C180
C180
C380
C300
C300
C700
7F00
7B00
ENDCHAR
STARTCHAR uni1EAC.ss01
ENCODING -1
SWIDTH 780 0
DWIDTH 11 0
BBX 11 20 1 -3
BITMAP
0180
0380
06C0
06C0
07E0
1FC0
3880
6180
6180
C180
C180
C380
C300
C300
C700
7F00
7B00
0000
1800
1800
ENDCHAR
STARTCHAR uni1EA6.ss01
ENCODING -1
SWIDTH 780 0
DWIDTH 11 0
BBX 11 18 1 0
BITMAP
0800
0400
0180
0280
06C0
07E0
1FC0
3880
6180
6180
C180
C180
C380
C300
C300
C700
7F00
7B00
ENDCHAR
STARTCHAR uni1EA8.ss01
ENCODING -1
SWIDTH 780 0
DWIDTH 11 0
BBX 12 18 1 0
BITMAP
0070
0070
0130
03E0
06C0
07E0
1FC0
3880
6180
6180
C180
C180
C380
C300
C300
C700
7F00
7B00
ENDCHAR
STARTCHAR uni1EAA.ss01
ENCODING -1
SWIDTH 780 0
DWIDTH 11 0
BBX 11 19 1 0
BITMAP
0360
07C0
0000
0380
0280
06C0
07E0
1FC0
3880
6180
6180
C180
C180
C380
C300
C300
C700
7F00
7B00
ENDCHAR
STARTCHAR uni0200.ss01
ENCODING -1
SWIDTH 780 0
DWIDTH 11 0
BBX 11 17 1 0
BITMAP
0500
0580
0580
0280
07E0
1FC0
3880
6180
6180
C180
C180
C380
C300
C300
C700
7F00
7B00
ENDCHAR
STARTCHAR Adieresis.ss01
ENCODING -1
SWIDTH 780 0
DWIDTH 11 0
BBX 11 15 1 0
BITMAP
06C0
06C0
07E0
1FC0
3880
6180
6180
C180
C180
C380
C300
C300
C700
7F00
7B00
ENDCHAR
STARTCHAR uni1EA0.ss01
ENCODING -1
SWIDTH 780 0
DWIDTH 11 0
BBX 11 16 1 -3
BITMAP
07E0
1FC0
3880
6180
6180
C180
C180
C380
C300
C300
C700
7F00
7B00
0000
1800
1800
ENDCHAR
STARTCHAR Agrave.ss01
ENCODING -1
SWIDTH 780 0
DWIDTH 11 0
BBX 11 17 1 0
BITMAP
0800
0C00
0E00
0300
07E0
1FC0
3880
6180
6180
C180
C180
C380
C300
C300
C700
7F00
7B00
ENDCHAR
STARTCHAR uni1EA2.ss01
ENCODING -1
SWIDTH 780 0
DWIDTH 11 0
BBX 11 17 1 0
BITMAP
0380
03C0
0180
0180
07E0
1FC0
3880
6180
6180
C180
C180
C380
C300
C300
C700
7F00
7B00
ENDCHAR
STARTCHAR uni0202.ss01
ENCODING -1
SWIDTH 780 0
DWIDTH 11 0
BBX 11 16 1 0
BITMAP
0180
07C0
0460
07E0
1FC0
3880
6180
6180
C180
C180
C380
C300
C300
C700
7F00
7B00
ENDCHAR
STARTCHAR Amacron.ss01
ENCODING -1
SWIDTH 780 0
DWIDTH 11 0
BBX 11 15 1 0
BITMAP
0380
07C0
07E0
1FC0
3880
6180
6180
C180
C180
C380
C300
C300
C700
7F00
7B00
ENDCHAR
STARTCHAR Aogonek.ss01
ENCODING -1
SWIDTH 780 0
DWIDTH 11 0
BBX 11 17 1 -4
BITMAP
07E0
1FC0
3880
6180
6180
C180
C180
C380
C300
C300
C700
7F00
7B00
0600
0400
0780
0380
ENDCHAR
STARTCHAR Aring.ss01
ENCODING -1
SWIDTH 780 0
DWIDTH 11 0
BBX 11 18 1 0
BITMAP
0100
0380
02C0
0380
0380
07E0
1FC0
3880
6180
6180
C180
C180
C380
C300
C300
C700
7F00
7B00
ENDCHAR
STARTCHAR Aringacute.ss01
ENCODING -1
SWIDTH 780 0
DWIDTH 11 0
BBX 13 20 1 0
BITMAP
0010
0018
03B0
0380
02C0
0380
0100
07E0
1FC0
3880
6180
6180
C180
C180
C380
C300
C300
C700
7F00
7B00
ENDCHAR
STARTCHAR Atilde.ss01
ENCODING -1
SWIDTH 780 0
DWIDTH 11 0
BBX 11 16 1 0
BITMAP
0660
07C0
0CC0
07E0
1FC0
3880
6180
6180
C180
C180
C380
C300
C300
C700
7F00
7B00
ENDCHAR
STARTCHAR AE.ss01
ENCODING -1
SWIDTH 1057 0
DWIDTH 15 0
BBX 14 13 1 0
BITMAP
0EFC
1EFC
38C0
6180
6180
C180
C1F8
C3F8
C300
C300
C780
7DFC
38F8
ENDCHAR
STARTCHAR AEacute.ss01
ENCODING -1
SWIDTH 1057 0
DWIDTH 15 0
BBX 14 17 1 0
BITMAP
0010
0038
0070
00C0
0EFC
1EFC
38C0
6180
6180
C180
C1F8
C3F8
C300
C300
C780
7DFC
38F8
ENDCHAR
STARTCHAR B.ss01
ENCODING -1
SWIDTH 826 0
DWIDTH 12 0
BBX 10 13 1 0
BITMAP
3F00
7FC0
00C0
30C0
60C0
61C0
6F00
6F80
6180
C180
C180
FF00
FE00
ENDCHAR
STARTCHAR C.ss01
ENCODING -1
SWIDTH 704 0
DWIDTH 10 0
BBX 9 13 1 0
BITMAP
0F00
3F00
7180
6180
C180
C000
C000
C000
C000
C000
E180
7F00
3E00
ENDCHAR
STARTCHAR Cacute.ss01
ENCODING -1
SWIDTH 704 0
DWIDTH 10 0
BBX 10 17 1 0
BITMAP
0080
01C0
0380
0600
0F00
3F00
7180
6180
C180
C000
C000
C000
C000
C000
E180
7F00
3E00
ENDCHAR
STARTCHAR Ccaron.ss01
ENCODING -1
SWIDTH 704 0
DWIDTH 10 0
BBX 9 17 1 0
BITMAP
0900
0980
0F00
0600
0F00
3F00
7180
6180
C180
C000
C000
C000
C000
C000
E180
7F00
3E00
ENDCHAR
STARTCHAR Ccedilla.ss01
ENCODING -1
SWIDTH 704 0
DWIDTH 10 0
BBX 9 17 1 -4
BITMAP
0F00
3F80
7180
6180
C180
C000
C000
C000
C000
C080
6180
7F00
1C00
0C00
0C00
3C00
3000
ENDCHAR
STARTCHAR Ccircumflex.ss01
ENCODING -1
SWIDTH 704 0
DWIDTH 10 0
BBX 9 17 1 0
BITMAP
0600
0F00
0F00
1900
0F00
3F00
7180
6180
C180
C000
C000
C000
C000
C000
E180
7F00
3E00
ENDCHAR
STARTCHAR Cdotaccent.ss01
ENCODING -1
SWIDTH 704 0
DWIDTH 10 0
BBX 9 15 1 0
BITMAP
0600
0600
0F00
3F00
7180
6180
C180
C000
C000
C000
C000
C000
E180
7F00
3E00
ENDCHAR
STARTCHAR D.ss01
ENCODING -1
SWIDTH 810 0
DWIDTH 11 0
BBX 10 13 1 0
BITMAP
3E00
7F80
0180
30C0
60C0
60C0
60C0
60C0
60C0
C180
C380
FF00
FC00
ENDCHAR
STARTCHAR uni01C4.ss01
ENCODING -1
SWIDTH 1455 0
DWIDTH 20 0
BBX 20 17 1 0
BITMAP
000220
000360
0001C0
000180
3E1FF0
7F8FF0
018060
30C0E0
60C1C0
60C180
60C380
60C700
60C600
C18C00
C39C00
FF3FC0
FC3FE0
ENDCHAR
STARTCHAR Eth.ss01
ENCODING -1
SWIDTH 821 0
DWIDTH 12 0
BBX 11 13 0 0
BITMAP
0F00
1FC0
18E0
1860
3060
7E60
FE60
3060
3060
60C0
61C0
7F80
7E00
ENDCHAR
STARTCHAR Dcaron.ss01
ENCODING -1
SWIDTH 810 0
DWIDTH 11 0
BBX 10 17 1 0
BITMAP
0900
1B00
0A00
0600
3E00
7F80
0180
30C0
60C0
60C0
60C0
60C0
60C0
C180
C380
FF00
FC00
ENDCHAR
STARTCHAR Dcroat.ss01
ENCODING -1
SWIDTH 821 0
DWIDTH 12 0
BBX 11 13 0 0
BITMAP
0F00
1FC0
18E0
1860
3060
7E60
FE60
3060
3060
60C0
61C0
7F80
7E00
ENDCHAR
STARTCHAR E.ss01
ENCODING -1
SWIDTH 720 0
DWIDTH 10 0
BBX 9 13 1 0
BITMAP
1F00
7F80
6180
6180
6180
7C00
7C00
E000
C000
C080
C180
FF00
7E00
ENDCHAR
STARTCHAR Eacute.ss01
ENCODING -1
SWIDTH 720 0
DWIDTH 10 0
BBX 9 17 1 0
BITMAP
0080
0180
0300
0600
1F00
7F80
6180
6180
6180
7C00
7C00
E000
C000
C080
C180
FF00
7E00
ENDCHAR
STARTCHAR Ebreve.ss01
ENCODING -1
SWIDTH 720 0
DWIDTH 10 0
BBX 9 16 1 0
BITMAP
1180
1F00
0E00
1F00
7F80
6180
6180
6180
7C00
7C00
E000
C000
C080
C180
FF00
7E00
ENDCHAR
STARTCHAR Ecaron.ss01
ENCODING -1
SWIDTH 720 0
DWIDTH 10 0
BBX 9 17 1 0
BITMAP
0900
0B00
0E00
0600
1F00
7F80
6180
6180
6180
7C00
7C00
E000
C000
C080
C180
FF00
7E00
ENDCHAR
STARTCHAR Ecircumflex.ss01
ENCODING -1
SWIDTH 720 0
DWIDTH 10 0
BBX 9 17 1 0
BITMAP
0600
0E00
0B00
1B00
1F00
7F80
6180
6180
6180
7C00
7C00
E000
C000
C080
C180
FF00
7E00
ENDCHAR
STARTCHAR uni1EBE.ss01
ENCODING -1
SWIDTH 720 0
DWIDTH 10 0
BBX 10 18 1 0
BITMAP
00C0
0180
0600
0B00
1B00
1F00
7F80
6180
6180
6180
7C00
7C00
E000
C000
C080
C180
FF00
7E00
ENDCHAR
STARTCHAR uni1EC6.ss01
ENCODING -1
SWIDTH 720 0
DWIDTH 10 0
BBX 9 20 1 -3
BITMAP
0600
0E00
0B00
1B00
1F00
7F80
6180
6180
6180
7C00
7C00
E000
C000
C080
C180
FF00
7E00
0000
3800
3800
ENDCHAR
STARTCHAR uni1EC0.ss01
ENCODING -1
SWIDTH 720 0
DWIDTH 10 0
BBX 9 18 1 0
BITMAP
3000
1800
0600
0B00
1B00
1F00
7F80
6180
6180
6180
7C00
7C00
E000
C000
C080
C180
FF00
7E00
ENDCHAR
STARTCHAR uni1EC2.ss01
ENCODING -1
SWIDTH 720 0
DWIDTH 10 0
BBX 10 18 1 0
BITMAP
01C0
01C0
06C0
0E80
1B00
1F00
7F80
6180
6180
6180
7C00
7C00
E000
C000
C080
C180
FF00
7E00
ENDCHAR
STARTCHAR uni1EC4.ss01
ENCODING -1
SWIDTH 720 0
DWIDTH 10 0
BBX 9 19 1 0
BITMAP
0C80
1F00
0000
0E00
0B00
1B00
1F00
7F80
6180
6180
6180
7C00
7C00
E000
C000
C080
C180
FF00
7E00
ENDCHAR
STARTCHAR uni0204.ss01
ENCODING -1
SWIDTH 720 0
DWIDTH 10 0
BBX 9 17 1 0
BITMAP
1200
1600
1A00
0A00
1F00
7F80
6180
6180
6180
7C00
7C00
E000
C000
C080
C180
FF00
7E00
ENDCHAR
STARTCHAR Edieresis.ss01
ENCODING -1
SWIDTH 720 0
DWIDTH 10 0
BBX 9 15 1 0
BITMAP
1B00
1B00
1F00
7F80
6180
6180
6180
7C00
7C00
E000
C000
C080
C180
FF00
7E00
ENDCHAR
STARTCHAR Edotaccent.ss01
ENCODING -1
SWIDTH 720 0
DWIDTH 10 0
BBX 9 15 1 0
BITMAP
0E00
0E00
1F00
7F80
6180
6180
6180
7C00
7C00
E000
C000
C080
C180
FF00
7E00
ENDCHAR
STARTCHAR uni1EB8.ss01
ENCODING -1
SWIDTH 720 0
DWIDTH 10 0
BBX 9 16 1 -3
BITMAP
1F00
7F80
6180
6180
6180
7C00
7C00
E000
C000
C080
C180
FF00
7E00
0000
3800
3800
ENDCHAR
STARTCHAR Egrave.ss01
ENCODING -1
SWIDTH 720 0
DWIDTH 10 0
BBX 9 17 1 0
BITMAP
2000
3000
3800
0C00
1F00
7F80
6180
6180
6180
7C00
7C00
E000
C000
C080
C180
FF00
7E00
ENDCHAR
STARTCHAR uni1EBA.ss01
ENCODING -1
SWIDTH 720 0
DWIDTH 10 0
BBX 9 17 1 0
BITMAP
0E00
0F00
0700
0600
1F00
7F80
6180
6180
6180
7C00
7C00
E000
C000
C080
C180
FF00
7E00
ENDCHAR
STARTCHAR uni0206.ss01
ENCODING -1
SWIDTH 720 0
DWIDTH 10 0
BBX 9 16 1 0
BITMAP
0600
1F00
1980
1F00
7F80
6180
6180
6180
7C00
7C00
E000
C000
C080
C180
FF00
7E00
ENDCHAR
STARTCHAR Emacron.ss01
ENCODING -1
SWIDTH 720 0
DWIDTH 10 0
BBX 9 15 1 0
BITMAP
0F00
1F00
1F00
7F80
6180
6180
6180
7C00
7C00
E000
C000
C080
C180
FF00
7E00
ENDCHAR
STARTCHAR Eogonek.ss01
ENCODING -1
SWIDTH 720 0
DWIDTH 10 0
BBX 9 17 1 -4
BITMAP
1F00
7F80
6180
6180
6180
7C00
7C00
E000
C000
C080
C180
FF00
7E00
0800
1800
1E00
0E00
ENDCHAR
STARTCHAR uni1EBC.ss01
ENCODING -1
SWIDTH 720 0
DWIDTH 10 0
BBX 9 16 1 0
BITMAP
0980
1F80
1300
1F00
7F80
6180
6180
6180
7C00
7C00
E000
C000
C080
C180
FF00
7E00
ENDCHAR
STARTCHAR F.ss01
ENCODING -1
SWIDTH 671 0
DWIDTH 9 0
BBX 9 13 1 0
BITMAP
FF80
7F00
3000
3000
3000
3000
FF00
FE00
6000
6000
6000
6000
6000
ENDCHAR
STARTCHAR G.ss01
ENCODING -1
SWIDTH 811 0
DWIDTH 11 0
BBX 10 16 1 -3
BITMAP
0F00
3F80
7180
6180
C180
C000
C000
C380
C3C0
C0C0
6080
7F80
1F80
0180
0180
0180
ENDCHAR
STARTCHAR Gbreve.ss01
ENCODING -1
SWIDTH 811 0
DWIDTH 11 0
BBX 10 19 1 -3
BITMAP
1880
0F80
0F00
0F00
3F80
7180
6180
C180
C000
C000
C380
C3C0
C0C0
6080
7F80
1F80
0180
0180
0180
ENDCHAR
STARTCHAR Gcaron.ss01
ENCODING -1
SWIDTH 811 0
DWIDTH 11 0
BBX 10 20 1 -3
BITMAP
0880
0D80
0700
0600
0F00
3F80
7180
6180
C180
C000
C000
C380
C3C0
C0C0
6080
7F80
1F80
0180
0180
0180
ENDCHAR
STARTCHAR Gcircumflex.ss01
ENCODING -1
SWIDTH 811 0
DWIDTH 11 0
BBX 10 20 1 -3
BITMAP
0600
0700
0D00
0900
0F00
3F80
7180
6180
C180
C000
C000
C380
C3C0
C0C0
6080
7F80
1F80
0180
0180
0180
ENDCHAR
STARTCHAR uni0122.ss01
ENCODING -1
SWIDTH 811 0
DWIDTH 11 0
BBX 10 17 1 -4
BITMAP
0F00
3F80
7180
6180
C180
C000
C000
C380
C3C0
C0C0
6080
7F80
1F80
0180
0980
0980
0800
ENDCHAR
STARTCHAR Gdotaccent.ss01
ENCODING -1
SWIDTH 811 0
DWIDTH 11 0
BBX 10 18 1 -3
BITMAP
0600
0600
0F00
3F80
7180
6180
C180
C000
C000
C380
C3C0
C0C0
6080
7F80
1F80
0180
0180
0180
ENDCHAR
STARTCHAR H.ss01
ENCODING -1
SWIDTH 846 0
DWIDTH 12 0
BBX 11 13 1 0
BITMAP
30C0
30C0
30C0
20C0
60C0
60C0
FFE0
FFC0
6180
6180
C180
C180
C180
ENDCHAR
STARTCHAR Hbar.ss01
ENCODING -1
SWIDTH 856 0
DWIDTH 12 0
BBX 11 13 1 0
BITMAP
30C0
30C0
7FE0
FFE0
60C0
60C0
FFE0
FFC0
6180
6180
6180
C180
C180
ENDCHAR
STARTCHAR Hcircumflex.ss01
ENCODING -1
SWIDTH 846 0
DWIDTH 12 0
BBX 11 17 1 0
BITMAP
0700
0500
0D00
0980
30C0
30C0
30C0
20C0
60C0
60C0
FFE0
FFC0
6180
6180
C180
C180
C180
ENDCHAR
STARTCHAR I.ss01
ENCODING -1
SWIDTH 357 0
DWIDTH 5 0
BBX 4 13 1 0
BITMAP
20
70
60
60
60
60
60
60
40
C0
C0
C0
C0
ENDCHAR
STARTCHAR Iacute.ss01
ENCODING -1
SWIDTH 357 0
DWIDTH 5 0
BBX 6 17 1 0
BITMAP
04
0C
1C
30
20
70
60
60
60
60
60
60
40
C0
C0
C0
C0
ENDCHAR
STARTCHAR Iacute_J.loclNLD.ss01
ENCODING -1
SWIDTH 776 0
DWIDTH 11 0
BBX 12 17 1 0
BITMAP
0410
0C30
1C70
30C0
6080
6180
6180
6180
6180
6380
6380
7D80
3980
0300
8300
FE00
7C00
ENDCHAR
STARTCHAR Ibreve.ss01
ENCODING -1
SWIDTH 357 0
DWIDTH 5 0
BBX 6 16 1 0
BITMAP
CC
FC
78
20
70
60
60
60
60
60
60
40
C0
C0
C0
C0
ENDCHAR
STARTCHAR Icircumflex.ss01
ENCODING -1
SWIDTH 357 0
DWIDTH 5 0
BBX 5 17 1 0
BITMAP
30
78
78
C8
20
70
60
60
60
60
60
60
40
C0
C0
C0
C0
ENDCHAR
STARTCHAR uni0208.ss01
ENCODING -1
SWIDTH 357 0
DWIDTH 5 0
BBX 5 17 1 0
BITMAP
90
F0
D0
58
20
70
60
60
60
60
60
60
40
C0
C0
C0
C0
ENDCHAR
STARTCHAR Idieresis.ss01
ENCODING -1
SWIDTH 357 0
DWIDTH 5 0
BBX 5 15 1 0
BITMAP
F8
58
20
70
60
60
60
60
60
60
40
C0
C0
C0
C0
ENDCHAR
STARTCHAR Idotaccent.ss01
ENCODING -1
SWIDTH 357 0
DWIDTH 5 0
BBX 4 15 1 0
BITMAP
30
30
20
70
60
60
60
60
60
60
40
C0
C0
C0
C0
ENDCHAR
STARTCHAR uni1ECA.ss01
ENCODING -1
SWIDTH 357 0
DWIDTH 5 0
BBX 5 16 0 -3
BITMAP
10
38
30
30
30
30
30
30
20
60
60
60
60
00
E0
60
ENDCHAR
STARTCHAR Igrave.ss01
ENCODING -1
SWIDTH 357 0
DWIDTH 5 0
BBX 5 17 0 0
BITMAP
80
C0
60
10
10
38
30
30
30
30
30
30
20
60
60
60
60
ENDCHAR
STARTCHAR uni1EC8.ss01
ENCODING -1
SWIDTH 357 0
DWIDTH 5 0
BBX 5 17 1 0
BITMAP
30
38
38
30
20
70
60
60
60
60
60
60
40
C0
C0
C0
C0
ENDCHAR
STARTCHAR uni020A.ss01
ENCODING -1
SWIDTH 357 0
DWIDTH 5 0
BBX 6 16 1 0
BITMAP
30
7C
CC
20
70
60
60
60
60
60
60
40
C0
C0
C0
C0
ENDCHAR
STARTCHAR Imacron.ss01
ENCODING -1
SWIDTH 357 0
DWIDTH 5 0
BBX 5 15 1 0
BITMAP
78
78
20
70
60
60
60
60
60
60
40
C0
C0
C0
C0
ENDCHAR
STARTCHAR Iogonek.ss01
ENCODING -1
SWIDTH 357 0
DWIDTH 5 0
BBX 5 17 0 -4
BITMAP
10
38
30
30
30
30
30
30
20
60
60
60
60
40
C0
70
20
ENDCHAR
STARTCHAR Itilde.ss01
ENCODING -1
SWIDTH 357 0
DWIDTH 5 0
BBX 6 16 1 0
BITMAP
64
FC
98
20
70
60
60
60
60
60
60
40
C0
C0
C0
C0
ENDCHAR
STARTCHAR J.ss01
ENCODING -1
SWIDTH 716 0
DWIDTH 10 0
BBX 9 13 1 0
BITMAP
3F80
7F80
C300
C300
C300
4300
0300
0300
0200
8600
C600
FC00
7800
ENDCHAR
STARTCHAR Jcircumflex.ss01
ENCODING -1
SWIDTH 716 0
DWIDTH 10 0
BBX 9 17 1 0
BITMAP
0600
0E00
1B00
1B00
3F80
7F80
C300
C300
C300
4300
0300
0300
0200
8600
C600
FC00
7800
ENDCHAR
STARTCHAR K.ss01
ENCODING -1
SWIDTH 779 0
DWIDTH 11 0
BBX 10 13 1 0
BITMAP
30C0
30C0
3180
6180
6300
6600
FC00
F800
6C00
C600
C600
C3C0
C3C0
ENDCHAR
STARTCHAR uni0136.ss01
ENCODING -1
SWIDTH 779 0
DWIDTH 11 0
BBX 10 17 1 -4
BITMAP
30C0
30C0
3180
6180
6300
6600
FC00
F800
6C00
C600
C600
C3C0
C3C0
0000
1800
1800
1000
ENDCHAR
STARTCHAR L.ss01
ENCODING -1
SWIDTH 625 0
DWIDTH 9 0
BBX 8 13 1 0
BITMAP
20
70
60
60
60
60
60
60
C0
C0
C0
FF
FE
ENDCHAR
STARTCHAR uni01C7.ss01
ENCODING -1
SWIDTH 1291 0
DWIDTH 18 0
BBX 17 13 1 0
BITMAP
203F80
707F80
60C300
60C300
60C300
604300
600300
600300
C00200
C08600
C0C600
FFFC00
FE3800
ENDCHAR
STARTCHAR Lacute.ss01
ENCODING -1
SWIDTH 625 0
DWIDTH 9 0
BBX 8 17 1 0
BITMAP
04
0C
1C
30
20
70
60
60
60
60
60
60
C0
C0
C0
FF
FE
ENDCHAR
STARTCHAR Lcaron.ss01
ENCODING -1
SWIDTH 625 0
DWIDTH 9 0
BBX 8 13 1 0
BITMAP
20
70
62
62
62
60
60
60
C0
C0
C0
FF
FE
ENDCHAR
STARTCHAR uni013B.ss01
ENCODING -1
SWIDTH 625 0
DWIDTH 9 0
BBX 8 17 1 -4
BITMAP
20
70
60
60
60
60
60
60
C0
C0
C0
FF
FE
00
18
10
10
ENDCHAR
STARTCHAR Ldot.ss01
ENCODING -1
SWIDTH 625 0
DWIDTH 9 0
BBX 8 13 1 0
BITMAP
20
70
60
60
60
60
66
66
C0
C0
C0
FF
FE
ENDCHAR
STARTCHAR uni01C8.ss01
ENCODING -1
SWIDTH 854 0
DWIDTH 12 0
BBX 11 20 1 -7
BITMAP
2000
7000
6000
6060
6060
6000
6060
6060
C040
C040
C040
FFC0
FEC0
00C0
01C0
0280
0480
0580
0700
0600
ENDCHAR
STARTCHAR Lslash.ss01
ENCODING -1
SWIDTH 625 0
DWIDTH 9 0
BBX 9 13 0 0
BITMAP
1000
3800
3000
3600
3C00
3800
7000
F000
2000
6000
6000
7F80
7F00
ENDCHAR
STARTCHAR M.ss01
ENCODING -1
SWIDTH 1139 0
DWIDTH 16 0
BBX 14 13 1 0
BITMAP
271C
6F3C
79CC
71CC
718C
618C
638C
630C
E318
C318
C318
C318
C318
ENDCHAR
STARTCHAR N.ss01
ENCODING -1
SWIDTH 799 0
DWIDTH 11 0
BBX 10 13 1 0
BITMAP
2780
6F80
78C0
7180
7180
6180
6180
6180
E180
C180
C300
C300
C300
ENDCHAR
STARTCHAR uni01CA.ss01
ENCODING -1
SWIDTH 1515 0
DWIDTH 21 0
BBX 20 13 1 0
BITMAP
2787F0
6F8FF0
78D860
719860
719860
618860
618060
618060
E18060
C19040
C318C0
C30F80
C30700
ENDCHAR
STARTCHAR Nacute.ss01
ENCODING -1
SWIDTH 799 0
DWIDTH 11 0
BBX 10 17 1 0
BITMAP
0080
0180
0380
0600
2780
6F80
78C0
7180
7180
6180
6180
6180
E180
C180
C300
C300
C300
ENDCHAR
STARTCHAR Ncaron.ss01
ENCODING -1
SWIDTH 799 0
DWIDTH 11 0
BBX 10 17 1 0
BITMAP
0900
0980
0F00
0600
2780
6F80
78C0
7180
7180
6180
6180
6180
E180
C180
C300
C300
C300
ENDCHAR
STARTCHAR uni0145.ss01
ENCODING -1
SWIDTH 799 0
DWIDTH 11 0
BBX 10 17 1 -4
BITMAP
2780
6F80
78C0
7180
7180
6180
6180
6180
E180
C180
C300
C300
C300
0000
1800
1800
1000
ENDCHAR
STARTCHAR Eng.ss01
ENCODING -1
SWIDTH 792 0
DWIDTH 11 0
BBX 9 18 1 -5
BITMAP
2780
6F80
7980
7180
7180
6180
6180
6180
E300
C300
C300
C300
C200
0600
0600
C400
FC00
7800
ENDCHAR
STARTCHAR uni01CB.ss01
ENCODING -1
SWIDTH 1008 0
DWIDTH 14 0
BBX 13 20 1 -7
BITMAP
2780
6F80
78C0
7198
7198
6180
6198
6198
E198
C190
C310
C310
C330
0030
0070
00A0
01A0
0160
01C0
01C0
ENDCHAR
STARTCHAR Ntilde.ss01
ENCODING -1
SWIDTH 799 0
DWIDTH 11 0
BBX 10 16 1 0
BITMAP
0C80
1F80
1300
2780
6F80
78C0
7180
7180
6180
6180
6180
E180
C180
C300
C300
C300
ENDCHAR
STARTCHAR OE.ss01
ENCODING -1
SWIDTH 1166 0
DWIDTH 16 0
BBX 16 13 1 0
BITMAP
0F3F
3FFE
71E0
60E0
C0E0
C0E0
C0FE
C0FC
C0C0
C1C0
E1C0
7F7E
3C3E
ENDCHAR
STARTCHAR P.ss01
ENCODING -1
SWIDTH 662 0
DWIDTH 9 0
BBX 8 13 1 0
BITMAP
7C
FF
33
33
63
63
67
FE
F8
60
60
C0
C0
ENDCHAR
STARTCHAR Thorn.ss01
ENCODING -1
SWIDTH 658 0
DWIDTH 9 0
BBX 8 13 1 0
BITMAP
30
30
38
FE
E7
63
63
67
FE
F8
60
C0
C0
ENDCHAR
STARTCHAR Q.ss01
ENCODING -1
SWIDTH 816 0
DWIDTH 11 0
BBX 10 17 1 -4
BITMAP
0F00
3F80
71C0
60C0
C0C0
C0C0
C0C0
C0C0
C0C0
C180
6380
7F00
1C00
0600
0700
0300
0100
ENDCHAR
STARTCHAR R.ss01
ENCODING -1
SWIDTH 744 0
DWIDTH 10 0
BBX 9 13 1 0
BITMAP
7C00
FF00
3300
3300
6300
6700
FE00
F800
6C00
6C00
4600
C780
C380
ENDCHAR
STARTCHAR Racute.ss01
ENCODING -1
SWIDTH 744 0
DWIDTH 10 0
BBX 9 17 1 0
BITMAP
0100
0380
0700
0C00
7C00
FF00
3300
3300
6300
6700
FE00
F800
6C00
6C00
4600
C780
C380
ENDCHAR
STARTCHAR Rcaron.ss01
ENCODING -1
SWIDTH 744 0
DWIDTH 10 0
BBX 9 17 1 0
BITMAP
1100
1B00
0E00
0C00
7C00
FF00
3300
3300
6300
6700
FE00
F800
6C00
6C00
4600
C780
C380
ENDCHAR
STARTCHAR uni0156.ss01
ENCODING -1
SWIDTH 744 0
DWIDTH 10 0
BBX 9 17 1 -4
BITMAP
7C00
FF00
3300
3300
6300
6700
FE00
F800
6C00
6C00
4600
C780
C380
0000
1800
1800
1000
ENDCHAR
STARTCHAR uni0210.ss01
ENCODING -1
SWIDTH 744 0
DWIDTH 10 0
BBX 9 17 1 0
BITMAP
2400
3400
1600
1200
7C00
FF00
3300
3300
6300
6700
FE00
F800
6C00
6C00
4600
C780
C380
ENDCHAR
STARTCHAR uni0212.ss01
ENCODING -1
SWIDTH 744 0
DWIDTH 10 0
BBX 9 16 1 0
BITMAP
0C00
1F00
3300
7C00
FF00
3300
3300
6300
6700
FE00
F800
6C00
6C00
4600
C780
C380
ENDCHAR
STARTCHAR T.ss01
ENCODING -1
SWIDTH 631 0
DWIDTH 9 0
BBX 9 13 1 0
BITMAP
FF80
FF80
1800
1800
1800
1800
1800
1800
3000
3000
3000
3000
3000
ENDCHAR
STARTCHAR Tbar.ss01
ENCODING -1
SWIDTH 631 0
DWIDTH 9 0
BBX 9 13 1 0
BITMAP
FF80
FF80
1800
1800
1800
1800
FE00
7E00
3000
3000
3000
3000
3000
ENDCHAR
STARTCHAR Tcaron.ss01
ENCODING -1
SWIDTH 631 0
DWIDTH 9 0
BBX 9 17 1 0
BITMAP
1200
1300
1E00
0C00
FF80
FF80
1800
1800
1800
1800
1800
1800
3000
3000
3000
3000
3000
ENDCHAR
STARTCHAR uni0162.ss01
ENCODING -1
SWIDTH 631 0
DWIDTH 9 0
BBX 9 17 1 -4
BITMAP
FF80
FF80
1800
1800
1800
1800
1800
1000
3000
3000
3000
3000
7000
1800
1800
7000
6000
ENDCHAR
STARTCHAR uni021A.ss01
ENCODING -1
SWIDTH 631 0
DWIDTH 9 0
BBX 9 17 1 -4
BITMAP
FF80
FF80
1800
1800
1800
1800
1800
1800
3000
3000
3000
3000
3000
0000
3000
3000
2000
ENDCHAR
STARTCHAR U.ss01
ENCODING -1
SWIDTH 800 0
DWIDTH 11 0
BBX 10 13 1 0
BITMAP
20C0
70C0
60C0
6180
6180
6180
6180
6380
C380
C780
C580
FD00
7300
ENDCHAR
STARTCHAR Uacute.ss01
ENCODING -1
SWIDTH 800 0
DWIDTH 11 0
BBX 10 17 1 0
BITMAP
0080
01C0
0380
0600
20C0
70C0
60C0
6180
6180
6180
6180
6380
C380
C780
C580
FD00
7300
ENDCHAR
STARTCHAR Ubreve.ss01
ENCODING -1
SWIDTH 800 0
DWIDTH 11 0
BBX 10 16 1 0
BITMAP
1880
1F80
0F00
20C0
70C0
60C0
6180
6180
6180
6180
6380
C380
C780
C580
FD00
7300
ENDCHAR
STARTCHAR Ucircumflex.ss01
ENCODING -1
SWIDTH 800 0
DWIDTH 11 0
BBX 10 17 1 0
BITMAP
0600
0F00
0F00
1900
20C0
70C0
60C0
6180
6180
6180
6180
6380
C380
C780
C580
FD00
7300
ENDCHAR
STARTCHAR uni0214.ss01
ENCODING -1
SWIDTH 800 0
DWIDTH 11 0
BBX 10 17 1 0
BITMAP
1200
1E00
1A00
0900
20C0
70C0
60C0
6180
6180
6180
6180
6380
C380
C780
C580
FD00
7300
ENDCHAR
STARTCHAR Udieresis.ss01
ENCODING -1
SWIDTH 800 0
DWIDTH 11 0
BBX 10 15 1 0
BITMAP
0F80
1B00
20C0
70C0
60C0
6180
6180
6180
6180
6380
C380
C780
C580
FD00
7300
ENDCHAR
STARTCHAR uni1EE4.ss01
ENCODING -1
SWIDTH 800 0
DWIDTH 11 0
BBX 10 16 1 -3
BITMAP
20C0
70C0
60C0
6180
6180
6180
6180
6380
C380
C780
C580
FD00
7300
0000
1800
1800
ENDCHAR
STARTCHAR Ugrave.ss01
ENCODING -1
SWIDTH 800 0
DWIDTH 11 0
BBX 10 17 1 0
BITMAP
2000
3000
1800
0400
20C0
70C0
60C0
6180
6180
6180
6180
6380
C380
C780
C580
FD00
7300
ENDCHAR
STARTCHAR uni1EE6.ss01
ENCODING -1
SWIDTH 800 0
DWIDTH 11 0
BBX 10 17 1 0
BITMAP
0700
0700
0700
0600
20C0
70C0
60C0
6180
6180
6180
6180
6380
C380
C780
C580
FD00
7300
ENDCHAR
STARTCHAR Uhorn.ss01
ENCODING -1
SWIDTH 800 0
DWIDTH 11 0
BBX 12 15 1 0
BITMAP
0030
0030
20F0
70E0
60C0
61C0
6180
6180
6180
6380
C380
C780
C580
FD00
7300
ENDCHAR
STARTCHAR uni1EE8.ss01
ENCODING -1
SWIDTH 800 0
DWIDTH 11 0
BBX 12 17 1 0
BITMAP
0080
01C0
03B0
0630
20F0
70E0
60C0
61C0
6180
6180
6180
6380
C380
C780
C580
FD00
7300
ENDCHAR
STARTCHAR uni1EF0.ss01
ENCODING -1
SWIDTH 800 0
DWIDTH 11 0
BBX 12 18 1 -3
BITMAP
0030
0030
20F0
70E0
60C0
61C0
6180
6180
6180
6380
C380
C780
C580
FD00
7300
0000
1800
1800
ENDCHAR
STARTCHAR uni1EEA.ss01
ENCODING -1
SWIDTH 800 0
DWIDTH 11 0
BBX 12 17 1 0
BITMAP
2000
3000
1830
0430
20F0
70E0
60C0
61C0
6180
6180
6180
6380
C380
C780
C580
FD00
7300
ENDCHAR
STARTCHAR uni1EEC.ss01
ENCODING -1
SWIDTH 800 0
DWIDTH 11 0
BBX 12 17 1 0
BITMAP
0700
0700
0730
0630
20F0
70E0
60C0
61C0
6180
6180
6180
6380
C380
C780
C580
FD00
7300
ENDCHAR
STARTCHAR uni1EEE.ss01
ENCODING -1
SWIDTH 800 0
DWIDTH 11 0
BBX 12 16 1 0
BITMAP
0C80
1FB0
1330
20F0
70E0
60C0
61C0
6180
6180
6180
6380
C380
C780
C580
FD00
7300
ENDCHAR
STARTCHAR Uhungarumlaut.ss01
ENCODING -1
SWIDTH 800 0
DWIDTH 11 0
BBX 10 17 1 0
BITMAP
0500
0580
0D00
0900
20C0
70C0
60C0
6180
6180
6180
6180
6380
C380
C780
C580
FD00
7300
ENDCHAR
STARTCHAR uni0216.ss01
ENCODING -1
SWIDTH 800 0
DWIDTH 11 0
BBX 10 16 1 0
BITMAP
0600
0F80
1980
20C0
70C0
60C0
6180
6180
6180
6180
6380
C380
C780
C580
FD00
7300
ENDCHAR
STARTCHAR Umacron.ss01
ENCODING -1
SWIDTH 800 0
DWIDTH 11 0
BBX 10 15 1 0
BITMAP
0F00
0F00
20C0
70C0
60C0
6180
6180
6180
6180
6380
C380
C780
C580
FD00
7300
ENDCHAR
STARTCHAR Uogonek.ss01
ENCODING -1
SWIDTH 800 0
DWIDTH 11 0
BBX 10 17 1 -4
BITMAP
20C0
70C0
60C0
6180
6180
6180
6180
6380
C380
C780
C580
FD00
7300
0200
0200
0380
0380
ENDCHAR
STARTCHAR Uring.ss01
ENCODING -1
SWIDTH 800 0
DWIDTH 11 0
BBX 10 18 1 0
BITMAP
0200
0F00
0900
0F00
0600
20C0
70C0
60C0
6180
6180
6180
6180
6380
C380
C780
C580
FD00
7300
ENDCHAR
STARTCHAR Utilde.ss01
ENCODING -1
SWIDTH 800 0
DWIDTH 11 0
BBX 10 16 1 0
BITMAP
0C80
1F80
1300
20C0
70C0
60C0
6180
6180
6180
6180
6380
C380
C780
C580
FD00
7300
ENDCHAR
STARTCHAR V.ss01
ENCODING -1
SWIDTH 797 0
DWIDTH 11 0
BBX 9 13 2 0
BITMAP
C180
C180
C180
C180
C180
C300
C300
C300
C600
C600
CC00
7800
7000
ENDCHAR
STARTCHAR W.ss01
ENCODING -1
SWIDTH 1236 0
DWIDTH 17 0
BBX 16 13 2 0
BITMAP
C183
C186
C386
C306
C306
C30C
C70C
C70C
C508
CD18
C9B0
79F0
70E0
ENDCHAR
STARTCHAR Wacute.ss01
ENCODING -1
SWIDTH 1236 0
DWIDTH 17 0
BBX 16 17 2 0
BITMAP
0020
0070
00E0
0180
C183
C186
C386
C306
C306
C30C
C70C
C70C
C508
CD18
C9B0
79F0
70E0
ENDCHAR
STARTCHAR Wcircumflex.ss01
ENCODING -1
SWIDTH 1236 0
DWIDTH 17 0
BBX 16 17 2 0
BITMAP
0180
01C0
0340
0640
C183
C186
C386
C306
C306
C30C
C70C
C70C
C508
CD18
C9B0
79F0
70E0
ENDCHAR
STARTCHAR Wdieresis.ss01
ENCODING -1
SWIDTH 1236 0
DWIDTH 17 0
BBX 16 15 2 0
BITMAP
0360
02C0
C183
C186
C386
C306
C306
C30C
C70C
C70C
C508
CD18
C9B0
79F0
70E0
ENDCHAR
STARTCHAR Wgrave.ss01
ENCODING -1
SWIDTH 1236 0
DWIDTH 17 0
BBX 16 17 2 0
BITMAP
0800
0C00
0700
0100
C183
C186
C386
C306
C306
C30C
C70C
C70C
C508
CD18
C9B0
79F0
70E0
ENDCHAR
STARTCHAR X.ss01
ENCODING -1
SWIDTH 677 0
DWIDTH 9 0
BBX 11 13 -1 0
BITMAP
1860
1860
0CC0
0D80
0F80
0700
0600
0F00
1B00
3980
3180
61C0
C0C0
ENDCHAR
STARTCHAR Y.ss01
ENCODING -1
SWIDTH 776 0
DWIDTH 11 0
BBX 9 13 1 0
BITMAP
6080
6180
6180
6180
6180
6380
6380
7D80
3980
0300
8300
FE00
7C00
ENDCHAR
STARTCHAR Yacute.ss01
ENCODING -1
SWIDTH 776 0
DWIDTH 11 0
BBX 9 17 1 0
BITMAP
0080
0180
0300
0600
6080
6180
6180
6180
6180
6380
6380
7D80
3980
0300
8300
FE00
7C00
ENDCHAR
STARTCHAR Ycircumflex.ss01
ENCODING -1
SWIDTH 776 0
DWIDTH 11 0
BBX 9 17 1 0
BITMAP
0600
0E00
1B00
1B00
6080
6180
6180
6180
6180
6380
6380
7D80
3980
0300
8300
FE00
7C00
ENDCHAR
STARTCHAR Ydieresis.ss01
ENCODING -1
SWIDTH 776 0
DWIDTH 11 0
BBX 9 15 1 0
BITMAP
1B00
1B00
6080
6180
6180
6180
6180
6380
6380
7D80
3980
0300
8300
FE00
7C00
ENDCHAR
STARTCHAR uni1EF4.ss01
ENCODING -1
SWIDTH 776 0
DWIDTH 11 0
BBX 9 16 1 -3
BITMAP
6080
6180
6180
6180
6180
6380
6380
7D80
3980
0300
8300
FE00
7C00
0000
3800
3800
ENDCHAR
STARTCHAR Ygrave.ss01
ENCODING -1
SWIDTH 776 0
DWIDTH 11 0
BBX 9 17 1 0
BITMAP
2000
3000
3800
0C00
6080
6180
6180
6180
6180
6380
6380
7D80
3980
0300
8300
FE00
7C00
ENDCHAR
STARTCHAR uni1EF6.ss01
ENCODING -1
SWIDTH 776 0
DWIDTH 11 0
BBX 9 17 1 0
BITMAP
0E00
0F00
0700
0600
6080
6180
6180
6180
6180
6380
6380
7D80
3980
0300
8300
FE00
7C00
ENDCHAR
STARTCHAR uni0232.ss01
ENCODING -1
SWIDTH 776 0
DWIDTH 11 0
BBX 9 15 1 0
BITMAP
0F00
1F00
6080
6180
6180
6180
6180
6380
6380
7D80
3980
0300
8300
FE00
7C00
ENDCHAR
STARTCHAR uni1EF8.ss01
ENCODING -1
SWIDTH 776 0
DWIDTH 11 0
BBX 9 16 1 0
BITMAP
1980
1F00
1300
6080
6180
6180
6180
6180
6380
6380
7D80
3980
0300
8300
FE00
7C00
ENDCHAR
STARTCHAR Z.ss01
ENCODING -1
SWIDTH 665 0
DWIDTH 9 0
BBX 10 13 0 0
BITMAP
7F80
7FC0
0180
0300
0700
0600
0C00
1C00
3800
3000
7000
FF00
FF80
ENDCHAR
STARTCHAR Zacute.ss01
ENCODING -1
SWIDTH 665 0
DWIDTH 9 0
BBX 10 17 0 0
BITMAP
0080
01C0
0380
0600
7F80
7FC0
0180
0300
0700
0600
0C00
1C00
3800
3000
7000
FF00
FF80
ENDCHAR
STARTCHAR Zcaron.ss01
ENCODING -1
SWIDTH 665 0
DWIDTH 9 0
BBX 10 17 0 0
BITMAP
0880
0D80
0700
0600
7F80
7FC0
0180
0300
0700
0600
0C00
1C00
3800
3000
7000
FF00
FF80
ENDCHAR
STARTCHAR Zdotaccent.ss01
ENCODING -1
SWIDTH 665 0
DWIDTH 9 0
BBX 10 15 0 0
BITMAP
0600
0600
7F80
7FC0
0180
0300
0700
0600
0C00
1C00
3800
3000
7000
FF00
FF80
ENDCHAR
STARTCHAR i.loclTRK
ENCODING -1
SWIDTH 246 0
DWIDTH 3 0
BBX 4 10 1 0
BITMAP
E0
E0
00
C0
C0
C0
80
90
F0
E0
ENDCHAR
STARTCHAR a.fina
ENCODING -1
SWIDTH 458 0
DWIDTH 6 0
BBX 6 7 0 0
BITMAP
1C
3C
6C
4C
CC
7C
6C
ENDCHAR
STARTCHAR aacute.fina
ENCODING -1
SWIDTH 458 0
DWIDTH 6 0
BBX 7 13 0 0
BITMAP
02
06
04
0C
08
00
1C
3C
6C
4C
CC
7C
6C
ENDCHAR
STARTCHAR abreve.fina
ENCODING -1
SWIDTH 458 0
DWIDTH 6 0
BBX 7 12 0 0
BITMAP
22
22
3E
1C
00
1C
3C
6C
4C
CC
7C
6C
ENDCHAR
STARTCHAR uni1EAF.fina
ENCODING -1
SWIDTH 458 0
DWIDTH 6 0
BBX 7 13 0 0
BITMAP
06
0C
22
3E
1C
00
1C
3C
6C
4C
CC
7C
6C
ENDCHAR
STARTCHAR uni1EB7.fina
ENCODING -1
SWIDTH 458 0
DWIDTH 6 0
BBX 7 15 0 -3
BITMAP
22
22
3E
1C
00
1C
3C
6C
4C
CC
7C
6C
00
30
70
ENDCHAR
STARTCHAR uni1EB1.fina
ENCODING -1
SWIDTH 458 0
DWIDTH 6 0
BBX 7 13 0 0
BITMAP
10
18
2A
22
3E
00
1C
3C
6C
4C
CC
7C
6C
ENDCHAR
STARTCHAR uni1EB3.fina
ENCODING -1
SWIDTH 458 0
DWIDTH 6 0
BBX 7 14 0 0
BITMAP
1C
1C
0C
0C
3E
3C
00
1C
3C
6C
4C
CC
7C
6C
ENDCHAR
STARTCHAR uni1EB5.fina
ENCODING -1
SWIDTH 458 0
DWIDTH 6 0
BBX 8 13 0 0
BITMAP
1B
3E
22
22
3E
00
1C
3C
6C
4C
CC
7C
6C
ENDCHAR
STARTCHAR acircumflex.fina
ENCODING -1
SWIDTH 458 0
DWIDTH 6 0
BBX 7 13 0 0
BITMAP
0C
1C
14
36
26
00
1C
3C
6C
4C
CC
7C
6C
ENDCHAR
STARTCHAR uni1EA5.fina
ENCODING -1
SWIDTH 458 0
DWIDTH 6 0
BBX 9 13 0 0
BITMAP
0180
0300
0C00
1400
3600
0000
1C00
3C00
6C00
4C00
CC00
7C00
6C00
ENDCHAR
STARTCHAR uni1EAD.fina
ENCODING -1
SWIDTH 458 0
DWIDTH 6 0
BBX 7 16 0 -3
BITMAP
0C
1C
14
36
26
00
1C
3C
6C
4C
CC
7C
6C
00
30
70
ENDCHAR
STARTCHAR uni1EA7.fina
ENCODING -1
SWIDTH 458 0
DWIDTH 6 0
BBX 7 13 0 0
BITMAP
40
60
0C
14
36
00
1C
3C
6C
4C
CC
7C
6C
ENDCHAR
STARTCHAR uni1EA9.fina
ENCODING -1
SWIDTH 458 0
DWIDTH 6 0
BBX 9 13 0 0
BITMAP
0300
0380
0980
1F00
3600
2400
1C00
3C00
6C00
4C00
CC00
7C00
6C00
ENDCHAR
STARTCHAR uni1EAB.fina
ENCODING -1
SWIDTH 458 0
DWIDTH 6 0
BBX 7 14 0 0
BITMAP
1A
3E
00
1C
14
36
00
1C
3C
6C
4C
CC
7C
6C
ENDCHAR
STARTCHAR uni0201.fina
ENCODING -1
SWIDTH 458 0
DWIDTH 6 0
BBX 6 13 0 0
BITMAP
48
78
6C
2C
14
00
1C
3C
6C
4C
CC
7C
6C
ENDCHAR
STARTCHAR adieresis.fina
ENCODING -1
SWIDTH 458 0
DWIDTH 6 0
BBX 7 10 0 0
BITMAP
36
36
00
1C
3C
6C
4C
CC
7C
6C
ENDCHAR
STARTCHAR uni1EA1.fina
ENCODING -1
SWIDTH 458 0
DWIDTH 6 0
BBX 6 10 0 -3
BITMAP
1C
3C
6C
4C
CC
7C
6C
00
30
70
ENDCHAR
STARTCHAR agrave.fina
ENCODING -1
SWIDTH 458 0
DWIDTH 6 0
BBX 6 13 0 0
BITMAP
20
30
30
10
08
00
1C
3C
6C
4C
CC
7C
6C
ENDCHAR
STARTCHAR uni1EA3.fina
ENCODING -1
SWIDTH 458 0
DWIDTH 6 0
BBX 6 13 0 0
BITMAP
08
1C
04
0C
0C
00
1C
3C
6C
4C
CC
7C
6C
ENDCHAR
STARTCHAR uni0203.fina
ENCODING -1
SWIDTH 458 0
DWIDTH 6 0
BBX 7 12 0 0
BITMAP
08
3E
36
22
00
1C
3C
6C
4C
CC
7C
6C
ENDCHAR
STARTCHAR amacron.fina
ENCODING -1
SWIDTH 458 0
DWIDTH 6 0
BBX 7 10 0 0
BITMAP
3C
3E
00
1C
3C
6C
4C
CC
7C
6C
ENDCHAR
STARTCHAR aogonek.fina
ENCODING -1
SWIDTH 458 0
DWIDTH 6 0
BBX 7 10 0 -3
BITMAP
18
3C
6C
4C
CC
7C
68
18
18
1E
ENDCHAR
STARTCHAR aring.fina
ENCODING -1
SWIDTH 458 0
DWIDTH 6 0
BBX 6 13 0 0
BITMAP
08
1C
14
1C
1C
00
1C
3C
6C
4C
CC
7C
6C
ENDCHAR
STARTCHAR aringacute.fina
ENCODING -1
SWIDTH 458 0
DWIDTH 6 0
BBX 9 14 0 0
BITMAP
0080
0980
1D00
1400
1C00
1C00
0000
1C00
3C00
6C00
4C00
CC00
7C00
6C00
ENDCHAR
STARTCHAR atilde.fina
ENCODING -1
SWIDTH 458 0
DWIDTH 6 0
BBX 8 11 0 0
BITMAP
12
3B
6E
00
1C
3C
6C
4C
CC
7C
6C
ENDCHAR
STARTCHAR ae.fina
ENCODING -1
SWIDTH 671 0
DWIDTH 9 0
BBX 10 7 0 0
BITMAP
1B80
7F80
6C80
4F00
CE40
7FC0
7780
ENDCHAR
STARTCHAR aeacute.fina
ENCODING -1
SWIDTH 671 0
DWIDTH 9 0
BBX 10 13 0 0
BITMAP
0100
0180
0300
0200
0200
0000
1B80
7F80
6C80
4F00
CE40
7FC0
7780
ENDCHAR
STARTCHAR b.fina
ENCODING -1
SWIDTH 475 0
DWIDTH 7 0
BBX 5 14 1 0
BITMAP
38
38
68
48
D8
D0
F0
F0
F8
C8
C8
D8
F8
70
ENDCHAR
STARTCHAR c.fina
ENCODING -1
SWIDTH 404 0
DWIDTH 6 0
BBX 6 7 0 0
BITMAP
38
78
48
C0
C4
7C
38
ENDCHAR
STARTCHAR cacute.fina
ENCODING -1
SWIDTH 404 0
DWIDTH 6 0
BBX 6 13 0 0
BITMAP
04
0C
0C
08
10
00
38
78
48
C0
C4
7C
38
ENDCHAR
STARTCHAR ccaron.fina
ENCODING -1
SWIDTH 404 0
DWIDTH 6 0
BBX 7 13 0 0
BITMAP
26
34
3C
38
18
00
38
78
48
C0
C4
7C
38
ENDCHAR
STARTCHAR ccedilla.fina
ENCODING -1
SWIDTH 404 0
DWIDTH 6 0
BBX 6 11 0 -4
BITMAP
38
78
68
48
C4
6C
78
30
18
18
70
ENDCHAR
STARTCHAR ccircumflex.fina
ENCODING -1
SWIDTH 404 0
DWIDTH 6 0
BBX 6 13 0 0
BITMAP
18
18
3C
2C
64
00
38
78
48
C0
C4
7C
38
ENDCHAR
STARTCHAR cdotaccent.fina
ENCODING -1
SWIDTH 404 0
DWIDTH 6 0
BBX 6 10 0 0
BITMAP
18
18
00
38
78
48
C0
C4
7C
38
ENDCHAR
STARTCHAR d.fina
ENCODING -1
SWIDTH 493 0
DWIDTH 7 0
BBX 9 14 0 0
BITMAP
0300
0700
0580
0500
0D00
0D00
0D00
1E00
7E00
6C00
4C00
CC00
7C00
7400
ENDCHAR
STARTCHAR dcaron.fina
ENCODING -1
SWIDTH 458 0
DWIDTH 6 0
BBX 9 14 0 0
BITMAP
0080
0680
0680
0680
0600
0600
0400
1C00
3C00
6C00
4C00
CC00
7C00
6C00
ENDCHAR
STARTCHAR dcroat.fina
ENCODING -1
SWIDTH 458 0
DWIDTH 6 0
BBX 8 13 0 0
BITMAP
06
06
06
3F
3E
04
1C
3C
6C
4C
CC
7C
6C
ENDCHAR
STARTCHAR uni01C6.fina
ENCODING -1
SWIDTH 876 0
DWIDTH 12 0
BBX 13 19 0 -6
BITMAP
06C8
0658
0650
0670
0660
0508
1DF8
3CF0
6C60
4CC0
CD80
7FE0
7660
00E0
01E0
0360
0240
03C0
0380
ENDCHAR
STARTCHAR e.fina
ENCODING -1
SWIDTH 411 0
DWIDTH 6 0
BBX 6 7 0 0
BITMAP
38
78
48
D8
64
7C
38
ENDCHAR
STARTCHAR eacute.fina
ENCODING -1
SWIDTH 411 0
DWIDTH 6 0
BBX 6 13 0 0
BITMAP
04
0C
0C
08
10
00
38
78
48
D8
64
7C
38
ENDCHAR
STARTCHAR ebreve.fina
ENCODING -1
SWIDTH 411 0
DWIDTH 6 0
BBX 7 12 0 0
BITMAP
42
66
7C
3C
00
38
78
48
D8
64
7C
38
ENDCHAR
STARTCHAR ecaron.fina
ENCODING -1
SWIDTH 411 0
DWIDTH 6 0
BBX 7 13 0 0
BITMAP
26
34
3C
18
18
00
38
78
48
D8
64
7C
38
ENDCHAR
STARTCHAR ecircumflex.fina
ENCODING -1
SWIDTH 411 0
DWIDTH 6 0
BBX 6 13 0 0
BITMAP
18
18
3C
2C
64
00
38
78
48
D8
64
7C
38
ENDCHAR
STARTCHAR uni1EBF.fina
ENCODING -1
SWIDTH 411 0
DWIDTH 6 0
BBX 8 13 0 0
BITMAP
01
06
18
3C
64
00
38
78
48
D8
64
7C
38
ENDCHAR
STARTCHAR uni1EC7.fina
ENCODING -1
SWIDTH 411 0
DWIDTH 6 0
BBX 6 16 0 -3
BITMAP
18
18
3C
2C
64
00
38
78
48
D8
64
7C
38
00
30
30
ENDCHAR
STARTCHAR uni1EC1.fina
ENCODING -1
SWIDTH 411 0
DWIDTH 6 0
BBX 6 13 0 0
BITMAP
C0
60
18
3C
64
00
38
78
48
D8
64
7C
38
ENDCHAR
STARTCHAR uni1EC3.fina
ENCODING -1
SWIDTH 411 0
DWIDTH 6 0
BBX 8 13 0 0
BITMAP
07
07
0B
3F
3C
64
38
78
48
D8
64
7C
38
ENDCHAR
STARTCHAR uni1EC5.fina
ENCODING -1
SWIDTH 411 0
DWIDTH 6 0
BBX 7 14 0 0
BITMAP
32
2C
00
18
3C
64
00
38
78
48
D8
64
7C
38
ENDCHAR
STARTCHAR uni0205.fina
ENCODING -1
SWIDTH 411 0
DWIDTH 6 0
BBX 6 13 0 0
BITMAP
50
D8
58
68
2C
00
38
78
48
D8
64
7C
38
ENDCHAR
STARTCHAR edieresis.fina
ENCODING -1
SWIDTH 411 0
DWIDTH 6 0
BBX 6 10 0 0
BITMAP
6C
6C
00
38
78
48
D8
64
7C
38
ENDCHAR
STARTCHAR edotaccent.fina
ENCODING -1
SWIDTH 411 0
DWIDTH 6 0
BBX 6 10 0 0
BITMAP
18
18
00
38
78
48
D8
64
7C
38
ENDCHAR
STARTCHAR uni1EB9.fina
ENCODING -1
SWIDTH 411 0
DWIDTH 6 0
BBX 6 10 0 -3
BITMAP
38
78
48
D8
64
7C
38
00
30
30
ENDCHAR
STARTCHAR egrave.fina
ENCODING -1
SWIDTH 411 0
DWIDTH 6 0
BBX 6 13 0 0
BITMAP
20
60
20
30
10
00
38
78
48
D8
64
7C
38
ENDCHAR
STARTCHAR uni1EBB.fina
ENCODING -1
SWIDTH 411 0
DWIDTH 6 0
BBX 6 13 0 0
BITMAP
18
1C
04
1C
18
00
38
78
48
D8
64
7C
38
ENDCHAR
STARTCHAR uni0207.fina
ENCODING -1
SWIDTH 411 0
DWIDTH 6 0
BBX 7 12 0 0
BITMAP
18
3C
66
46
00
38
78
48
D8
64
7C
38
ENDCHAR
STARTCHAR emacron.fina
ENCODING -1
SWIDTH 411 0
DWIDTH 6 0
BBX 6 10 0 0
BITMAP
3C
7C
00
38
78
48
D8
64
7C
38
ENDCHAR
STARTCHAR eogonek.fina
ENCODING -1
SWIDTH 411 0
DWIDTH 6 0
BBX 6 11 0 -4
BITMAP
38
78
48
D8
F4
6C
78
10
30
3C
1C
ENDCHAR
STARTCHAR uni1EBD.fina
ENCODING -1
SWIDTH 411 0
DWIDTH 6 0
BBX 7 11 0 0
BITMAP
22
7E
4C
00
38
78
48
D8
64
7C
38
ENDCHAR
STARTCHAR g.fina
ENCODING -1
SWIDTH 449 0
DWIDTH 6 0
BBX 6 14 0 -7
BITMAP
18
3C
6C
4C
CC
78
78
18
38
58
D0
90
F0
E0
ENDCHAR
STARTCHAR gbreve.fina
ENCODING -1
SWIDTH 449 0
DWIDTH 6 0
BBX 7 19 0 -7
BITMAP
22
22
3E
1C
00
18
3C
6C
4C
CC
78
78
18
38
58
D0
90
F0
E0
ENDCHAR
STARTCHAR gcaron.fina
ENCODING -1
SWIDTH 449 0
DWIDTH 6 0
BBX 7 20 0 -7
BITMAP
12
16
14
1C
18
00
18
3C
6C
4C
CC
78
78
18
38
58
D0
90
F0
E0
ENDCHAR
STARTCHAR gcircumflex.fina
ENCODING -1
SWIDTH 449 0
DWIDTH 6 0
BBX 7 20 0 -7
BITMAP
0C
1C
14
36
26
00
18
3C
6C
4C
CC
78
78
18
38
58
D0
90
F0
E0
ENDCHAR
STARTCHAR uni0123.fina
ENCODING -1
SWIDTH 449 0
DWIDTH 6 0
BBX 6 19 0 -7
BITMAP
0C
0C
08
08
00
18
3C
6C
4C
CC
78
78
18
38
58
D0
90
F0
E0
ENDCHAR
STARTCHAR gdotaccent.fina
ENCODING -1
SWIDTH 449 0
DWIDTH 6 0
BBX 6 17 0 -7
BITMAP
1C
18
00
18
3C
6C
4C
CC
78
78
18
38
58
D0
90
F0
E0
ENDCHAR
STARTCHAR h.fina
ENCODING -1
SWIDTH 490 0
DWIDTH 7 0
BBX 6 14 1 0
BITMAP
38
38
68
48
D8
D0
E0
F8
FC
A8
A8
D8
D8
D8
ENDCHAR
STARTCHAR hbar.fina
ENCODING -1
SWIDTH 490 0
DWIDTH 7 0
BBX 6 13 1 0
BITMAP
60
60
60
F8
78
C0
D8
FC
E8
A8
D8
D8
D8
ENDCHAR
STARTCHAR hcircumflex.fina
ENCODING -1
SWIDTH 490 0
DWIDTH 7 0
BBX 6 19 1 0
BITMAP
18
3C
2C
64
00
38
38
68
48
D8
D0
E0
F8
FC
A8
A8
D8
D8
D8
ENDCHAR
STARTCHAR i.fina
ENCODING -1
SWIDTH 222 0
DWIDTH 3 0
BBX 4 10 0 0
BITMAP
30
70
00
60
60
60
60
40
40
C0
ENDCHAR
STARTCHAR dotlessi.fina
ENCODING -1
SWIDTH 222 0
DWIDTH 3 0
BBX 3 7 0 0
BITMAP
60
60
60
60
40
40
C0
ENDCHAR
STARTCHAR iacute.fina
ENCODING -1
SWIDTH 222 0
DWIDTH 3 0
BBX 5 13 0 0
BITMAP
08
18
18
30
20
00
60
60
60
60
40
40
C0
ENDCHAR
STARTCHAR iacute_j.loclNLD.fina
ENCODING -1
SWIDTH 479 0
DWIDTH 7 0
BBX 8 20 0 -7
BITMAP
09
1B
1B
32
24
00
64
6C
6C
4C
5C
78
68
18
38
58
D0
B0
F0
E0
ENDCHAR
STARTCHAR ibreve.fina
ENCODING -1
SWIDTH 222 0
DWIDTH 3 0
BBX 6 12 0 0
BITMAP
88
8C
F8
70
00
60
60
60
60
40
40
C0
ENDCHAR
STARTCHAR icircumflex.fina
ENCODING -1
SWIDTH 222 0
DWIDTH 3 0
BBX 5 13 0 0
BITMAP
30
70
50
D8
D8
00
60
60
60
60
40
40
C0
ENDCHAR
STARTCHAR uni0209.fina
ENCODING -1
SWIDTH 222 0
DWIDTH 3 0
BBX 5 13 -1 0
BITMAP
90
D0
D8
48
28
00
30
30
30
30
20
20
60
ENDCHAR
STARTCHAR idieresis.fina
ENCODING -1
SWIDTH 222 0
DWIDTH 3 0
BBX 5 10 0 0
BITMAP
D8
D8
00
60
60
60
60
40
40
C0
ENDCHAR
STARTCHAR i.loclTRK.fina
ENCODING -1
SWIDTH 222 0
DWIDTH 3 0
BBX 4 10 0 0
BITMAP
70
70
00
60
60
60
60
40
40
C0
ENDCHAR
STARTCHAR uni1ECB.fina
ENCODING -1
SWIDTH 222 0
DWIDTH 3 0
BBX 4 13 0 -3
BITMAP
30
70
00
60
60
60
60
40
40
C0
00
C0
C0
ENDCHAR
STARTCHAR igrave.fina
ENCODING -1
SWIDTH 222 0
DWIDTH 3 0
BBX 3 13 0 0
BITMAP
80
C0
C0
60
20
00
60
60
60
60
40
40
C0
ENDCHAR
STARTCHAR uni1EC9.fina
ENCODING -1
SWIDTH 222 0
DWIDTH 3 0
BBX 5 13 0 0
BITMAP
20
70
18
30
30
00
60
60
60
60
40
40
C0
ENDCHAR
STARTCHAR uni020B.fina
ENCODING -1
SWIDTH 222 0
DWIDTH 3 0
BBX 6 12 0 0
BITMAP
30
F8
C8
8C
00
60
60
60
60
40
40
C0
ENDCHAR
STARTCHAR imacron.fina
ENCODING -1
SWIDTH 222 0
DWIDTH 3 0
BBX 5 10 0 0
BITMAP
70
F8
00
60
60
60
60
40
40
C0
ENDCHAR
STARTCHAR iogonek.fina
ENCODING -1
SWIDTH 222 0
DWIDTH 3 0
BBX 4 14 0 -4
BITMAP
70
70
00
60
60
60
60
40
C0
40
80
80
E0
40
ENDCHAR
STARTCHAR itilde.fina
ENCODING -1
SWIDTH 222 0
DWIDTH 3 0
BBX 6 11 0 0
BITMAP
44
EC
98
00
60
60
60
60
40
40
C0
ENDCHAR
STARTCHAR j.fina
ENCODING -1
SWIDTH 229 0
DWIDTH 3 0
BBX 7 17 -3 -7
BITMAP
0E
0C
00
0C
0C
0C
0C
08
08
08
18
38
58
D0
B0
E0
E0
ENDCHAR
STARTCHAR uni0237.fina
ENCODING -1
SWIDTH 229 0
DWIDTH 3 0
BBX 6 14 -3 -7
BITMAP
0C
0C
0C
0C
08
08
08
18
38
58
D0
B0
E0
E0
ENDCHAR
STARTCHAR jcircumflex.fina
ENCODING -1
SWIDTH 229 0
DWIDTH 3 0
BBX 8 20 -3 -7
BITMAP
06
0E
0A
1B
13
00
0C
0C
0C
0C
08
08
08
18
38
58
D0
B0
E0
E0
ENDCHAR
STARTCHAR k.fina
ENCODING -1
SWIDTH 521 0
DWIDTH 7 0
BBX 6 14 1 0
BITMAP
38
38
68
48
D0
D0
E0
FC
FC
AC
DC
D0
DC
CC
ENDCHAR
STARTCHAR uni0137.fina
ENCODING -1
SWIDTH 521 0
DWIDTH 7 0
BBX 6 19 1 -5
BITMAP
38
38
68
48
D0
D0
E0
FC
FC
AC
DC
D0
DC
CC
00
60
60
60
40
ENDCHAR
STARTCHAR kgreenlandic.fina
ENCODING -1
SWIDTH 541 0
DWIDTH 8 0
BBX 7 7 1 0
BITMAP
DC
FC
AC
E0
E2
FE
9C
ENDCHAR
STARTCHAR l.fina
ENCODING -1
SWIDTH 368 0
DWIDTH 5 0
BBX 5 14 1 0
BITMAP
38
38
68
48
D8
D0
D0
F0
E0
E0
C0
C0
F0
70
ENDCHAR
STARTCHAR lacute.fina
ENCODING -1
SWIDTH 368 0
DWIDTH 5 0
BBX 7 19 1 0
BITMAP
02
06
0E
18
00
38
38
68
48
D8
D0
D0
F0
E0
E0
C0
C0
F0
70
ENDCHAR
STARTCHAR lcaron.fina
ENCODING -1
SWIDTH 368 0
DWIDTH 5 0
BBX 7 14 1 0
BITMAP
38
3E
6E
4E
D8
D0
D0
F0
E0
E0
C0
C0
F0
70
ENDCHAR
STARTCHAR uni013C.fina
ENCODING -1
SWIDTH 368 0
DWIDTH 5 0
BBX 5 19 1 -5
BITMAP
38
38
68
48
D8
D0
D0
F0
E0
E0
C0
C0
F0
70
00
40
40
40
40
ENDCHAR
STARTCHAR ldot.fina
ENCODING -1
SWIDTH 466 0
DWIDTH 7 0
BBX 6 14 1 0
BITMAP
20
60
60
60
60
C0
D8
F8
C0
C0
80
C4
F8
70
ENDCHAR
STARTCHAR uni01C9.fina
ENCODING -1
SWIDTH 555 0
DWIDTH 8 0
BBX 7 21 1 -7
BITMAP
30
38
68
48
DE
DE
D0
F4
E4
E4
CC
CC
FC
7C
1C
38
68
58
D8
F0
60
ENDCHAR
STARTCHAR lslash.fina
ENCODING -1
SWIDTH 368 0
DWIDTH 5 0
BBX 7 15 1 0
BITMAP
3E
7E
38
78
68
48
D8
D0
D0
E0
E0
C0
C0
F0
70
ENDCHAR
STARTCHAR m.fina
ENCODING -1
SWIDTH 732 0
DWIDTH 10 0
BBX 9 7 1 0
BITMAP
D980
FB80
FF80
DD80
DD80
D900
9900
ENDCHAR
STARTCHAR n.fina
ENCODING -1
SWIDTH 484 0
DWIDTH 7 0
BBX 5 7 1 0
BITMAP
D8
F8
E8
D8
D8
D8
98
ENDCHAR
STARTCHAR nacute.fina
ENCODING -1
SWIDTH 484 0
DWIDTH 7 0
BBX 6 13 1 0
BITMAP
04
0C
0C
18
10
00
D8
F8
E8
D8
D8
D8
98
ENDCHAR
STARTCHAR napostrophe.fina
ENCODING -1
SWIDTH 484 0
DWIDTH 7 0
BBX 6 12 0 0
BITMAP
C0
C0
80
80
00
6C
7C
74
6C
6C
6C
4C
ENDCHAR
STARTCHAR ncaron.fina
ENCODING -1
SWIDTH 484 0
DWIDTH 7 0
BBX 6 13 1 0
BITMAP
24
2C
28
38
10
00
D8
F8
E8
D8
D8
D8
98
ENDCHAR
STARTCHAR uni0146.fina
ENCODING -1
SWIDTH 484 0
DWIDTH 7 0
BBX 5 12 1 -5
BITMAP
D8
F8
E8
D8
D8
D8
98
00
60
60
60
40
ENDCHAR
STARTCHAR eng.fina
ENCODING -1
SWIDTH 484 0
DWIDTH 7 0
BBX 6 12 0 -5
BITMAP
6C
7C
74
6C
6C
6C
48
08
18
58
D0
70
ENDCHAR
STARTCHAR uni01CC.fina
ENCODING -1
SWIDTH 725 0
DWIDTH 10 0
BBX 10 17 1 -7
BITMAP
01C0
0180
0000
D980
F980
E980
D980
DB00
DF00
9F00
0300
0700
0B00
1A00
1600
1C00
1C00
ENDCHAR
STARTCHAR ntilde.fina
ENCODING -1
SWIDTH 484 0
DWIDTH 7 0
BBX 7 11 1 0
BITMAP
22
74
4C
00
D8
F8
E8
D8
D8
D8
98
ENDCHAR
STARTCHAR o.fina
ENCODING -1
SWIDTH 453 0
DWIDTH 6 0
BBX 6 7 0 0
BITMAP
38
7C
4C
CC
4C
78
38
ENDCHAR
STARTCHAR oacute.fina
ENCODING -1
SWIDTH 453 0
DWIDTH 6 0
BBX 6 13 0 0
BITMAP
04
0C
0C
08
10
00
38
7C
4C
CC
4C
78
38
ENDCHAR
STARTCHAR obreve.fina
ENCODING -1
SWIDTH 453 0
DWIDTH 6 0
BBX 7 12 0 0
BITMAP
42
66
7C
38
00
38
7C
4C
CC
4C
78
38
ENDCHAR
STARTCHAR ocircumflex.fina
ENCODING -1
SWIDTH 453 0
DWIDTH 6 0
BBX 6 13 0 0
BITMAP
18
18
3C
2C
64
00
38
7C
4C
CC
4C
78
38
ENDCHAR
STARTCHAR uni1ED1.fina
ENCODING -1
SWIDTH 453 0
DWIDTH 6 0
BBX 8 13 0 0
BITMAP
03
06
18
3C
64
00
38
7C
4C
CC
4C
78
38
ENDCHAR
STARTCHAR uni1ED9.fina
ENCODING -1
SWIDTH 453 0
DWIDTH 6 0
BBX 6 16 0 -3
BITMAP
18
18
3C
2C
64
00
38
7C
4C
CC
4C
78
38
00
30
30
ENDCHAR
STARTCHAR uni1ED3.fina
ENCODING -1
SWIDTH 453 0
DWIDTH 6 0
BBX 6 13 0 0
BITMAP
C0
60
18
3C
64
00
38
7C
4C
CC
4C
78
38
ENDCHAR
STARTCHAR uni1ED5.fina
ENCODING -1
SWIDTH 453 0
DWIDTH 6 0
BBX 8 13 0 0
BITMAP
07
07
0B
3B
3C
64
38
7C
4C
CC
4C
78
38
ENDCHAR
STARTCHAR uni1ED7.fina
ENCODING -1
SWIDTH 453 0
DWIDTH 6 0
BBX 7 14 0 0
BITMAP
32
3C
00
18
3C
64
00
38
7C
4C
CC
4C
78
38
ENDCHAR
STARTCHAR uni020D.fina
ENCODING -1
SWIDTH 453 0
DWIDTH 6 0
BBX 6 13 0 0
BITMAP
50
D8
58
68
2C
00
38
7C
4C
CC
4C
78
38
ENDCHAR
STARTCHAR odieresis.fina
ENCODING -1
SWIDTH 453 0
DWIDTH 6 0
BBX 6 10 0 0
BITMAP
6C
6C
00
38
7C
4C
CC
4C
78
38
ENDCHAR
STARTCHAR uni022B.fina
ENCODING -1
SWIDTH 453 0
DWIDTH 6 0
BBX 6 13 0 0
BITMAP
3C
3C
00
6C
6C
00
38
7C
4C
CC
4C
78
38
ENDCHAR
STARTCHAR uni0231.fina
ENCODING -1
SWIDTH 453 0
DWIDTH 6 0
BBX 6 13 0 0
BITMAP
3C
3C
00
18
18
00
38
7C
4C
CC
4C
78
38
ENDCHAR
STARTCHAR uni1ECD.fina
ENCODING -1
SWIDTH 453 0
DWIDTH 6 0
BBX 6 10 0 -3
BITMAP
38
7C
4C
CC
4C
78
38
00
30
30
ENDCHAR
STARTCHAR ograve.fina
ENCODING -1
SWIDTH 453 0
DWIDTH 6 0
BBX 6 13 0 0
BITMAP
20
60
20
30
10
00
38
7C
4C
CC
4C
78
38
ENDCHAR
STARTCHAR uni1ECF.fina
ENCODING -1
SWIDTH 453 0
DWIDTH 6 0
BBX 6 13 0 0
BITMAP
18
3C
0C
1C
18
00
38
7C
4C
CC
4C
78
38
ENDCHAR
STARTCHAR ohorn.fina
ENCODING -1
SWIDTH 453 0
DWIDTH 6 0
BBX 7 9 0 0
BITMAP
02
06
3C
7C
4C
CC
4C
78
38
ENDCHAR
STARTCHAR uni1EDB.fina
ENCODING -1
SWIDTH 453 0
DWIDTH 6 0
BBX 7 13 0 0
BITMAP
04
0C
0C
18
12
06
3C
7C
4C
CC
4C
78
38
ENDCHAR
STARTCHAR uni1EE3.fina
ENCODING -1
SWIDTH 453 0
DWIDTH 6 0
BBX 7 12 0 -3
BITMAP
02
06
3C
7C
4C
CC
4C
78
38
00
30
30
ENDCHAR
STARTCHAR uni1EDD.fina
ENCODING -1
SWIDTH 453 0
DWIDTH 6 0
BBX 7 13 0 0
BITMAP
40
60
60
30
12
06
3C
7C
4C
CC
4C
78
38
ENDCHAR
STARTCHAR uni1EDF.fina
ENCODING -1
SWIDTH 453 0
DWIDTH 6 0
BBX 7 13 0 0
BITMAP
10
38
08
18
1A
06
3C
7C
4C
CC
4C
78
38
ENDCHAR
STARTCHAR uni1EE1.fina
ENCODING -1
SWIDTH 453 0
DWIDTH 6 0
BBX 7 11 0 0
BITMAP
24
5C
4A
06
3C
7C
4C
CC
4C
78
38
ENDCHAR
STARTCHAR ohungarumlaut.fina
ENCODING -1
SWIDTH 453 0
DWIDTH 6 0
BBX 7 13 0 0
BITMAP
12
1E
36
34
2C
00
38
7C
4C
CC
4C
78
38
ENDCHAR
STARTCHAR uni020F.fina
ENCODING -1
SWIDTH 453 0
DWIDTH 6 0
BBX 7 12 0 0
BITMAP
18
3C
66
46
00
38
7C
4C
CC
4C
78
38
ENDCHAR
STARTCHAR omacron.fina
ENCODING -1
SWIDTH 453 0
DWIDTH 6 0
BBX 6 10 0 0
BITMAP
3C
7C
00
38
7C
4C
CC
4C
78
38
ENDCHAR
STARTCHAR uni01EB.fina
ENCODING -1
SWIDTH 453 0
DWIDTH 6 0
BBX 6 10 0 -3
BITMAP
38
7C
4C
CC
4C
78
30
20
20
38
ENDCHAR
STARTCHAR oslash.fina
ENCODING -1
SWIDTH 463 0
DWIDTH 6 0
BBX 6 11 0 -2
BITMAP
08
08
38
7C
54
D4
5C
7C
38
20
20
ENDCHAR
STARTCHAR oslashacute.fina
ENCODING -1
SWIDTH 463 0
DWIDTH 6 0
BBX 6 15 0 -2
BITMAP
08
18
18
30
28
08
38
7C
54
D4
5C
7C
38
20
20
ENDCHAR
STARTCHAR otilde.fina
ENCODING -1
SWIDTH 453 0
DWIDTH 6 0
BBX 7 11 0 0
BITMAP
22
7E
4C
00
38
7C
4C
CC
4C
78
38
ENDCHAR
STARTCHAR uni022D.fina
ENCODING -1
SWIDTH 453 0
DWIDTH 6 0
BBX 7 14 0 0
BITMAP
3C
3C
00
22
7E
4C
00
38
7C
4C
CC
4C
78
38
ENDCHAR
STARTCHAR oe.fina
ENCODING -1
SWIDTH 686 0
DWIDTH 10 0
BBX 10 7 0 0
BITMAP
3B80
7F80
4C80
CD80
4E40
7FC0
3780
ENDCHAR
STARTCHAR p.fina
ENCODING -1
SWIDTH 457 0
DWIDTH 6 0
BBX 8 14 -2 -7
BITMAP
1F
1F
1B
1B
1B
3E
3C
50
50
50
D0
F0
F0
60
ENDCHAR
STARTCHAR thorn.fina
ENCODING -1
SWIDTH 483 0
DWIDTH 7 0
BBX 7 17 0 -5
BITMAP
30
30
20
60
60
6C
7E
66
64
6C
F8
F0
C0
C0
C0
C0
40
ENDCHAR
STARTCHAR q.fina
ENCODING -1
SWIDTH 449 0
DWIDTH 6 0
BBX 6 13 0 -5
BITMAP
04
1C
3C
6C
4C
CC
78
78
18
18
18
18
18
ENDCHAR
STARTCHAR r.fina
ENCODING -1
SWIDTH 495 0
DWIDTH 7 0
BBX 6 7 1 0
BITMAP
D8
F8
FC
AC
C8
C0
80
ENDCHAR
STARTCHAR racute.fina
ENCODING -1
SWIDTH 495 0
DWIDTH 7 0
BBX 6 13 1 0
BITMAP
08
0C
18
10
10
00
D8
F8
FC
AC
C8
C0
80
ENDCHAR
STARTCHAR rcaron.fina
ENCODING -1
SWIDTH 495 0
DWIDTH 7 0
BBX 6 13 1 0
BITMAP
64
6C
28
38
30
00
D8
F8
FC
AC
C8
C0
80
ENDCHAR
STARTCHAR uni0157.fina
ENCODING -1
SWIDTH 495 0
DWIDTH 7 0
BBX 6 12 1 -5
BITMAP
D8
F8
FC
AC
C8
C0
80
00
80
80
80
80
ENDCHAR
STARTCHAR uni0211.fina
ENCODING -1
SWIDTH 495 0
DWIDTH 7 0
BBX 6 13 1 0
BITMAP
90
F0
D0
58
48
00
D8
F8
FC
AC
C8
C0
80
ENDCHAR
STARTCHAR uni0213.fina
ENCODING -1
SWIDTH 495 0
DWIDTH 7 0
BBX 6 12 1 0
BITMAP
10
7C
4C
C4
00
D8
F8
FC
AC
C8
C0
80
ENDCHAR
STARTCHAR s.fina
ENCODING -1
SWIDTH 394 0
DWIDTH 6 0
BBX 5 7 0 0
BITMAP
10
30
30
78
C8
B8
38
ENDCHAR
STARTCHAR sacute.fina
ENCODING -1
SWIDTH 394 0
DWIDTH 6 0
BBX 6 13 0 0
BITMAP
04
0C
0C
08
10
00
10
30
30
78
C8
B8
38
ENDCHAR
STARTCHAR scaron.fina
ENCODING -1
SWIDTH 394 0
DWIDTH 6 0
BBX 7 13 0 0
BITMAP
26
34
3C
18
18
00
10
30
30
78
C8
B8
38
ENDCHAR
STARTCHAR scedilla.fina
ENCODING -1
SWIDTH 394 0
DWIDTH 6 0
BBX 5 11 0 -4
BITMAP
10
30
30
78
58
C8
B8
30
18
18
70
ENDCHAR
STARTCHAR scircumflex.fina
ENCODING -1
SWIDTH 394 0
DWIDTH 6 0
BBX 6 13 0 0
BITMAP
18
18
3C
2C
64
00
10
30
30
78
C8
B8
38
ENDCHAR
STARTCHAR uni0219.fina
ENCODING -1
SWIDTH 394 0
DWIDTH 6 0
BBX 5 12 0 -5
BITMAP
10
30
30
78
C8
B8
38
00
30
30
30
20
ENDCHAR
STARTCHAR germandbls.fina
ENCODING -1
SWIDTH 580 0
DWIDTH 8 0
BBX 7 15 1 -3
BITMAP
1C
7E
66
C6
CC
D8
D8
9C
8E
B6
B6
BC
80
80
80
ENDCHAR
STARTCHAR uni01C9.ss01.fina
ENCODING -1
SWIDTH 466 0
DWIDTH 7 0
BBX 7 20 0 -7
BITMAP
30
30
30
26
6E
60
64
6C
6C
4C
4C
7C
78
18
38
78
58
D0
F0
60
ENDCHAR
STARTCHAR eng.ss01.fina
ENCODING -1
SWIDTH 484 0
DWIDTH 7 0
BBX 6 14 0 -7
BITMAP
6C
7C
74
6C
6C
6C
4C
1C
38
68
58
D0
F0
60
ENDCHAR
STARTCHAR p.ss01.fina
ENCODING -1
SWIDTH 488 0
DWIDTH 7 0
BBX 9 14 -2 -7
BITMAP
1900
1B80
1D00
1900
1B00
1B00
3B00
3800
5000
5000
5000
B000
E000
6000
ENDCHAR
STARTCHAR z.ss01.fina
ENCODING -1
SWIDTH 406 0
DWIDTH 6 0
BBX 7 14 -1 -6
BITMAP
22
3E
0E
18
30
30
38
18
1C
3C
68
58
D0
70
ENDCHAR
STARTCHAR zacute.ss01.fina
ENCODING -1
SWIDTH 406 0
DWIDTH 6 0
BBX 7 19 -1 -6
BITMAP
02
06
06
04
08
22
3E
0E
18
30
30
38
18
1C
3C
68
58
D0
70
ENDCHAR
STARTCHAR zcaron.ss01.fina
ENCODING -1
SWIDTH 406 0
DWIDTH 6 0
BBX 8 19 -1 -6
BITMAP
13
1A
1E
1C
0C
22
3E
0E
18
30
30
38
18
1C
3C
68
58
D0
70
ENDCHAR
STARTCHAR zdotaccent.ss01.fina
ENCODING -1
SWIDTH 406 0
DWIDTH 6 0
BBX 7 16 -1 -6
BITMAP
0C
1C
22
3E
0E
18
30
30
38
18
1C
3C
68
58
D0
70
ENDCHAR
STARTCHAR t.fina
ENCODING -1
SWIDTH 413 0
DWIDTH 6 0
BBX 6 13 0 0
BITMAP
0C
1C
34
34
28
38
FC
FC
60
60
60
3C
38
ENDCHAR
STARTCHAR tbar.fina
ENCODING -1
SWIDTH 387 0
DWIDTH 5 0
BBX 6 12 0 0
BITMAP
10
30
30
30
7C
F8
60
F8
F0
60
7C
38
ENDCHAR
STARTCHAR tcaron.fina
ENCODING -1
SWIDTH 413 0
DWIDTH 6 0
BBX 9 13 0 0
BITMAP
0D80
1D00
3500
3400
2800
3800
FC00
FC00
6000
6000
6000
3C00
3800
ENDCHAR
STARTCHAR uni0163.fina
ENCODING -1
SWIDTH 413 0
DWIDTH 6 0
BBX 6 17 0 -4
BITMAP
0C
1C
34
34
28
38
FC
FC
60
60
60
3C
3C
38
08
78
70
ENDCHAR
STARTCHAR uni021B.fina
ENCODING -1
SWIDTH 413 0
DWIDTH 6 0
BBX 6 18 0 -5
BITMAP
0C
1C
34
34
28
38
FC
FC
60
60
60
3C
38
00
10
30
30
20
ENDCHAR
STARTCHAR u.fina
ENCODING -1
SWIDTH 460 0
DWIDTH 6 0
BBX 5 7 1 0
BITMAP
C8
D8
D8
98
B8
F8
D8
ENDCHAR
STARTCHAR uacute.fina
ENCODING -1
SWIDTH 460 0
DWIDTH 6 0
BBX 6 13 1 0
BITMAP
08
0C
18
10
10
00
C8
D8
D8
98
B8
F8
D8
ENDCHAR
STARTCHAR ubreve.fina
ENCODING -1
SWIDTH 460 0
DWIDTH 6 0
BBX 6 12 1 0
BITMAP
44
C4
7C
38
00
C8
D8
D8
98
B8
F8
D8
ENDCHAR
STARTCHAR ucircumflex.fina
ENCODING -1
SWIDTH 460 0
DWIDTH 6 0
BBX 5 13 1 0
BITMAP
18
38
28
68
48
00
C8
D8
D8
98
B8
F8
D8
ENDCHAR
STARTCHAR uni0215.fina
ENCODING -1
SWIDTH 460 0
DWIDTH 6 0
BBX 5 13 1 0
BITMAP
90
F0
D0
58
48
00
C8
D8
D8
98
B8
F8
D8
ENDCHAR
STARTCHAR udieresis.fina
ENCODING -1
SWIDTH 460 0
DWIDTH 6 0
BBX 6 10 1 0
BITMAP
6C
6C
00
C8
D8
D8
98
B8
F8
D8
ENDCHAR
STARTCHAR uni1EE5.fina
ENCODING -1
SWIDTH 460 0
DWIDTH 6 0
BBX 5 10 1 -3
BITMAP
C8
D8
D8
98
B8
F8
D8
00
60
60
ENDCHAR
STARTCHAR ugrave.fina
ENCODING -1
SWIDTH 460 0
DWIDTH 6 0
BBX 5 13 1 0
BITMAP
40
40
60
20
10
00
C8
D8
D8
98
B8
F8
D8
ENDCHAR
STARTCHAR uni1EE7.fina
ENCODING -1
SWIDTH 460 0
DWIDTH 6 0
BBX 5 13 1 0
BITMAP
30
38
08
18
30
00
C8
D8
D8
98
B8
F8
D8
ENDCHAR
STARTCHAR uhorn.fina
ENCODING -1
SWIDTH 472 0
DWIDTH 7 0
BBX 7 9 1 0
BITMAP
02
06
CC
D8
D8
98
B8
F8
D8
ENDCHAR
STARTCHAR uni1EE9.fina
ENCODING -1
SWIDTH 472 0
DWIDTH 7 0
BBX 7 13 1 0
BITMAP
08
0C
18
10
12
06
CC
D8
D8
98
B8
F8
D8
ENDCHAR
STARTCHAR uni1EF1.fina
ENCODING -1
SWIDTH 472 0
DWIDTH 7 0
BBX 7 12 1 -3
BITMAP
02
06
CC
D8
D8
98
B8
F8
D8
00
60
60
ENDCHAR
STARTCHAR uni1EEB.fina
ENCODING -1
SWIDTH 472 0
DWIDTH 7 0
BBX 7 13 1 0
BITMAP
40
40
60
20
12
06
CC
D8
D8
98
B8
F8
D8
ENDCHAR
STARTCHAR uni1EED.fina
ENCODING -1
SWIDTH 472 0
DWIDTH 7 0
BBX 7 13 1 0
BITMAP
30
38
08
18
32
06
CC
D8
D8
98
B8
F8
D8
ENDCHAR
STARTCHAR uni1EEF.fina
ENCODING -1
SWIDTH 472 0
DWIDTH 7 0
BBX 7 11 1 0
BITMAP
64
78
4A
06
CC
D8
D8
98
B8
F8
D8
ENDCHAR
STARTCHAR uhungarumlaut.fina
ENCODING -1
SWIDTH 460 0
DWIDTH 6 0
BBX 7 13 1 0
BITMAP
14
36
3C
2C
48
00
C8
D8
D8
98
B8
F8
D8
ENDCHAR
STARTCHAR uni0217.fina
ENCODING -1
SWIDTH 460 0
DWIDTH 6 0
BBX 6 12 1 0
BITMAP
10
7C
4C
C4
00
C8
D8
D8
98
B8
F8
D8
ENDCHAR
STARTCHAR umacron.fina
ENCODING -1
SWIDTH 460 0
DWIDTH 6 0
BBX 5 10 1 0
BITMAP
78
78
00
C8
D8
D8
98
B8
F8
D8
ENDCHAR
STARTCHAR uogonek.fina
ENCODING -1
SWIDTH 460 0
DWIDTH 6 0
BBX 6 11 1 -4
BITMAP
C8
D8
D8
98
B8
F8
D0
30
30
3C
18
ENDCHAR
STARTCHAR uring.fina
ENCODING -1
SWIDTH 460 0
DWIDTH 6 0
BBX 5 13 1 0
BITMAP
10
38
68
38
38
00
C8
D8
D8
98
B8
F8
D8
ENDCHAR
STARTCHAR utilde.fina
ENCODING -1
SWIDTH 460 0
DWIDTH 6 0
BBX 6 11 1 0
BITMAP
24
74
DC
00
C8
D8
D8
98
B8
F8
D8
ENDCHAR
STARTCHAR v.fina
ENCODING -1
SWIDTH 420 0
DWIDTH 6 0
BBX 5 7 1 0
BITMAP
88
98
98
B0
F0
E0
C0
ENDCHAR
STARTCHAR w.fina
ENCODING -1
SWIDTH 666 0
DWIDTH 9 0
BBX 9 7 1 0
BITMAP
9980
9980
9B00
BB00
EE00
EE00
CC00
ENDCHAR
STARTCHAR wacute.fina
ENCODING -1
SWIDTH 666 0
DWIDTH 9 0
BBX 9 13 1 0
BITMAP
0200
0600
0400
0C00
0800
0000
9980
9980
9B00
BB00
EE00
EE00
CC00
ENDCHAR
STARTCHAR wcircumflex.fina
ENCODING -1
SWIDTH 666 0
DWIDTH 9 0
BBX 9 13 1 0
BITMAP
0C00
1C00
1400
3600
2600
0000
9980
9980
9B00
BB00
EE00
EE00
CC00
ENDCHAR
STARTCHAR wdieresis.fina
ENCODING -1
SWIDTH 666 0
DWIDTH 9 0
BBX 9 10 1 0
BITMAP
3600
3600
0000
9980
9980
9B00
BB00
EE00
EE00
CC00
ENDCHAR
STARTCHAR wgrave.fina
ENCODING -1
SWIDTH 666 0
DWIDTH 9 0
BBX 9 13 1 0
BITMAP
2000
3000
3000
1000
0800
0000
9980
9980
9B00
BB00
EE00
EE00
CC00
ENDCHAR
STARTCHAR x.fina
ENCODING -1
SWIDTH 580 0
DWIDTH 8 0
BBX 8 7 0 0
BITMAP
36
7F
5A
18
D9
FF
6E
ENDCHAR
STARTCHAR y.fina
ENCODING -1
SWIDTH 449 0
DWIDTH 6 0
BBX 6 14 0 -7
BITMAP
64
6C
6C
4C
5C
78
68
18
38
58
D0
B0
F0
E0
ENDCHAR
STARTCHAR yacute.fina
ENCODING -1
SWIDTH 449 0
DWIDTH 6 0
BBX 7 20 0 -7
BITMAP
04
06
0C
08
08
00
64
6C
6C
4C
5C
78
68
18
38
58
D0
B0
F0
E0
ENDCHAR
STARTCHAR ycircumflex.fina
ENCODING -1
SWIDTH 449 0
DWIDTH 6 0
BBX 6 20 0 -7
BITMAP
0C
1C
14
34
24
00
64
6C
6C
4C
5C
78
68
18
38
58
D0
B0
F0
E0
ENDCHAR
STARTCHAR ydieresis.fina
ENCODING -1
SWIDTH 449 0
DWIDTH 6 0
BBX 7 17 0 -7
BITMAP
36
36
00
64
6C
6C
4C
5C
78
68
18
38
58
D0
B0
F0
E0
ENDCHAR
STARTCHAR uni1EF5.fina
ENCODING -1
SWIDTH 449 0
DWIDTH 6 0
BBX 7 14 0 -7
BITMAP
64
6C
6C
4C
5C
78
68
18
38
58
D0
BE
FC
E0
ENDCHAR
STARTCHAR ygrave.fina
ENCODING -1
SWIDTH 449 0
DWIDTH 6 0
BBX 6 20 0 -7
BITMAP
20
20
30
10
08
00
64
6C
6C
4C
5C
78
68
18
38
58
D0
B0
F0
E0
ENDCHAR
STARTCHAR uni1EF7.fina
ENCODING -1
SWIDTH 449 0
DWIDTH 6 0
BBX 6 20 0 -7
BITMAP
18
1C
04
0C
18
00
64
6C
6C
4C
5C
78
68
18
38
58
D0
B0
F0
E0
ENDCHAR
STARTCHAR uni0233.fina
ENCODING -1
SWIDTH 449 0
DWIDTH 6 0
BBX 6 17 0 -7
BITMAP
3C
3C
00
64
6C
6C
4C
5C
78
68
18
38
58
D0
B0
F0
E0
ENDCHAR
STARTCHAR uni1EF9.fina
ENCODING -1
SWIDTH 449 0
DWIDTH 6 0
BBX 7 18 0 -7
BITMAP
12
3A
6E
00
64
6C
6C
4C
5C
78
68
18
38
58
D0
B0
F0
E0
ENDCHAR
STARTCHAR z.fina
ENCODING -1
SWIDTH 412 0
DWIDTH 6 0
BBX 6 7 0 0
BITMAP
7C
7C
30
60
40
FC
FC
ENDCHAR
STARTCHAR zacute.fina
ENCODING -1
SWIDTH 412 0
DWIDTH 6 0
BBX 6 13 0 0
BITMAP
04
04
0C
08
10
00
7C
7C
30
60
40
FC
FC
ENDCHAR
STARTCHAR zcaron.fina
ENCODING -1
SWIDTH 412 0
DWIDTH 6 0
BBX 7 13 0 0
BITMAP
36
34
3C
18
18
00
7C
7C
30
60
40
FC
FC
ENDCHAR
STARTCHAR zdotaccent.fina
ENCODING -1
SWIDTH 412 0
DWIDTH 6 0
BBX 6 10 0 0
BITMAP
18
18
00
7C
7C
30
60
40
FC
FC
ENDCHAR
STARTCHAR iacute_j.loclNLD
ENCODING -1
SWIDTH 479 0
DWIDTH 7 0
BBX 8 20 0 -7
BITMAP
09
1B
1B
32
24
00
64
6C
6C
4C
5D
7E
6C
18
38
58
D0
B0
F0
E0
ENDCHAR
STARTCHAR b.ss01
ENCODING -1
SWIDTH 449 0
DWIDTH 6 0
BBX 7 14 1 0
BITMAP
38
38
68
48
D0
D0
E0
F8
D8
DA
DE
D8
F0
60
ENDCHAR
STARTCHAR d.ss01
ENCODING -1
SWIDTH 470 0
DWIDTH 7 0
BBX 8 13 0 0
BITMAP
06
06
06
06
06
04
1C
3C
6C
4C
CD
7F
76
ENDCHAR
STARTCHAR f.ss01
ENCODING -1
SWIDTH 323 0
DWIDTH 5 0
BBX 8 21 -2 -7
BITMAP
07
07
0D
09
1B
1B
1A
1E
1C
1C
1F
1E
18
10
10
50
D0
B0
B0
B0
E0
ENDCHAR
STARTCHAR l.ss01
ENCODING -1
SWIDTH 237 0
DWIDTH 3 0
BBX 4 13 1 0
BITMAP
60
60
60
40
C0
C0
C0
C0
C0
80
90
F0
E0
ENDCHAR
STARTCHAR lacute.ss01
ENCODING -1
SWIDTH 237 0
DWIDTH 3 0
BBX 6 17 1 0
BITMAP
04
0C
18
20
60
60
60
40
C0
C0
C0
C0
C0
80
90
F0
E0
ENDCHAR
STARTCHAR uni013C.ss01
ENCODING -1
SWIDTH 237 0
DWIDTH 3 0
BBX 4 18 1 -5
BITMAP
60
60
60
40
C0
C0
C0
C0
C0
80
90
F0
E0
00
C0
C0
80
80
ENDCHAR
STARTCHAR uni01C9.ss01
ENCODING -1
SWIDTH 491 0
DWIDTH 7 0
BBX 8 20 0 -7
BITMAP
30
30
30
26
6E
60
64
6C
6C
4C
4D
7F
7C
18
38
78
58
D0
F0
60
ENDCHAR
STARTCHAR lslash.ss01
ENCODING -1
SWIDTH 324 0
DWIDTH 5 0
BBX 6 14 0 0
BITMAP
10
30
30
30
38
78
E0
E0
60
60
40
64
7C
38
ENDCHAR
STARTCHAR eng.ss01
ENCODING -1
SWIDTH 508 0
DWIDTH 7 0
BBX 9 14 0 -7
BITMAP
6C00
7C00
7400
6C00
6D80
6F00
4E00
1C00
3800
6800
5800
D000
F000
6000
ENDCHAR
STARTCHAR o.ss01
ENCODING -1
SWIDTH 451 0
DWIDTH 6 0
BBX 8 7 0 0
BITMAP
3C
7E
4F
CC
4C
78
38
ENDCHAR
STARTCHAR oacute.ss01
ENCODING -1
SWIDTH 451 0
DWIDTH 6 0
BBX 8 13 0 0
BITMAP
04
0C
0C
08
10
00
3C
7E
4F
CC
4C
78
38
ENDCHAR
STARTCHAR obreve.ss01
ENCODING -1
SWIDTH 451 0
DWIDTH 6 0
BBX 8 12 0 0
BITMAP
42
66
7C
38
00
3C
7E
4F
CC
4C
78
38
ENDCHAR
STARTCHAR ocircumflex.ss01
ENCODING -1
SWIDTH 451 0
DWIDTH 6 0
BBX 8 13 0 0
BITMAP
18
18
3C
2C
64
00
3C
7E
4F
CC
4C
78
38
ENDCHAR
STARTCHAR uni1ED1.ss01
ENCODING -1
SWIDTH 451 0
DWIDTH 6 0
BBX 8 13 0 0
BITMAP
03
06
18
3C
64
00
3C
7E
4F
CC
4C
78
38
ENDCHAR
STARTCHAR uni1ED9.ss01
ENCODING -1
SWIDTH 451 0
DWIDTH 6 0
BBX 8 16 0 -3
BITMAP
18
18
3C
2C
64
00
3C
7E
4F
CC
4C
78
38
00
30
30
ENDCHAR
STARTCHAR uni1ED3.ss01
ENCODING -1
SWIDTH 451 0
DWIDTH 6 0
BBX 8 13 0 0
BITMAP
C0
60
18
3C
64
00
3C
7E
4F
CC
4C
78
38
ENDCHAR
STARTCHAR uni1ED5.ss01
ENCODING -1
SWIDTH 451 0
DWIDTH 6 0
BBX 8 13 0 0
BITMAP
07
07
0B
3B
3C
64
3C
7E
4F
CC
4C
78
38
ENDCHAR
STARTCHAR uni1ED7.ss01
ENCODING -1
SWIDTH 451 0
DWIDTH 6 0
BBX 8 14 0 0
BITMAP
32
3C
00
18
3C
64
00
3C
7E
4F
CC
4C
78
38
ENDCHAR
STARTCHAR uni020D.ss01
ENCODING -1
SWIDTH 451 0
DWIDTH 6 0
BBX 8 13 0 0
BITMAP
50
D8
58
68
2C
00
3C
7E
4F
CC
4C
78
38
ENDCHAR
STARTCHAR odieresis.ss01
ENCODING -1
SWIDTH 451 0
DWIDTH 6 0
BBX 8 10 0 0
BITMAP
6C
6C
00
3C
7E
4F
CC
4C
78
38
ENDCHAR
STARTCHAR uni022B.ss01
ENCODING -1
SWIDTH 451 0
DWIDTH 6 0
BBX 8 13 0 0
BITMAP
3C
3C
00
6C
6C
00
3C
7E
4F
CC
4C
78
38
ENDCHAR
STARTCHAR uni0231.ss01
ENCODING -1
SWIDTH 451 0
DWIDTH 6 0
BBX 8 13 0 0
BITMAP
3C
3C
00
18
18
00
3C
7E
4F
CC
4C
78
38
ENDCHAR
STARTCHAR uni1ECD.ss01
ENCODING -1
SWIDTH 451 0
DWIDTH 6 0
BBX 8 10 0 -3
BITMAP
3C
7E
4F
CC
4C
78
38
00
30
30
ENDCHAR
STARTCHAR ograve.ss01
ENCODING -1
SWIDTH 451 0
DWIDTH 6 0
BBX 8 13 0 0
BITMAP
20
60
20
30
10
00
3C
7E
4F
CC
4C
78
38
ENDCHAR
STARTCHAR uni1ECF.ss01
ENCODING -1
SWIDTH 451 0
DWIDTH 6 0
BBX 8 13 0 0
BITMAP
18
3C
0C
1C
18
00
3C
7E
4F
CC
4C
78
38
ENDCHAR
STARTCHAR ohorn.ss01
ENCODING -1
SWIDTH 451 0
DWIDTH 6 0
BBX 8 9 0 0
BITMAP
02
06
3E
7E
4F
CC
4C
78
38
ENDCHAR
STARTCHAR uni1EDB.ss01
ENCODING -1
SWIDTH 451 0
DWIDTH 6 0
BBX 8 13 0 0
BITMAP
04
0C
0C
18
12
06
3E
7E
4F
CC
4C
78
38
ENDCHAR
STARTCHAR uni1EE3.ss01
ENCODING -1
SWIDTH 451 0
DWIDTH 6 0
BBX 8 12 0 -3
BITMAP
02
06
3E
7E
4F
CC
4C
78
38
00
30
30
ENDCHAR
STARTCHAR uni1EDD.ss01
ENCODING -1
SWIDTH 451 0
DWIDTH 6 0
BBX 8 13 0 0
BITMAP
40
60
60
30
12
06
3E
7E
4F
CC
4C
78
38
ENDCHAR
STARTCHAR uni1EDF.ss01
ENCODING -1
SWIDTH 451 0
DWIDTH 6 0
BBX 8 13 0 0
BITMAP
10
38
08
18
1A
06
3E
7E
4F
CC
4C
78
38
ENDCHAR
STARTCHAR uni1EE1.ss01
ENCODING -1
SWIDTH 451 0
DWIDTH 6 0
BBX 8 11 0 0
BITMAP
24
5C
4A
06
3E
7E
4F
CC
4C
78
38
ENDCHAR
STARTCHAR ohungarumlaut.ss01
ENCODING -1
SWIDTH 451 0
DWIDTH 6 0
BBX 8 13 0 0
BITMAP
12
1E
36
34
2C
00
3C
7E
4F
CC
4C
78
38
ENDCHAR
STARTCHAR uni020F.ss01
ENCODING -1
SWIDTH 451 0
DWIDTH 6 0
BBX 8 12 0 0
BITMAP
18
3C
66
46
00
3C
7E
4F
CC
4C
78
38
ENDCHAR
STARTCHAR omacron.ss01
ENCODING -1
SWIDTH 451 0
DWIDTH 6 0
BBX 8 10 0 0
BITMAP
3C
7C
00
3C
7E
4F
CC
4C
78
38
ENDCHAR
STARTCHAR uni01EB.ss01
ENCODING -1
SWIDTH 451 0
DWIDTH 6 0
BBX 8 10 0 -3
BITMAP
3C
7E
4F
CC
4C
78
30
20
20
38
ENDCHAR
STARTCHAR oslash.ss01
ENCODING -1
SWIDTH 451 0
DWIDTH 6 0
BBX 8 11 0 -2
BITMAP
08
08
3C
7E
5F
DD
DC
7C
78
20
20
ENDCHAR
STARTCHAR oslashacute.ss01
ENCODING -1
SWIDTH 451 0
DWIDTH 6 0
BBX 8 15 0 -2
BITMAP
08
18
18
30
28
08
3C
7E
5F
DD
DC
7C
78
20
20
ENDCHAR
STARTCHAR otilde.ss01
ENCODING -1
SWIDTH 451 0
DWIDTH 6 0
BBX 8 11 0 0
BITMAP
22
7E
4C
00
3C
7E
4F
CC
4C
78
38
ENDCHAR
STARTCHAR uni022D.ss01
ENCODING -1
SWIDTH 451 0
DWIDTH 6 0
BBX 8 14 0 0
BITMAP
3C
3C
00
22
7E
4C
00
3C
7E
4F
CC
4C
78
38
ENDCHAR
STARTCHAR p.ss01
ENCODING -1
SWIDTH 500 0
DWIDTH 7 0
BBX 11 14 -2 -7
BITMAP
1900
1B80
1D00
1B00
1B60
1BC0
3980
3800
5000
5000
5000
B000
E000
6000
ENDCHAR
STARTCHAR t.ss01
ENCODING -1
SWIDTH 343 0
DWIDTH 5 0
BBX 7 12 0 0
BITMAP
10
30
30
30
7C
F8
60
60
60
66
7C
38
ENDCHAR
STARTCHAR uni0163.ss01
ENCODING -1
SWIDTH 343 0
DWIDTH 5 0
BBX 7 15 0 -4
BITMAP
30
30
30
20
FC
78
60
60
62
6C
38
38
08
78
70
ENDCHAR
STARTCHAR uni021B.ss01
ENCODING -1
SWIDTH 343 0
DWIDTH 5 0
BBX 7 17 0 -5
BITMAP
10
30
30
30
7C
F8
60
60
60
66
7C
38
00
30
30
30
20
ENDCHAR
STARTCHAR z.ss01
ENCODING -1
SWIDTH 432 0
DWIDTH 6 0
BBX 9 14 -1 -6
BITMAP
2200
3E00
0E00
1800
3000
3180
3F00
1C00
1C00
3C00
6800
5800
D000
7000
ENDCHAR
STARTCHAR zacute.ss01
ENCODING -1
SWIDTH 432 0
DWIDTH 6 0
BBX 9 19 -1 -6
BITMAP
0200
0600
0600
0400
0800
2200
3E00
0E00
1800
3000
3180
3F00
1C00
1C00
3C00
6800
5800
D000
7000
ENDCHAR
STARTCHAR zcaron.ss01
ENCODING -1
SWIDTH 432 0
DWIDTH 6 0
BBX 9 19 -1 -6
BITMAP
1300
1A00
1E00
1C00
0C00
2200
3E00
0E00
1800
3000
3180
3F00
1C00
1C00
3C00
6800
5800
D000
7000
ENDCHAR
STARTCHAR zdotaccent.ss01
ENCODING -1
SWIDTH 432 0
DWIDTH 6 0
BBX 9 16 -1 -6
BITMAP
0C00
1C00
2200
3E00
0E00
1800
3000
3180
3F00
1C00
1C00
3C00
6800
5800
D000
7000
ENDCHAR
STARTCHAR f_f
ENCODING -1
SWIDTH 684 0
DWIDTH 10 0
BBX 10 19 1 -5
BITMAP
1980
39C0
2B40
6A40
4EC0
5E80
D480
F580
EF00
DE00
FDC0
EFC0
AF00
AD00
ED00
ED00
ED00
E700
6600
ENDCHAR
STARTCHAR f_j
ENCODING -1
SWIDTH 633 0
DWIDTH 9 0
BBX 11 19 0 -5
BITMAP
0C00
1E00
1A00
1600
3580
3580
2800
FF00
FF00
6300
6B00
6B60
6BC0
6B80
6B00
6A00
3A00
3600
0600
ENDCHAR
STARTCHAR lslash_lslash
ENCODING -1
SWIDTH 654 0
DWIDTH 9 0
BBX 12 15 1 0
BITMAP
3FE0
7FF0
3980
7BC0
6AC0
4EC0
DE80
D480
D500
ED00
EE00
CE00
CC40
FF80
7700
ENDCHAR
STARTCHAR t_t
ENCODING -1
SWIDTH 706 0
DWIDTH 10 0
BBX 12 13 0 0
BITMAP
0CC0
1DC0
3540
3740
2BC0
FFE0
FFC0
6200
6200
6200
6730
3FE0
39C0
ENDCHAR
STARTCHAR f_j.fina
ENCODING -1
SWIDTH 624 0
DWIDTH 9 0
BBX 9 19 0 -5
BITMAP
0C00
1E00
1A00
1600
3580
3580
2800
FF00
FF00
6300
6B00
6B00
6B00
6B00
6B00
6A00
3A00
3600
0600
ENDCHAR
STARTCHAR fi.fina
ENCODING -1
SWIDTH 603 0
DWIDTH 8 0
BBX 9 19 0 -5
BITMAP
0C00
1E00
1A00
1600
3580
3580
2800
FF00
7F00
6300
6B00
6B00
6B00
6B00
6800
6800
6800
3000
2000
ENDCHAR
STARTCHAR fl.fina
ENCODING -1
SWIDTH 730 0
DWIDTH 10 0
BBX 10 19 1 -5
BITMAP
19C0
39C0
2F40
6A40
6A40
5EC0
D680
F680
E700
C700
FE00
BE00
A780
A380
E000
E000
E000
E000
4000
ENDCHAR
STARTCHAR f_ij.loclNLD.fina
ENCODING -1
SWIDTH 837 0
DWIDTH 12 0
BBX 12 21 0 -7
BITMAP
0C00
1E00
1A00
1600
35B0
35B0
2800
FF30
7F20
6320
6B60
6B60
6BE0
69E0
6860
68C0
6940
32C0
2680
0780
0300
ENDCHAR
STARTCHAR i_j.loclNLD.fina
ENCODING -1
SWIDTH 451 0
DWIDTH 6 0
BBX 7 17 0 -7
BITMAP
36
76
00
64
6C
6C
4C
5C
78
68
18
38
58
D0
B0
F0
E0
ENDCHAR
STARTCHAR t_t.ss01.fina
ENCODING -1
SWIDTH 666 0
DWIDTH 9 0
BBX 10 12 0 0
BITMAP
1100
3300
3300
3300
7F80
FFC0
6600
6600
6600
6600
7FC0
3B80
ENDCHAR
STARTCHAR I_J.loclNLD
ENCODING -1
SWIDTH 776 0
DWIDTH 11 0
BBX 9 13 1 0
BITMAP
6080
6180
6180
6180
6180
6380
6380
7D80
3980
0300
8300
FE00
7C00
ENDCHAR
STARTCHAR f_ij.loclNLD
ENCODING -1
SWIDTH 865 0
DWIDTH 12 0
BBX 14 21 0 -7
BITMAP
0C00
1200
1600
1600
35B0
3DB0
2800
FF30
7F20
6320
6B60
6B6C
6BF8
69F0
6860
68C0
6940
32C0
2680
0780
0300
ENDCHAR
STARTCHAR i_j.loclNLD
ENCODING -1
SWIDTH 479 0
DWIDTH 7 0
BBX 8 17 0 -7
BITMAP
36
76
00
64
6C
6C
4C
5D
7E
6C
18
38
58
D0
B0
F0
E0
ENDCHAR
STARTCHAR t_t.ss01
ENCODING -1
SWIDTH 632 0
DWIDTH 9 0
BBX 11 12 0 0
BITMAP
1100
3300
3300
3300
7F80
FFC0
6600
6600
6600
6660
7FC0
3B80
ENDCHAR
STARTCHAR uni0410.ss01
ENCODING -1
SWIDTH 780 0
DWIDTH 11 0
BBX 11 13 1 0
BITMAP
07E0
1FC0
3880
6180
6180
C180
C180
C380
C300
C300
C700
7F00
7B00
ENDCHAR
STARTCHAR uni0411.ss01
ENCODING -1
SWIDTH 881 0
DWIDTH 12 0
BBX 10 14 2 -1
BITMAP
7F80
7F80
3000
3000
3000
3000
3F80
FFC0
70C0
60C0
60C0
61C0
6F80
6C00
ENDCHAR
STARTCHAR uni0412.ss01
ENCODING -1
SWIDTH 826 0
DWIDTH 12 0
BBX 10 13 1 0
BITMAP
3F00
7FC0
00C0
30C0
60C0
61C0
6F00
6F80
6180
C180
C180
FF00
FE00
ENDCHAR
STARTCHAR uni0413.ss01
ENCODING -1
SWIDTH 634 0
DWIDTH 9 0
BBX 9 13 3 0
BITMAP
FF80
FF80
6000
6000
6000
6000
6000
6000
C000
C000
C000
C000
C000
ENDCHAR
STARTCHAR uni0403.ss01
ENCODING -1
SWIDTH 634 0
DWIDTH 9 0
BBX 9 17 3 0
BITMAP
0200
0600
0E00
1800
FF80
FF80
6000
6000
6000
6000
6000
6000
C000
C000
C000
C000
C000
ENDCHAR
STARTCHAR uni0490.ss01
ENCODING -1
SWIDTH 639 0
DWIDTH 9 0
BBX 9 16 3 0
BITMAP
0080
0080
0080
FF80
FF00
6000
6000
6000
6000
6000
6000
C000
C000
C000
C000
C000
ENDCHAR
STARTCHAR uni0414.ss01
ENCODING -1
SWIDTH 836 0
DWIDTH 12 0
BBX 10 13 1 0
BITMAP
3F00
FF80
81C0
30C0
30C0
60C0
60C0
60C0
60C0
61C0
6380
7F00
7C00
ENDCHAR
STARTCHAR uni0415.ss01
ENCODING -1
SWIDTH 720 0
DWIDTH 10 0
BBX 9 13 1 0
BITMAP
1F00
7F80
6180
6180
6180
7C00
7C00
E000
C000
C080
C180
FF00
7E00
ENDCHAR
STARTCHAR uni0400.ss01
ENCODING -1
SWIDTH 720 0
DWIDTH 10 0
BBX 9 17 1 0
BITMAP
2000
3000
3800
0C00
1F00
7F80
6180
6180
6180
7C00
7C00
E000
C000
C080
C180
FF00
7E00
ENDCHAR
STARTCHAR uni0401.ss01
ENCODING -1
SWIDTH 720 0
DWIDTH 10 0
BBX 9 15 1 0
BITMAP
1B00
1B00
1F00
7F80
6180
6180
6180
7C00
7C00
E000
C000
C080
C180
FF00
7E00
ENDCHAR
STARTCHAR uni0416.ss01
ENCODING -1
SWIDTH 1196 0
DWIDTH 17 0
BBX 17 13 0 0
BITMAP
384380
3CC780
0CC400
04CC00
06CC00
06D800
03F000
07F000
0D9800
199800
199C00
F18F00
E18700
ENDCHAR
STARTCHAR uni0417.ss01
ENCODING -1
SWIDTH 725 0
DWIDTH 10 0
BBX 9 13 1 0
BITMAP
1E00
7F00
6300
6300
6300
0600
1F00
1300
8180
C380
C300
FF00
7C00
ENDCHAR
STARTCHAR uni0418.ss01
ENCODING -1
SWIDTH 800 0
DWIDTH 11 0
BBX 10 13 1 0
BITMAP
20C0
70C0
60C0
6180
6180
6180
6180
6380
C380
C780
C580
FD00
7300
ENDCHAR
STARTCHAR uni0419.ss01
ENCODING -1
SWIDTH 800 0
DWIDTH 11 0
BBX 10 16 1 0
BITMAP
0080
0980
0F00
20C0
70C0
60C0
6180
6180
6180
6180
6380
C380
C780
C580
FD00
7300
ENDCHAR
STARTCHAR uni040D.ss01
ENCODING -1
SWIDTH 800 0
DWIDTH 11 0
BBX 10 17 1 0
BITMAP
2000
3000
1800
0400
20C0
70C0
60C0
6180
6180
6180
6180
6380
C380
C780
C580
FD00
7300
ENDCHAR
STARTCHAR uni048A.ss01
ENCODING -1
SWIDTH 815 0
DWIDTH 11 0
BBX 10 16 1 -3
BITMAP
20C0
70C0
60C0
6180
6180
6180
6180
6380
C380
C780
C580
FDC0
73C0
0180
0300
0300
ENDCHAR
STARTCHAR uni041A.ss01
ENCODING -1
SWIDTH 779 0
DWIDTH 11 0
BBX 10 13 1 0
BITMAP
30C0
30C0
3180
6180
6300
6600
FC00
F800
6C00
C600
C600
C3C0
C3C0
ENDCHAR
STARTCHAR uni040C.ss01
ENCODING -1
SWIDTH 779 0
DWIDTH 11 0
BBX 10 17 1 0
BITMAP
0080
01C0
0380
0600
30C0
30C0
3180
6180
6300
6600
FC00
F800
6C00
C600
C600
C3C0
C3C0
ENDCHAR
STARTCHAR uni041B.ss01
ENCODING -1
SWIDTH 706 0
DWIDTH 10 0
BBX 10 13 0 0
BITMAP
0300
0700
0700
0700
0F00
0F00
0B00
1B00
1B00
3300
3300
E380
C1C0
ENDCHAR
STARTCHAR uni041C.ss01
ENCODING -1
SWIDTH 967 0
DWIDTH 14 0
BBX 13 13 0 0
BITMAP
0C30
0E70
0C70
1C70
1CF0
1CF0
1EB0
17B0
37B0
3730
3730
E738
C218
ENDCHAR
STARTCHAR uni041D.ss01
ENCODING -1
SWIDTH 846 0
DWIDTH 12 0
BBX 11 13 1 0
BITMAP
30C0
30C0
30C0
20C0
60C0
60C0
FFE0
FFC0
6180
6180
C180
C180
C180
ENDCHAR
STARTCHAR uni041E.ss01
ENCODING -1
SWIDTH 816 0
DWIDTH 11 0
BBX 10 13 1 0
BITMAP
0F00
3F80
71C0
60C0
C0C0
C0C0
C0C0
C0C0
C0C0
C180
E180
7F00
3E00
ENDCHAR
STARTCHAR uni041F.ss01
ENCODING -1
SWIDTH 847 0
DWIDTH 12 0
BBX 11 13 1 0
BITMAP
FFE0
7FE0
30C0
20C0
6080
6180
6180
6180
6180
6180
E180
C380
C100
ENDCHAR
STARTCHAR uni0420.ss01
ENCODING -1
SWIDTH 662 0
DWIDTH 9 0
BBX 8 13 1 0
BITMAP
7C
FF
33
33
63
63
67
FE
F8
60
60
C0
C0
ENDCHAR
STARTCHAR uni0421.ss01
ENCODING -1
SWIDTH 704 0
DWIDTH 10 0
BBX 9 13 1 0
BITMAP
0F00
3F00
7180
6180
C180
C000
C000
C000
C000
C000
E180
7F00
3E00
ENDCHAR
STARTCHAR uni0422.ss01
ENCODING -1
SWIDTH 631 0
DWIDTH 9 0
BBX 9 13 1 0
BITMAP
FF80
FF80
1800
1800
1800
1800
1800
1800
3000
3000
3000
3000
3000
ENDCHAR
STARTCHAR uni0423.ss01
ENCODING -1
SWIDTH 776 0
DWIDTH 11 0
BBX 9 13 1 0
BITMAP
6080
6180
6180
6180
6180
6380
6380
7D80
3980
0300
8300
FE00
7C00
ENDCHAR
STARTCHAR uni040E.ss01
ENCODING -1
SWIDTH 776 0
DWIDTH 11 0
BBX 9 16 1 0
BITMAP
0180
1900
0F00
6080
6180
6180
6180
6180
6380
6380
7D80
3980
0300
8300
FE00
7C00
ENDCHAR
STARTCHAR uni0424.ss01
ENCODING -1
SWIDTH 978 0
DWIDTH 14 0
BBX 12 14 1 -1
BITMAP
0300
0300
3B70
7EF0
6330
C310
C630
C630
CE30
DE70
F7E0
6480
0400
0400
ENDCHAR
STARTCHAR uni0425.ss01
ENCODING -1
SWIDTH 677 0
DWIDTH 9 0
BBX 11 13 -1 0
BITMAP
1860
1860
0CC0
0D80
0F80
0700
0600
0F00
1B00
3980
3180
61C0
C0C0
ENDCHAR
STARTCHAR uni0427.ss01
ENCODING -1
SWIDTH 773 0
DWIDTH 11 0
BBX 8 13 2 0
BITMAP
C1
C3
C3
C3
C3
C7
CF
FB
73
02
06
06
06
ENDCHAR
STARTCHAR uni0426.ss01
ENCODING -1
SWIDTH 822 0
DWIDTH 12 0
BBX 10 18 1 -5
BITMAP
20C0
70C0
60C0
6180
6180
6180
6180
6380
C380
C780
C580
FDC0
70C0
03C0
07C0
0680
0780
0700
ENDCHAR
STARTCHAR uni0428.ss01
ENCODING -1
SWIDTH 1174 0
DWIDTH 16 0
BBX 15 13 1 0
BITMAP
2086
7186
6186
6186
618E
618C
630C
630C
C31C
C71C
CF2C
FBEC
71C8
ENDCHAR
STARTCHAR uni0429.ss01
ENCODING -1
SWIDTH 1194 0
DWIDTH 17 0
BBX 15 18 1 -5
BITMAP
2086
7186
6186
6186
618E
618C
630C
630C
C31C
C71C
CF2C
FBEE
71C6
000E
001E
0036
003C
0018
ENDCHAR
STARTCHAR uni040F.ss01
ENCODING -1
SWIDTH 800 0
DWIDTH 11 0
BBX 10 16 1 -3
BITMAP
20C0
70C0
60C0
6180
6180
6180
6180
6380
C380
C780
C580
FD00
7B00
1800
1000
3000
ENDCHAR
STARTCHAR uni042C.ss01
ENCODING -1
SWIDTH 721 0
DWIDTH 10 0
BBX 10 13 0 0
BITMAP
1800
1800
3000
3000
3000
3F80
7FC0
E0C0
20C0
20C0
3180
3F80
1E00
ENDCHAR
STARTCHAR uni042A.ss01
ENCODING -1
SWIDTH 863 0
DWIDTH 12 0
BBX 10 13 2 0
BITMAP
0800
FC00
F800
1800
3000
3F80
7FC0
E0C0
60C0
20C0
3180
3F80
1E00
ENDCHAR
STARTCHAR uni042B.ss01
ENCODING -1
SWIDTH 1078 0
DWIDTH 15 0
BBX 15 13 0 0
BITMAP
1806
1806
300C
300C
300C
3F8C
7FCC
E0CC
20CC
20D8
3198
3F98
1E18
ENDCHAR
STARTCHAR uni0409.ss01
ENCODING -1
SWIDTH 998 0
DWIDTH 14 0
BBX 14 13 0 0
BITMAP
0300
0700
0700
0700
0F00
0FF8
0BF8
1B0C
1B0C
330C
3318
E3F8
C1E0
ENDCHAR
STARTCHAR uni040A.ss01
ENCODING -1
SWIDTH 1102 0
DWIDTH 15 0
BBX 14 13 1 0
BITMAP
3180
3180
3180
2100
6300
67F8
FFFC
E30C
630C
630C
C30C
C3F8
C1F0
ENDCHAR
STARTCHAR uni0405.ss01
ENCODING -1
SWIDTH 693 0
DWIDTH 10 0
BBX 10 13 0 0
BITMAP
1F00
3F80
30C0
60C0
3080
3800
1E00
0780
4180
C180
4180
7F00
3E00
ENDCHAR
STARTCHAR uni0404.ss01
ENCODING -1
SWIDTH 704 0
DWIDTH 10 0
BBX 9 13 1 0
BITMAP
0F00
3F00
7180
6180
C180
C000
FC00
FC00
C000
C000
E180
7F00
3E00
ENDCHAR
STARTCHAR uni042D.ss01
ENCODING -1
SWIDTH 755 0
DWIDTH 11 0
BBX 9 13 1 0
BITMAP
3E00
7F00
C380
8180
0180
0180
3F80
3F80
0180
C180
C300
FE00
7C00
ENDCHAR
STARTCHAR uni0406.ss01
ENCODING -1
SWIDTH 357 0
DWIDTH 5 0
BBX 4 13 1 0
BITMAP
20
70
60
60
60
60
60
60
40
C0
C0
C0
C0
ENDCHAR
STARTCHAR uni0407.ss01
ENCODING -1
SWIDTH 357 0
DWIDTH 5 0
BBX 5 15 1 0
BITMAP
F8
58
20
70
60
60
60
60
60
60
40
C0
C0
C0
C0
ENDCHAR
STARTCHAR uni0408.ss01
ENCODING -1
SWIDTH 716 0
DWIDTH 10 0
BBX 9 13 1 0
BITMAP
3F80
7F80
C300
C300
C300
4300
0300
0300
0200
8600
C600
FC00
7800
ENDCHAR
STARTCHAR uni040B.ss01
ENCODING -1
SWIDTH 884 0
DWIDTH 12 0
BBX 11 13 1 0
BITMAP
FF80
FF80
1800
1800
1800
1800
1BC0
1FC0
3860
3860
30E0
30C0
30C0
ENDCHAR
STARTCHAR uni042E.ss01
ENCODING -1
SWIDTH 1166 0
DWIDTH 16 0
BBX 15 13 1 0
BITMAP
3078
31FC
330E
2306
6606
6606
FE06
FE06
6606
660C
C71C
C3F8
C1E0
ENDCHAR
STARTCHAR uni042F.ss01
ENCODING -1
SWIDTH 827 0
DWIDTH 12 0
BBX 10 13 1 0
BITMAP
0FC0
3FC0
30C0
30C0
31C0
3180
3F80
1F80
0680
0780
0D80
F980
F180
ENDCHAR
STARTCHAR uni0402.ss01
ENCODING -1
SWIDTH 843 0
DWIDTH 12 0
BBX 11 20 1 -7
BITMAP
FF80
FF80
1800
1800
1800
1800
1BC0
1FC0
3860
3860
30C0
30C0
30C0
01C0
03C0
0680
0580
0D80
0F00
0600
ENDCHAR
STARTCHAR uni0462.ss01
ENCODING -1
SWIDTH 721 0
DWIDTH 10 0
BBX 10 13 0 0
BITMAP
1800
1800
7C00
7C00
3000
3F80
7FC0
E0C0
20C0
20C0
3180
3F80
1E00
ENDCHAR
STARTCHAR uni046A.ss01
ENCODING -1
SWIDTH 1196 0
DWIDTH 17 0
BBX 17 13 0 0
BITMAP
3FFF80
3FFF00
0C0C00
040C00
061C00
061800
03F000
07F000
0D9800
199800
199C00
F18F00
E18700
ENDCHAR
STARTCHAR uni0472.ss01
ENCODING -1
SWIDTH 816 0
DWIDTH 11 0
BBX 10 13 1 0
BITMAP
0F00
3F80
71C0
60C0
C0C0
D0C0
FFC0
C7C0
C0C0
C180
E380
7F00
3E00
ENDCHAR
STARTCHAR uni0474.ss01
ENCODING -1
SWIDTH 797 0
DWIDTH 11 0
BBX 12 13 2 0
BITMAP
C1F0
C1F0
C180
C180
C180
C300
C300
C300
C600
C600
CC00
7800
7000
ENDCHAR
STARTCHAR uni0492.ss01
ENCODING -1
SWIDTH 634 0
DWIDTH 9 0
BBX 10 13 2 0
BITMAP
7FC0
7FC0
3000
3000
3000
3000
FC00
F800
6000
6000
6000
6000
6000
ENDCHAR
STARTCHAR uni0494.ss01
ENCODING -1
SWIDTH 889 0
DWIDTH 12 0
BBX 9 20 3 -7
BITMAP
FF80
FF80
6000
6000
6000
6000
6F00
7F00
E180
E180
C300
C300
C300
0700
0F00
1A00
1600
3600
3C00
1800
ENDCHAR
STARTCHAR uni0496.ss01
ENCODING -1
SWIDTH 1186 0
DWIDTH 17 0
BBX 17 18 0 -5
BITMAP
384380
3CC780
0CC400
04CC00
06CC00
06D800
03F000
07F000
0D9800
199800
199C00
F18F00
E18700
000700
001B00
001200
001E00
001C00
ENDCHAR
STARTCHAR uni0498.ss01
ENCODING -1
SWIDTH 725 0
DWIDTH 10 0
BBX 9 18 1 -5
BITMAP
1E00
7F00
6300
6300
6300
0600
1F00
1300
8180
C380
C300
FF00
7C00
1C00
3400
6C00
7800
3800
ENDCHAR
STARTCHAR uni049A.ss01
ENCODING -1
SWIDTH 779 0
DWIDTH 11 0
BBX 10 18 1 -5
BITMAP
30C0
30C0
2180
6180
6300
6700
FC00
F800
6C00
C600
C600
C380
C380
0380
0D80
0D00
0F00
0E00
ENDCHAR
STARTCHAR uni049C.ss01
ENCODING -1
SWIDTH 779 0
DWIDTH 11 0
BBX 10 13 1 0
BITMAP
30C0
30C0
3180
6180
6B00
6E00
FC00
F800
7C00
D600
D600
C3C0
C3C0
ENDCHAR
STARTCHAR uni049E.ss01
ENCODING -1
SWIDTH 779 0
DWIDTH 11 0
BBX 10 13 1 0
BITMAP
30C0
30C0
3180
F980
6300
6600
FC00
F800
6C00
C600
C600
C3C0
C3C0
ENDCHAR
STARTCHAR uni04A0.ss01
ENCODING -1
SWIDTH 964 0
DWIDTH 14 0
BBX 12 13 2 0
BITMAP
FC60
FC60
1860
18C0
18C0
1980
3F00
3E00
3300
3300
3180
31F0
30E0
ENDCHAR
STARTCHAR uni04A2.ss01
ENCODING -1
SWIDTH 846 0
DWIDTH 12 0
BBX 11 18 1 -5
BITMAP
30C0
30C0
30C0
20C0
60C0
60C0
FFE0
FFC0
6180
6180
C180
C1C0
C040
01C0
03C0
06C0
0780
0380
ENDCHAR
STARTCHAR uni04A4.ss01
ENCODING -1
SWIDTH 1026 0
DWIDTH 14 0
BBX 14 13 1 0
BITMAP
30FC
30FC
30C0
60C0
60C0
60C0
FFE0
FFC0
6180
6180
C180
C180
C180
ENDCHAR
STARTCHAR uni0524.ss01
ENCODING -1
SWIDTH 892 0
DWIDTH 12 0
BBX 11 18 1 -5
BITMAP
FFE0
7FE0
30C0
20C0
6180
6180
6180
6180
6180
6180
E180
C1C0
C0C0
01C0
03C0
0680
0780
0700
ENDCHAR
STARTCHAR uni04A8.ss01
ENCODING -1
SWIDTH 997 0
DWIDTH 14 0
BBX 15 13 1 0
BITMAP
1C00
3CE0
73F0
6338
C618
C618
C618
C618
C618
C630
6366
7FFE
1FF8
ENDCHAR
STARTCHAR uni04AA.ss01
ENCODING -1
SWIDTH 704 0
DWIDTH 10 0
BBX 9 20 1 -7
BITMAP
0F00
3F00
7180
6180
C180
C000
C000
C000
C000
C000
E180
7F80
3F80
0300
0700
0F00
0B00
1A00
1E00
0C00
ENDCHAR
STARTCHAR uni04AC.ss01
ENCODING -1
SWIDTH 697 0
DWIDTH 10 0
BBX 10 18 2 -5
BITMAP
FFC0
FF80
0C00
1800
1800
1800
1800
1800
1800
3000
3000
3C00
1800
2800
4800
D800
F000
6000
ENDCHAR
STARTCHAR uni04AE.ss01
ENCODING -1
SWIDTH 677 0
DWIDTH 9 0
BBX 8 13 2 0
BITMAP
C3
C3
E6
66
6C
3C
38
30
10
30
30
30
30
ENDCHAR
STARTCHAR uni04B0.ss01
ENCODING -1
SWIDTH 677 0
DWIDTH 9 0
BBX 8 13 2 0
BITMAP
C3
C3
66
66
6C
3C
38
7C
7C
30
30
30
30
ENDCHAR
STARTCHAR uni04B2.ss01
ENCODING -1
SWIDTH 677 0
DWIDTH 9 0
BBX 11 18 -1 -5
BITMAP
1860
1860
0CC0
0D80
0F80
0700
0600
0F00
1B00
3980
3180
61E0
C0E0
01E0
0340
02C0
07C0
0380
ENDCHAR
STARTCHAR uni04B4.ss01
ENCODING -1
SWIDTH 965 0
DWIDTH 14 0
BBX 12 18 1 -5
BITMAP
FF30
FF30
1830
1870
1860
1860
1860
18E0
30E0
30E0
3160
3F70
1E30
00F0
01F0
01A0
01E0
01C0
ENDCHAR
STARTCHAR uni04B6.ss01
ENCODING -1
SWIDTH 804 0
DWIDTH 11 0
BBX 9 18 2 -5
BITMAP
C100
C300
C300
C300
C300
C700
CF00
FB00
7200
0200
0780
0380
0180
0780
0D00
0900
0F00
0E00
ENDCHAR
STARTCHAR uni04B8.ss01
ENCODING -1
SWIDTH 773 0
DWIDTH 11 0
BBX 8 13 2 0
BITMAP
C1
C3
C3
C3
D3
D7
D7
FB
7B
32
26
06
06
ENDCHAR
STARTCHAR uni04BA.ss01
ENCODING -1
SWIDTH 744 0
DWIDTH 10 0
BBX 9 13 1 0
BITMAP
2000
7000
6000
6000
6000
6000
6F00
7F00
6180
E180
C380
C300
C300
ENDCHAR
STARTCHAR uni0526.ss01
ENCODING -1
SWIDTH 818 0
DWIDTH 11 0
BBX 10 18 1 -5
BITMAP
3000
3000
3000
6000
6000
6000
6F00
7F80
6180
E180
C380
C3C0
C1C0
01C0
03C0
0680
0780
0700
ENDCHAR
STARTCHAR uni0528.ss01
ENCODING -1
SWIDTH 846 0
DWIDTH 12 0
BBX 15 18 -3 -5
BITMAP
030C
030C
030C
020C
060C
060C
0FFE
0FFC
0618
0618
0418
0C18
0C18
0C00
0C00
5800
F800
7000
ENDCHAR
STARTCHAR uni052E.ss01
ENCODING -1
SWIDTH 706 0
DWIDTH 10 0
BBX 10 18 0 -5
BITMAP
0300
0700
0700
0700
0F00
0F00
0B00
1B00
1B00
3300
3300
E3C0
C1C0
03C0
0680
0480
0780
0700
ENDCHAR
STARTCHAR uni04BC.ss01
ENCODING -1
SWIDTH 824 0
DWIDTH 12 0
BBX 11 13 1 0
BITMAP
0780
0FC0
18C0
3860
3040
B0C0
FFC0
7F80
3000
3000
3800
1FC0
0F80
ENDCHAR
STARTCHAR uni04BE.ss01
ENCODING -1
SWIDTH 824 0
DWIDTH 12 0
BBX 11 17 1 -4
BITMAP
0780
0FC0
18C0
3860
3040
B0C0
FFC0
7F80
3000
3000
3800
1FC0
0F80
0800
1800
0E00
0E00
ENDCHAR
STARTCHAR uni04C0.ss01
ENCODING -1
SWIDTH 357 0
DWIDTH 5 0
BBX 4 13 1 0
BITMAP
20
70
60
60
60
60
60
60
40
C0
C0
C0
C0
ENDCHAR
STARTCHAR uni04C1.ss01
ENCODING -1
SWIDTH 1196 0
DWIDTH 17 0
BBX 17 16 0 0
BITMAP
001800
019000
00F000
384380
3CC780
0CC400
04CC00
06CC00
06D800
03F000
07F000
0D9800
199800
199C00
F18F00
E18700
ENDCHAR
STARTCHAR uni04C3.ss01
ENCODING -1
SWIDTH 779 0
DWIDTH 11 0
BBX 10 18 1 -5
BITMAP
30C0
30C0
2180
6180
6300
6700
FC00
F800
6C00
C600
C600
C380
C380
0380
0D80
0D00
0F00
0E00
ENDCHAR
STARTCHAR uni04C5.ss01
ENCODING -1
SWIDTH 706 0
DWIDTH 10 0
BBX 10 16 0 -3
BITMAP
0300
0700
0700
0700
0F00
0F00
0B00
1B00
1B00
3300
3300
E3C0
C1C0
0180
0300
0200
ENDCHAR
STARTCHAR uni04C7.ss01
ENCODING -1
SWIDTH 846 0
DWIDTH 12 0
BBX 11 18 1 -5
BITMAP
30C0
30C0
30C0
20C0
60C0
60C0
FFE0
FFC0
6180
6180
C180
C1C0
C040
01C0
03C0
06C0
0780
0380
ENDCHAR
STARTCHAR uni04C9.ss01
ENCODING -1
SWIDTH 873 0
DWIDTH 12 0
BBX 11 16 1 -3
BITMAP
30C0
30C0
30C0
20C0
60C0
60C0
FFE0
FFC0
6180
6180
C180
C1E0
C1C0
0180
0180
0300
ENDCHAR
STARTCHAR uni04CB.ss01
ENCODING -1
SWIDTH 773 0
DWIDTH 11 0
BBX 8 18 2 -5
BITMAP
C1
C3
C3
C3
C3
C7
CF
FB
73
02
06
0E
0E
3C
68
48
78
70
ENDCHAR
STARTCHAR uni04CD.ss01
ENCODING -1
SWIDTH 967 0
DWIDTH 14 0
BBX 14 16 0 -3
BITMAP
0C30
0E70
0C70
1C70
1CF0
1CF0
1EB0
17B0
37B0
3730
3730
E73C
C218
0030
0030
0060
ENDCHAR
STARTCHAR uni04D0.ss01
ENCODING -1
SWIDTH 780 0
DWIDTH 11 0
BBX 11 16 1 0
BITMAP
0040
0640
0380
07E0
1FC0
3880
6180
6180
C180
C180
C380
C300
C300
C700
7F00
7B00
ENDCHAR
STARTCHAR uni04D2.ss01
ENCODING -1
SWIDTH 780 0
DWIDTH 11 0
BBX 11 15 1 0
BITMAP
06C0
06C0
07E0
1FC0
3880
6180
6180
C180
C180
C380
C300
C300
C700
7F00
7B00
ENDCHAR
STARTCHAR uni04D4.ss01
ENCODING -1
SWIDTH 1057 0
DWIDTH 15 0
BBX 14 13 1 0
BITMAP
0EFC
1EFC
38C0
6180
6180
C180
C1F8
C3F8
C300
C300
C780
7DFC
38F8
ENDCHAR
STARTCHAR uni04D6.ss01
ENCODING -1
SWIDTH 720 0
DWIDTH 10 0
BBX 9 16 1 0
BITMAP
0180
1900
0F00
1F00
7F80
6180
6180
6180
7C00
7C00
E000
C000
C080
C180
FF00
7E00
ENDCHAR
STARTCHAR uni04D8.ss01
ENCODING -1
SWIDTH 792 0
DWIDTH 11 0
BBX 10 13 1 0
BITMAP
1E00
7F80
6180
41C0
00C0
00C0
7FC0
FFC0
C180
C180
C300
7F00
3C00
ENDCHAR
STARTCHAR uni04DA.ss01
ENCODING -1
SWIDTH 792 0
DWIDTH 11 0
BBX 10 15 1 0
BITMAP
1B00
1B00
1E00
7F80
6180
41C0
00C0
00C0
7FC0
FFC0
C180
C180
C300
7F00
3C00
ENDCHAR
STARTCHAR uni04DC.ss01
ENCODING -1
SWIDTH 1196 0
DWIDTH 17 0
BBX 17 15 0 0
BITMAP
01B000
01B000
384380
3CC780
0CC400
04CC00
06CC00
06D800
03F000
07F000
0D9800
199800
199C00
F18F00
E18700
ENDCHAR
STARTCHAR uni04DE.ss01
ENCODING -1
SWIDTH 725 0
DWIDTH 10 0
BBX 9 15 1 0
BITMAP
1B00
1B00
1E00
7F00
6300
6300
6300
0600
1F00
1300
8180
C380
C300
FF00
7C00
ENDCHAR
STARTCHAR uni04E0.ss01
ENCODING -1
SWIDTH 744 0
DWIDTH 10 0
BBX 10 13 1 0
BITMAP
3F80
7FC0
6180
6300
6300
0600
1F00
1300
8180
C380
C300
FF00
7C00
ENDCHAR
STARTCHAR uni04E2.ss01
ENCODING -1
SWIDTH 800 0
DWIDTH 11 0
BBX 10 15 1 0
BITMAP
0F00
0F00
20C0
70C0
60C0
6180
6180
6180
6180
6380
C380
C780
C580
FD00
7300
ENDCHAR
STARTCHAR uni04E4.ss01
ENCODING -1
SWIDTH 800 0
DWIDTH 11 0
BBX 10 15 1 0
BITMAP
0F80
1B00
20C0
70C0
60C0
6180
6180
6180
6180
6380
C380
C780
C580
FD00
7300
ENDCHAR
STARTCHAR uni04E6.ss01
ENCODING -1
SWIDTH 816 0
DWIDTH 11 0
BBX 10 15 1 0
BITMAP
0F80
1B00
0F00
3F80
71C0
60C0
C0C0
C0C0
C0C0
C0C0
C0C0
C180
E180
7F00
3E00
ENDCHAR
STARTCHAR uni04E8.ss01
ENCODING -1
SWIDTH 816 0
DWIDTH 11 0
BBX 10 13 1 0
BITMAP
0F00
3F80
71C0
60C0
C0C0
C0C0
FFC0
FFC0
C0C0
C180
E180
7F00
3E00
ENDCHAR
STARTCHAR uni04EA.ss01
ENCODING -1
SWIDTH 816 0
DWIDTH 11 0
BBX 10 15 1 0
BITMAP
0F80
1B00
0F00
3F80
71C0
60C0
C0C0
C0C0
FFC0
FFC0
C0C0
C180
E180
7F00
3E00
ENDCHAR
STARTCHAR uni04EC.ss01
ENCODING -1
SWIDTH 755 0
DWIDTH 11 0
BBX 9 15 1 0
BITMAP
1B00
1B00
3E00
7F00
C380
8180
0180
0180
3F80
3F80
0180
C180
C300
FE00
7C00
ENDCHAR
STARTCHAR uni04EE.ss01
ENCODING -1
SWIDTH 776 0
DWIDTH 11 0
BBX 9 15 1 0
BITMAP
0F00
1F00
6080
6180
6180
6180
6180
6380
6380
7D80
3980
0300
8300
FE00
7C00
ENDCHAR
STARTCHAR uni04F0.ss01
ENCODING -1
SWIDTH 776 0
DWIDTH 11 0
BBX 9 15 1 0
BITMAP
1B00
1B00
6080
6180
6180
6180
6180
6380
6380
7D80
3980
0300
8300
FE00
7C00
ENDCHAR
STARTCHAR uni04F2.ss01
ENCODING -1
SWIDTH 776 0
DWIDTH 11 0
BBX 9 17 1 0
BITMAP
0500
0D00
0B00
0A00
6080
6180
6180
6180
6180
6380
6380
7D80
3980
0300
8300
FE00
7C00
ENDCHAR
STARTCHAR uni04F4.ss01
ENCODING -1
SWIDTH 773 0
DWIDTH 11 0
BBX 8 15 2 0
BITMAP
36
36
C1
C3
C3
C3
C3
C7
CF
FB
73
02
06
06
06
ENDCHAR
STARTCHAR uni04F6.ss01
ENCODING -1
SWIDTH 600 0
DWIDTH 8 0
BBX 11 18 1 -5
BITMAP
3FE0
3FE0
1800
1800
1800
1800
1800
1800
3000
3000
3000
3800
3800
6800
D800
D800
F000
6000
ENDCHAR
STARTCHAR uni04F8.ss01
ENCODING -1
SWIDTH 1078 0
DWIDTH 15 0
BBX 15 15 0 0
BITMAP
01B0
01A0
1806
1806
300C
300C
300C
3F8C
7FCC
E0CC
20CC
20D8
3198
3F98
1E18
ENDCHAR
STARTCHAR uni04FA.ss01
ENCODING -1
SWIDTH 634 0
DWIDTH 9 0
BBX 13 19 -1 -6
BITMAP
0FF8
0FF8
0600
0600
0600
0600
1F80
1F00
0C00
0C00
0C00
0C00
0C00
0C00
0C00
1800
D800
F000
6000
ENDCHAR
STARTCHAR uni04FC.ss01
ENCODING -1
SWIDTH 846 0
DWIDTH 12 0
BBX 11 18 1 -5
BITMAP
30C0
30C0
30C0
20C0
60C0
60C0
FFE0
FFC0
6180
6180
C180
C1C0
C040
01C0
03C0
06C0
0780
0380
ENDCHAR
STARTCHAR uni04FE.ss01
ENCODING -1
SWIDTH 677 0
DWIDTH 9 0
BBX 11 13 -1 0
BITMAP
1860
1860
1CC0
0DC0
0D80
0700
1FC0
0F00
0F00
1B80
3180
6180
E0C0
ENDCHAR
STARTCHAR uni0510.ss01
ENCODING -1
SWIDTH 706 0
DWIDTH 10 0
BBX 8 13 1 0
BITMAP
1E
3F
63
61
63
30
7C
CC
C1
C1
C3
FF
3C
ENDCHAR
STARTCHAR uni0512.ss01
ENCODING -1
SWIDTH 706 0
DWIDTH 10 0
BBX 10 18 0 -5
BITMAP
0300
0700
0700
0700
0F00
0F00
0B00
1B00
1B00
3300
3300
E3C0
C1C0
03C0
0680
0480
0780
0700
ENDCHAR
STARTCHAR uni051A.ss01
ENCODING -1
SWIDTH 816 0
DWIDTH 11 0
BBX 10 17 1 -4
BITMAP
0F00
3F80
71C0
60C0
C0C0
C0C0
C0C0
C0C0
C0C0
C180
6380
7F00
1C00
0600
0700
0300
0100
ENDCHAR
STARTCHAR uni051C.ss01
ENCODING -1
SWIDTH 1236 0
DWIDTH 17 0
BBX 16 13 2 0
BITMAP
C183
C186
C386
C306
C306
C30C
C70C
C70C
C508
CD18
C9B0
79F0
70E0
ENDCHAR
STARTCHAR uni048C.ss01
ENCODING -1
SWIDTH 721 0
DWIDTH 10 0
BBX 10 13 0 0
BITMAP
1800
1800
7C00
7C00
3000
3F80
7FC0
E0C0
20C0
20C0
3180
3F80
1E00
ENDCHAR
STARTCHAR uni048E.ss01
ENCODING -1
SWIDTH 662 0
DWIDTH 9 0
BBX 9 13 1 0
BITMAP
7C00
FF00
3300
3300
6700
6700
6780
FE00
F800
6000
6000
C000
C000
ENDCHAR
STARTCHAR uni0430.fina
ENCODING -1
SWIDTH 458 0
DWIDTH 6 0
BBX 6 7 0 0
BITMAP
1C
3C
6C
4C
CC
7C
6C
ENDCHAR
STARTCHAR uni0431.fina
ENCODING -1
SWIDTH 473 0
DWIDTH 7 0
BBX 6 14 1 0
BITMAP
04
3C
78
40
60
30
10
78
F8
C8
98
98
F0
F0
ENDCHAR
STARTCHAR uni0432.fina
ENCODING -1
SWIDTH 475 0
DWIDTH 7 0
BBX 5 14 1 0
BITMAP
38
38
68
48
D8
D0
F0
F0
F8
C8
C8
D8
F8
70
ENDCHAR
STARTCHAR uni0433.fina
ENCODING -1
SWIDTH 382 0
DWIDTH 5 0
BBX 5 7 1 0
BITMAP
F0
F0
30
60
88
F0
F0
ENDCHAR
STARTCHAR uni0453.fina
ENCODING -1
SWIDTH 382 0
DWIDTH 5 0
BBX 5 13 1 0
BITMAP
10
18
30
20
20
00
F0
F0
30
60
88
F0
F0
ENDCHAR
STARTCHAR uni0491.fina
ENCODING -1
SWIDTH 394 0
DWIDTH 6 0
BBX 5 9 1 0
BITMAP
08
18
F8
E0
C0
80
80
80
80
ENDCHAR
STARTCHAR uni0434.fina
ENCODING -1
SWIDTH 449 0
DWIDTH 6 0
BBX 6 14 0 -7
BITMAP
18
3C
6C
4C
CC
78
78
18
38
58
D0
90
F0
E0
ENDCHAR
STARTCHAR uni0435.fina
ENCODING -1
SWIDTH 411 0
DWIDTH 6 0
BBX 6 7 0 0
BITMAP
38
78
48
D8
64
7C
38
ENDCHAR
STARTCHAR uni0450.fina
ENCODING -1
SWIDTH 411 0
DWIDTH 6 0
BBX 6 13 0 0
BITMAP
20
60
20
30
10
00
38
78
48
D8
64
7C
38
ENDCHAR
STARTCHAR uni0451.fina
ENCODING -1
SWIDTH 411 0
DWIDTH 6 0
BBX 6 10 0 0
BITMAP
6C
6C
00
38
78
48
D8
64
7C
38
ENDCHAR
STARTCHAR uni0436.fina
ENCODING -1
SWIDTH 783 0
DWIDTH 11 0
BBX 11 7 0 0
BITMAP
36C0
75E0
1F40
1F00
D720
F5E0
65C0
ENDCHAR
STARTCHAR uni0437.fina
ENCODING -1
SWIDTH 395 0
DWIDTH 6 0
BBX 7 14 -1 -7
BITMAP
1C
3E
06
0C
38
30
18
18
3C
68
48
D8
F0
60
ENDCHAR
STARTCHAR uni0438.fina
ENCODING -1
SWIDTH 460 0
DWIDTH 6 0
BBX 5 7 1 0
BITMAP
C8
D8
D8
98
B8
F8
D8
ENDCHAR
STARTCHAR uni0439.fina
ENCODING -1
SWIDTH 460 0
DWIDTH 6 0
BBX 6 12 1 0
BITMAP
04
CC
78
70
00
C8
D8
D8
98
B8
F8
D8
ENDCHAR
STARTCHAR uni045D.fina
ENCODING -1
SWIDTH 460 0
DWIDTH 6 0
BBX 5 13 1 0
BITMAP
40
40
60
20
10
00
C8
D8
D8
98
B8
F8
D8
ENDCHAR
STARTCHAR uni048B.fina
ENCODING -1
SWIDTH 460 0
DWIDTH 6 0
BBX 6 14 1 -2
BITMAP
04
CC
78
70
00
C8
D8
D8
98
B8
F8
D8
30
30
ENDCHAR
STARTCHAR uni043A.fina
ENCODING -1
SWIDTH 541 0
DWIDTH 8 0
BBX 7 7 1 0
BITMAP
DC
FC
AC
E0
E2
FE
9C
ENDCHAR
STARTCHAR uni045C.fina
ENCODING -1
SWIDTH 541 0
DWIDTH 8 0
BBX 7 13 1 0
BITMAP
08
0C
18
10
10
00
DC
FC
AC
E0
E2
FE
9C
ENDCHAR
STARTCHAR uni043B.fina
ENCODING -1
SWIDTH 463 0
DWIDTH 6 0
BBX 6 7 0 0
BITMAP
18
18
38
28
68
6C
CC
ENDCHAR
STARTCHAR uni043C.fina
ENCODING -1
SWIDTH 669 0
DWIDTH 9 0
BBX 9 7 0 0
BITMAP
1B00
3B00
3F00
3D00
7D00
C980
C980
ENDCHAR
STARTCHAR uni043D.fina
ENCODING -1
SWIDTH 462 0
DWIDTH 6 0
BBX 5 7 1 0
BITMAP
C8
C8
F8
F8
98
98
98
ENDCHAR
STARTCHAR uni043E.fina
ENCODING -1
SWIDTH 453 0
DWIDTH 6 0
BBX 6 7 0 0
BITMAP
38
7C
4C
CC
4C
78
38
ENDCHAR
STARTCHAR uni043F.fina
ENCODING -1
SWIDTH 484 0
DWIDTH 7 0
BBX 5 7 1 0
BITMAP
D8
F8
E8
D8
D8
D8
98
ENDCHAR
STARTCHAR uni0440.fina
ENCODING -1
SWIDTH 457 0
DWIDTH 6 0
BBX 8 14 -2 -7
BITMAP
1F
1F
1B
1B
1B
3E
3C
50
50
50
D0
F0
F0
60
ENDCHAR
STARTCHAR uni0441.fina
ENCODING -1
SWIDTH 404 0
DWIDTH 6 0
BBX 6 7 0 0
BITMAP
38
78
48
C0
C4
7C
38
ENDCHAR
STARTCHAR uni0442.fina
ENCODING -1
SWIDTH 732 0
DWIDTH 10 0
BBX 9 7 1 0
BITMAP
D980
FB80
FF80
DD80
DD80
D900
9900
ENDCHAR
STARTCHAR uni0443.fina
ENCODING -1
SWIDTH 449 0
DWIDTH 6 0
BBX 6 14 0 -7
BITMAP
64
6C
6C
4C
5C
78
68
18
38
58
D0
B0
F0
E0
ENDCHAR
STARTCHAR uni045E.fina
ENCODING -1
SWIDTH 449 0
DWIDTH 6 0
BBX 7 19 0 -7
BITMAP
02
66
3C
38
00
64
6C
6C
4C
5C
78
68
18
38
58
D0
B0
F0
E0
ENDCHAR
STARTCHAR uni0444.fina
ENCODING -1
SWIDTH 721 0
DWIDTH 10 0
BBX 10 17 0 -5
BITMAP
0600
0600
0600
0400
0400
1D80
3F80
6CC0
4C80
CD80
7F80
7E00
0800
0800
0800
0800
0800
ENDCHAR
STARTCHAR uni0445.fina
ENCODING -1
SWIDTH 580 0
DWIDTH 8 0
BBX 8 7 0 0
BITMAP
36
7F
5A
18
D9
FF
6E
ENDCHAR
STARTCHAR uni0447.fina
ENCODING -1
SWIDTH 422 0
DWIDTH 6 0
BBX 5 8 1 0
BITMAP
80
F8
70
60
C0
C8
F8
F0
ENDCHAR
STARTCHAR uni0446.fina
ENCODING -1
SWIDTH 468 0
DWIDTH 7 0
BBX 5 12 1 -5
BITMAP
C8
D8
D8
98
B0
F8
C8
38
78
50
70
20
ENDCHAR
STARTCHAR uni0448.fina
ENCODING -1
SWIDTH 693 0
DWIDTH 10 0
BBX 8 7 1 0
BITMAP
C9
D9
DB
9B
BF
FF
DB
ENDCHAR
STARTCHAR uni0449.fina
ENCODING -1
SWIDTH 699 0
DWIDTH 10 0
BBX 8 12 1 -5
BITMAP
C9
D9
DB
9B
BF
FF
D9
03
05
0B
0E
04
ENDCHAR
STARTCHAR uni045F.fina
ENCODING -1
SWIDTH 462 0
DWIDTH 6 0
BBX 5 9 1 -2
BITMAP
C8
D8
D8
98
B8
F8
D8
C0
C0
ENDCHAR
STARTCHAR uni044C.fina
ENCODING -1
SWIDTH 517 0
DWIDTH 7 0
BBX 5 7 1 0
BITMAP
C0
C0
F8
F8
88
F8
70
ENDCHAR
STARTCHAR uni044A.fina
ENCODING -1
SWIDTH 543 0
DWIDTH 8 0
BBX 6 7 1 0
BITMAP
F0
60
F8
FC
CC
F8
78
ENDCHAR
STARTCHAR uni044B.fina
ENCODING -1
SWIDTH 683 0
DWIDTH 10 0
BBX 9 7 1 0
BITMAP
C180
C100
FB00
FB00
8B00
FB00
7300
ENDCHAR
STARTCHAR uni0459.fina
ENCODING -1
SWIDTH 709 0
DWIDTH 10 0
BBX 9 7 0 0
BITMAP
1800
1800
3B80
2F80
6980
6D80
CF00
ENDCHAR
STARTCHAR uni045A.fina
ENCODING -1
SWIDTH 751 0
DWIDTH 11 0
BBX 9 7 1 0
BITMAP
C800
D800
FF00
FF80
9980
9F00
8E00
ENDCHAR
STARTCHAR uni0455.fina
ENCODING -1
SWIDTH 394 0
DWIDTH 6 0
BBX 5 7 0 0
BITMAP
10
30
30
78
C8
B8
38
ENDCHAR
STARTCHAR uni0454.fina
ENCODING -1
SWIDTH 426 0
DWIDTH 6 0
BBX 6 7 0 0
BITMAP
38
7C
70
F0
44
7C
38
ENDCHAR
STARTCHAR uni044D.fina
ENCODING -1
SWIDTH 476 0
DWIDTH 7 0
BBX 6 7 0 0
BITMAP
78
7C
1C
5C
CC
7C
78
ENDCHAR
STARTCHAR uni0456.fina
ENCODING -1
SWIDTH 222 0
DWIDTH 3 0
BBX 4 10 0 0
BITMAP
30
70
00
60
60
60
60
40
40
C0
ENDCHAR
STARTCHAR uni0457.fina
ENCODING -1
SWIDTH 222 0
DWIDTH 3 0
BBX 5 10 0 0
BITMAP
D8
D8
00
60
60
60
60
40
40
C0
ENDCHAR
STARTCHAR uni0458.fina
ENCODING -1
SWIDTH 229 0
DWIDTH 3 0
BBX 7 17 -3 -7
BITMAP
0E
0C
00
0C
0C
0C
0C
08
08
08
18
38
58
D0
B0
E0
E0
ENDCHAR
STARTCHAR uni045B.fina
ENCODING -1
SWIDTH 490 0
DWIDTH 7 0
BBX 6 13 1 0
BITMAP
60
60
60
F8
78
C0
D8
FC
E8
A8
D8
D8
D8
ENDCHAR
STARTCHAR uni044E.fina
ENCODING -1
SWIDTH 676 0
DWIDTH 9 0
BBX 8 7 1 0
BITMAP
CE
DF
F9
F1
93
9F
8E
ENDCHAR
STARTCHAR uni044F.fina
ENCODING -1
SWIDTH 496 0
DWIDTH 7 0
BBX 6 7 0 0
BITMAP
3C
7C
6C
7C
3C
FC
EC
ENDCHAR
STARTCHAR uni0452.fina
ENCODING -1
SWIDTH 493 0
DWIDTH 7 0
BBX 7 20 0 -7
BITMAP
30
30
30
7C
3C
60
6C
7E
74
54
6C
6C
6C
1C
38
28
58
58
F0
60
ENDCHAR
STARTCHAR uni0463.fina
ENCODING -1
SWIDTH 517 0
DWIDTH 7 0
BBX 6 10 0 0
BITMAP
20
30
F8
F8
60
7C
7C
44
7C
38
ENDCHAR
STARTCHAR uni046B.fina
ENCODING -1
SWIDTH 878 0
DWIDTH 12 0
BBX 13 13 0 0
BITMAP
0180
0180
0380
0280
0280
0380
1FE0
1DE0
0580
0D80
DD88
F6F0
6670
ENDCHAR
STARTCHAR uni0473.fina
ENCODING -1
SWIDTH 453 0
DWIDTH 6 0
BBX 6 7 0 0
BITMAP
38
7C
4C
FC
7C
78
38
ENDCHAR
STARTCHAR uni0475.fina
ENCODING -1
SWIDTH 420 0
DWIDTH 6 0
BBX 7 7 1 0
BITMAP
8E
9A
98
B0
F0
E0
C0
ENDCHAR
STARTCHAR uni0493.fina
ENCODING -1
SWIDTH 407 0
DWIDTH 6 0
BBX 5 7 1 0
BITMAP
70
F8
10
E0
F8
F8
F0
ENDCHAR
STARTCHAR uni0495.fina
ENCODING -1
SWIDTH 442 0
DWIDTH 6 0
BBX 4 12 1 -5
BITMAP
F0
F0
30
60
80
F0
F0
30
D0
B0
E0
40
ENDCHAR
STARTCHAR uni0497.fina
ENCODING -1
SWIDTH 784 0
DWIDTH 11 0
BBX 11 12 0 -5
BITMAP
36C0
75E0
1F40
1F00
DF00
F5C0
65C0
00C0
0140
02C0
0380
0100
ENDCHAR
STARTCHAR uni0499.fina
ENCODING -1
SWIDTH 405 0
DWIDTH 6 0
BBX 6 13 0 -6
BITMAP
38
7C
4C
18
38
4C
F8
38
78
D0
90
F0
40
ENDCHAR
ENDFONT
